%TF.GenerationSoftware,KiCad,Pcbnew,(5.1.10)-1*%
%TF.CreationDate,2021-12-01T17:32:52+01:00*%
%TF.ProjectId,RelayAdapter_panelized,52656c61-7941-4646-9170-7465725f7061,rev?*%
%TF.SameCoordinates,Original*%
%TF.FileFunction,Soldermask,Bot*%
%TF.FilePolarity,Negative*%
%FSLAX46Y46*%
G04 Gerber Fmt 4.6, Leading zero omitted, Abs format (unit mm)*
G04 Created by KiCad (PCBNEW (5.1.10)-1) date 2021-12-01 17:32:52*
%MOMM*%
%LPD*%
G01*
G04 APERTURE LIST*
%ADD10C,0.500000*%
G04 APERTURE END LIST*
D10*
%TO.C,mouse-bite-2mm-slot*%
X116750000Y-117250000D03*
X116750000Y-118750000D03*
X116000000Y-118750000D03*
X114500000Y-118750000D03*
X116000000Y-117250000D03*
X115250000Y-118750000D03*
X115250000Y-117250000D03*
X114500000Y-117250000D03*
X113000000Y-117250000D03*
X113000000Y-118750000D03*
X113750000Y-117250000D03*
X112250000Y-117250000D03*
X112250000Y-118750000D03*
X113750000Y-118750000D03*
%TD*%
%TO.C,mouse-bite-2mm-slot*%
X89750000Y-117250000D03*
X89750000Y-118750000D03*
X89000000Y-118750000D03*
X87500000Y-118750000D03*
X89000000Y-117250000D03*
X88250000Y-118750000D03*
X88250000Y-117250000D03*
X87500000Y-117250000D03*
X86000000Y-117250000D03*
X86000000Y-118750000D03*
X86750000Y-117250000D03*
X85250000Y-117250000D03*
X85250000Y-118750000D03*
X86750000Y-118750000D03*
%TD*%
%TO.C,mouse-bite-2mm-slot*%
X62750000Y-117250000D03*
X62750000Y-118750000D03*
X62000000Y-118750000D03*
X60500000Y-118750000D03*
X62000000Y-117250000D03*
X61250000Y-118750000D03*
X61250000Y-117250000D03*
X60500000Y-117250000D03*
X59000000Y-117250000D03*
X59000000Y-118750000D03*
X59750000Y-117250000D03*
X58250000Y-117250000D03*
X58250000Y-118750000D03*
X59750000Y-118750000D03*
%TD*%
%TO.C,mouse-bite-2mm-slot*%
X116750000Y-101250000D03*
X116750000Y-102750000D03*
X116000000Y-102750000D03*
X114500000Y-102750000D03*
X116000000Y-101250000D03*
X115250000Y-102750000D03*
X115250000Y-101250000D03*
X114500000Y-101250000D03*
X113000000Y-101250000D03*
X113000000Y-102750000D03*
X113750000Y-101250000D03*
X112250000Y-101250000D03*
X112250000Y-102750000D03*
X113750000Y-102750000D03*
%TD*%
%TO.C,mouse-bite-2mm-slot*%
X89750000Y-101250000D03*
X89750000Y-102750000D03*
X89000000Y-102750000D03*
X87500000Y-102750000D03*
X89000000Y-101250000D03*
X88250000Y-102750000D03*
X88250000Y-101250000D03*
X87500000Y-101250000D03*
X86000000Y-101250000D03*
X86000000Y-102750000D03*
X86750000Y-101250000D03*
X85250000Y-101250000D03*
X85250000Y-102750000D03*
X86750000Y-102750000D03*
%TD*%
%TO.C,mouse-bite-2mm-slot*%
X62750000Y-101250000D03*
X62750000Y-102750000D03*
X62000000Y-102750000D03*
X60500000Y-102750000D03*
X62000000Y-101250000D03*
X61250000Y-102750000D03*
X61250000Y-101250000D03*
X60500000Y-101250000D03*
X59000000Y-101250000D03*
X59000000Y-102750000D03*
X59750000Y-101250000D03*
X58250000Y-101250000D03*
X58250000Y-102750000D03*
X59750000Y-102750000D03*
%TD*%
%TO.C,mouse-bite-2mm-slot*%
X116750000Y-85250000D03*
X116750000Y-86750000D03*
X116000000Y-86750000D03*
X114500000Y-86750000D03*
X116000000Y-85250000D03*
X115250000Y-86750000D03*
X115250000Y-85250000D03*
X114500000Y-85250000D03*
X113000000Y-85250000D03*
X113000000Y-86750000D03*
X113750000Y-85250000D03*
X112250000Y-85250000D03*
X112250000Y-86750000D03*
X113750000Y-86750000D03*
%TD*%
%TO.C,mouse-bite-2mm-slot*%
X89750000Y-85250000D03*
X89750000Y-86750000D03*
X89000000Y-86750000D03*
X87500000Y-86750000D03*
X89000000Y-85250000D03*
X88250000Y-86750000D03*
X88250000Y-85250000D03*
X87500000Y-85250000D03*
X86000000Y-85250000D03*
X86000000Y-86750000D03*
X86750000Y-85250000D03*
X85250000Y-85250000D03*
X85250000Y-86750000D03*
X86750000Y-86750000D03*
%TD*%
%TO.C,mouse-bite-2mm-slot*%
X62750000Y-85250000D03*
X62750000Y-86750000D03*
X62000000Y-86750000D03*
X60500000Y-86750000D03*
X62000000Y-85250000D03*
X61250000Y-86750000D03*
X61250000Y-85250000D03*
X60500000Y-85250000D03*
X59000000Y-85250000D03*
X59000000Y-86750000D03*
X59750000Y-85250000D03*
X58250000Y-85250000D03*
X58250000Y-86750000D03*
X59750000Y-86750000D03*
%TD*%
%TO.C,mouse-bite-2mm-slot*%
X116750000Y-69250000D03*
X116750000Y-70750000D03*
X116000000Y-70750000D03*
X114500000Y-70750000D03*
X116000000Y-69250000D03*
X115250000Y-70750000D03*
X115250000Y-69250000D03*
X114500000Y-69250000D03*
X113000000Y-69250000D03*
X113000000Y-70750000D03*
X113750000Y-69250000D03*
X112250000Y-69250000D03*
X112250000Y-70750000D03*
X113750000Y-70750000D03*
%TD*%
%TO.C,mouse-bite-2mm-slot*%
X89750000Y-69250000D03*
X89750000Y-70750000D03*
X89000000Y-70750000D03*
X87500000Y-70750000D03*
X89000000Y-69250000D03*
X88250000Y-70750000D03*
X88250000Y-69250000D03*
X87500000Y-69250000D03*
X86000000Y-69250000D03*
X86000000Y-70750000D03*
X86750000Y-69250000D03*
X85250000Y-69250000D03*
X85250000Y-70750000D03*
X86750000Y-70750000D03*
%TD*%
%TO.C,mouse-bite-2mm-slot*%
X62750000Y-69250000D03*
X62750000Y-70750000D03*
X62000000Y-70750000D03*
X60500000Y-70750000D03*
X62000000Y-69250000D03*
X61250000Y-70750000D03*
X61250000Y-69250000D03*
X60500000Y-69250000D03*
X59000000Y-69250000D03*
X59000000Y-70750000D03*
X59750000Y-69250000D03*
X58250000Y-69250000D03*
X58250000Y-70750000D03*
X59750000Y-70750000D03*
%TD*%
%TO.C,mouse-bite-2mm-slot*%
X116750000Y-53250000D03*
X116750000Y-54750000D03*
X116000000Y-54750000D03*
X114500000Y-54750000D03*
X116000000Y-53250000D03*
X115250000Y-54750000D03*
X115250000Y-53250000D03*
X114500000Y-53250000D03*
X113000000Y-53250000D03*
X113000000Y-54750000D03*
X113750000Y-53250000D03*
X112250000Y-53250000D03*
X112250000Y-54750000D03*
X113750000Y-54750000D03*
%TD*%
%TO.C,mouse-bite-2mm-slot*%
X89750000Y-53250000D03*
X89750000Y-54750000D03*
X89000000Y-54750000D03*
X87500000Y-54750000D03*
X89000000Y-53250000D03*
X88250000Y-54750000D03*
X88250000Y-53250000D03*
X87500000Y-53250000D03*
X86000000Y-53250000D03*
X86000000Y-54750000D03*
X86750000Y-53250000D03*
X85250000Y-53250000D03*
X85250000Y-54750000D03*
X86750000Y-54750000D03*
%TD*%
%TO.C,mouse-bite-2mm-slot*%
X62750000Y-53250000D03*
X62750000Y-54750000D03*
X62000000Y-54750000D03*
X60500000Y-54750000D03*
X62000000Y-53250000D03*
X61250000Y-54750000D03*
X61250000Y-53250000D03*
X60500000Y-53250000D03*
X59000000Y-53250000D03*
X59000000Y-54750000D03*
X59750000Y-53250000D03*
X58250000Y-53250000D03*
X58250000Y-54750000D03*
X59750000Y-54750000D03*
%TD*%
%TO.C,mouse-bite-2mm-slot*%
X101750000Y-126750000D03*
X101750000Y-128250000D03*
X100250000Y-128250000D03*
X100250000Y-126750000D03*
X101750000Y-127500000D03*
X100250000Y-127500000D03*
X100250000Y-126000000D03*
X100250000Y-125250000D03*
X101750000Y-125250000D03*
X100250000Y-124500000D03*
X101750000Y-126000000D03*
X101750000Y-124500000D03*
X101750000Y-123750000D03*
X100250000Y-123750000D03*
%TD*%
%TO.C,mouse-bite-2mm-slot*%
X74750000Y-126750000D03*
X74750000Y-128250000D03*
X73250000Y-128250000D03*
X73250000Y-126750000D03*
X74750000Y-127500000D03*
X73250000Y-127500000D03*
X73250000Y-126000000D03*
X73250000Y-125250000D03*
X74750000Y-125250000D03*
X73250000Y-124500000D03*
X74750000Y-126000000D03*
X74750000Y-124500000D03*
X74750000Y-123750000D03*
X73250000Y-123750000D03*
%TD*%
%TO.C,mouse-bite-2mm-slot*%
X101750000Y-110750000D03*
X101750000Y-112250000D03*
X100250000Y-112250000D03*
X100250000Y-110750000D03*
X101750000Y-111500000D03*
X100250000Y-111500000D03*
X100250000Y-110000000D03*
X100250000Y-109250000D03*
X101750000Y-109250000D03*
X100250000Y-108500000D03*
X101750000Y-110000000D03*
X101750000Y-108500000D03*
X101750000Y-107750000D03*
X100250000Y-107750000D03*
%TD*%
%TO.C,mouse-bite-2mm-slot*%
X74750000Y-110750000D03*
X74750000Y-112250000D03*
X73250000Y-112250000D03*
X73250000Y-110750000D03*
X74750000Y-111500000D03*
X73250000Y-111500000D03*
X73250000Y-110000000D03*
X73250000Y-109250000D03*
X74750000Y-109250000D03*
X73250000Y-108500000D03*
X74750000Y-110000000D03*
X74750000Y-108500000D03*
X74750000Y-107750000D03*
X73250000Y-107750000D03*
%TD*%
%TO.C,mouse-bite-2mm-slot*%
X101750000Y-94750000D03*
X101750000Y-96250000D03*
X100250000Y-96250000D03*
X100250000Y-94750000D03*
X101750000Y-95500000D03*
X100250000Y-95500000D03*
X100250000Y-94000000D03*
X100250000Y-93250000D03*
X101750000Y-93250000D03*
X100250000Y-92500000D03*
X101750000Y-94000000D03*
X101750000Y-92500000D03*
X101750000Y-91750000D03*
X100250000Y-91750000D03*
%TD*%
%TO.C,mouse-bite-2mm-slot*%
X74750000Y-94750000D03*
X74750000Y-96250000D03*
X73250000Y-96250000D03*
X73250000Y-94750000D03*
X74750000Y-95500000D03*
X73250000Y-95500000D03*
X73250000Y-94000000D03*
X73250000Y-93250000D03*
X74750000Y-93250000D03*
X73250000Y-92500000D03*
X74750000Y-94000000D03*
X74750000Y-92500000D03*
X74750000Y-91750000D03*
X73250000Y-91750000D03*
%TD*%
%TO.C,mouse-bite-2mm-slot*%
X101750000Y-78750000D03*
X101750000Y-80250000D03*
X100250000Y-80250000D03*
X100250000Y-78750000D03*
X101750000Y-79500000D03*
X100250000Y-79500000D03*
X100250000Y-78000000D03*
X100250000Y-77250000D03*
X101750000Y-77250000D03*
X100250000Y-76500000D03*
X101750000Y-78000000D03*
X101750000Y-76500000D03*
X101750000Y-75750000D03*
X100250000Y-75750000D03*
%TD*%
%TO.C,mouse-bite-2mm-slot*%
X74750000Y-78750000D03*
X74750000Y-80250000D03*
X73250000Y-80250000D03*
X73250000Y-78750000D03*
X74750000Y-79500000D03*
X73250000Y-79500000D03*
X73250000Y-78000000D03*
X73250000Y-77250000D03*
X74750000Y-77250000D03*
X73250000Y-76500000D03*
X74750000Y-78000000D03*
X74750000Y-76500000D03*
X74750000Y-75750000D03*
X73250000Y-75750000D03*
%TD*%
%TO.C,mouse-bite-2mm-slot*%
X101750000Y-62750000D03*
X101750000Y-64250000D03*
X100250000Y-64250000D03*
X100250000Y-62750000D03*
X101750000Y-63500000D03*
X100250000Y-63500000D03*
X100250000Y-62000000D03*
X100250000Y-61250000D03*
X101750000Y-61250000D03*
X100250000Y-60500000D03*
X101750000Y-62000000D03*
X101750000Y-60500000D03*
X101750000Y-59750000D03*
X100250000Y-59750000D03*
%TD*%
%TO.C,mouse-bite-2mm-slot*%
X74750000Y-62750000D03*
X74750000Y-64250000D03*
X73250000Y-64250000D03*
X73250000Y-62750000D03*
X74750000Y-63500000D03*
X73250000Y-63500000D03*
X73250000Y-62000000D03*
X73250000Y-61250000D03*
X74750000Y-61250000D03*
X73250000Y-60500000D03*
X74750000Y-62000000D03*
X74750000Y-60500000D03*
X74750000Y-59750000D03*
X73250000Y-59750000D03*
%TD*%
%TO.C,mouse-bite-2mm-slot*%
X101750000Y-46750000D03*
X101750000Y-48250000D03*
X100250000Y-48250000D03*
X100250000Y-46750000D03*
X101750000Y-47500000D03*
X100250000Y-47500000D03*
X100250000Y-46000000D03*
X100250000Y-45250000D03*
X101750000Y-45250000D03*
X100250000Y-44500000D03*
X101750000Y-46000000D03*
X101750000Y-44500000D03*
X101750000Y-43750000D03*
X100250000Y-43750000D03*
%TD*%
%TO.C,mouse-bite-2mm-slot*%
X74750000Y-46750000D03*
X74750000Y-48250000D03*
X73250000Y-48250000D03*
X73250000Y-46750000D03*
X74750000Y-47500000D03*
X73250000Y-47500000D03*
X73250000Y-46000000D03*
X73250000Y-45250000D03*
X74750000Y-45250000D03*
X73250000Y-44500000D03*
X74750000Y-46000000D03*
X74750000Y-44500000D03*
X74750000Y-43750000D03*
X73250000Y-43750000D03*
%TD*%
%TO.C,K1*%
G36*
G01*
X123510001Y-130740001D02*
X123510001Y-128740001D01*
G75*
G02*
X124010001Y-128240001I500000J0D01*
G01*
X125010001Y-128240001D01*
G75*
G02*
X125510001Y-128740001I0J-500000D01*
G01*
X125510001Y-130740001D01*
G75*
G02*
X125010001Y-131240001I-500000J0D01*
G01*
X124010001Y-131240001D01*
G75*
G02*
X123510001Y-130740001I0J500000D01*
G01*
G37*
G36*
G01*
X118510001Y-130740001D02*
X118510001Y-128740001D01*
G75*
G02*
X119010001Y-128240001I500000J0D01*
G01*
X120010001Y-128240001D01*
G75*
G02*
X120510001Y-128740001I0J-500000D01*
G01*
X120510001Y-130740001D01*
G75*
G02*
X120010001Y-131240001I-500000J0D01*
G01*
X119010001Y-131240001D01*
G75*
G02*
X118510001Y-130740001I0J500000D01*
G01*
G37*
G36*
G01*
X123510001Y-123240001D02*
X123510001Y-121240001D01*
G75*
G02*
X124010001Y-120740001I500000J0D01*
G01*
X125010001Y-120740001D01*
G75*
G02*
X125510001Y-121240001I0J-500000D01*
G01*
X125510001Y-123240001D01*
G75*
G02*
X125010001Y-123740001I-500000J0D01*
G01*
X124010001Y-123740001D01*
G75*
G02*
X123510001Y-123240001I0J500000D01*
G01*
G37*
G36*
G01*
X118510001Y-123240001D02*
X118510001Y-121240001D01*
G75*
G02*
X119010001Y-120740001I500000J0D01*
G01*
X120010001Y-120740001D01*
G75*
G02*
X120510001Y-121240001I0J-500000D01*
G01*
X120510001Y-123240001D01*
G75*
G02*
X120010001Y-123740001I-500000J0D01*
G01*
X119010001Y-123740001D01*
G75*
G02*
X118510001Y-123240001I0J500000D01*
G01*
G37*
G36*
G01*
X103260001Y-130240001D02*
X103260001Y-129240001D01*
G75*
G02*
X103760001Y-128740001I500000J0D01*
G01*
X105260001Y-128740001D01*
G75*
G02*
X105760001Y-129240001I0J-500000D01*
G01*
X105760001Y-130240001D01*
G75*
G02*
X105260001Y-130740001I-500000J0D01*
G01*
X103760001Y-130740001D01*
G75*
G02*
X103260001Y-130240001I0J500000D01*
G01*
G37*
G36*
G01*
X103260001Y-122740001D02*
X103260001Y-121740001D01*
G75*
G02*
X103760001Y-121240001I500000J0D01*
G01*
X105260001Y-121240001D01*
G75*
G02*
X105760001Y-121740001I0J-500000D01*
G01*
X105760001Y-122740001D01*
G75*
G02*
X105260001Y-123240001I-500000J0D01*
G01*
X103760001Y-123240001D01*
G75*
G02*
X103260001Y-122740001I0J500000D01*
G01*
G37*
%TD*%
%TO.C,K1*%
G36*
G01*
X96510001Y-130740001D02*
X96510001Y-128740001D01*
G75*
G02*
X97010001Y-128240001I500000J0D01*
G01*
X98010001Y-128240001D01*
G75*
G02*
X98510001Y-128740001I0J-500000D01*
G01*
X98510001Y-130740001D01*
G75*
G02*
X98010001Y-131240001I-500000J0D01*
G01*
X97010001Y-131240001D01*
G75*
G02*
X96510001Y-130740001I0J500000D01*
G01*
G37*
G36*
G01*
X91510001Y-130740001D02*
X91510001Y-128740001D01*
G75*
G02*
X92010001Y-128240001I500000J0D01*
G01*
X93010001Y-128240001D01*
G75*
G02*
X93510001Y-128740001I0J-500000D01*
G01*
X93510001Y-130740001D01*
G75*
G02*
X93010001Y-131240001I-500000J0D01*
G01*
X92010001Y-131240001D01*
G75*
G02*
X91510001Y-130740001I0J500000D01*
G01*
G37*
G36*
G01*
X96510001Y-123240001D02*
X96510001Y-121240001D01*
G75*
G02*
X97010001Y-120740001I500000J0D01*
G01*
X98010001Y-120740001D01*
G75*
G02*
X98510001Y-121240001I0J-500000D01*
G01*
X98510001Y-123240001D01*
G75*
G02*
X98010001Y-123740001I-500000J0D01*
G01*
X97010001Y-123740001D01*
G75*
G02*
X96510001Y-123240001I0J500000D01*
G01*
G37*
G36*
G01*
X91510001Y-123240001D02*
X91510001Y-121240001D01*
G75*
G02*
X92010001Y-120740001I500000J0D01*
G01*
X93010001Y-120740001D01*
G75*
G02*
X93510001Y-121240001I0J-500000D01*
G01*
X93510001Y-123240001D01*
G75*
G02*
X93010001Y-123740001I-500000J0D01*
G01*
X92010001Y-123740001D01*
G75*
G02*
X91510001Y-123240001I0J500000D01*
G01*
G37*
G36*
G01*
X76260001Y-130240001D02*
X76260001Y-129240001D01*
G75*
G02*
X76760001Y-128740001I500000J0D01*
G01*
X78260001Y-128740001D01*
G75*
G02*
X78760001Y-129240001I0J-500000D01*
G01*
X78760001Y-130240001D01*
G75*
G02*
X78260001Y-130740001I-500000J0D01*
G01*
X76760001Y-130740001D01*
G75*
G02*
X76260001Y-130240001I0J500000D01*
G01*
G37*
G36*
G01*
X76260001Y-122740001D02*
X76260001Y-121740001D01*
G75*
G02*
X76760001Y-121240001I500000J0D01*
G01*
X78260001Y-121240001D01*
G75*
G02*
X78760001Y-121740001I0J-500000D01*
G01*
X78760001Y-122740001D01*
G75*
G02*
X78260001Y-123240001I-500000J0D01*
G01*
X76760001Y-123240001D01*
G75*
G02*
X76260001Y-122740001I0J500000D01*
G01*
G37*
%TD*%
%TO.C,K1*%
G36*
G01*
X69510001Y-130740001D02*
X69510001Y-128740001D01*
G75*
G02*
X70010001Y-128240001I500000J0D01*
G01*
X71010001Y-128240001D01*
G75*
G02*
X71510001Y-128740001I0J-500000D01*
G01*
X71510001Y-130740001D01*
G75*
G02*
X71010001Y-131240001I-500000J0D01*
G01*
X70010001Y-131240001D01*
G75*
G02*
X69510001Y-130740001I0J500000D01*
G01*
G37*
G36*
G01*
X64510001Y-130740001D02*
X64510001Y-128740001D01*
G75*
G02*
X65010001Y-128240001I500000J0D01*
G01*
X66010001Y-128240001D01*
G75*
G02*
X66510001Y-128740001I0J-500000D01*
G01*
X66510001Y-130740001D01*
G75*
G02*
X66010001Y-131240001I-500000J0D01*
G01*
X65010001Y-131240001D01*
G75*
G02*
X64510001Y-130740001I0J500000D01*
G01*
G37*
G36*
G01*
X69510001Y-123240001D02*
X69510001Y-121240001D01*
G75*
G02*
X70010001Y-120740001I500000J0D01*
G01*
X71010001Y-120740001D01*
G75*
G02*
X71510001Y-121240001I0J-500000D01*
G01*
X71510001Y-123240001D01*
G75*
G02*
X71010001Y-123740001I-500000J0D01*
G01*
X70010001Y-123740001D01*
G75*
G02*
X69510001Y-123240001I0J500000D01*
G01*
G37*
G36*
G01*
X64510001Y-123240001D02*
X64510001Y-121240001D01*
G75*
G02*
X65010001Y-120740001I500000J0D01*
G01*
X66010001Y-120740001D01*
G75*
G02*
X66510001Y-121240001I0J-500000D01*
G01*
X66510001Y-123240001D01*
G75*
G02*
X66010001Y-123740001I-500000J0D01*
G01*
X65010001Y-123740001D01*
G75*
G02*
X64510001Y-123240001I0J500000D01*
G01*
G37*
G36*
G01*
X49260001Y-130240001D02*
X49260001Y-129240001D01*
G75*
G02*
X49760001Y-128740001I500000J0D01*
G01*
X51260001Y-128740001D01*
G75*
G02*
X51760001Y-129240001I0J-500000D01*
G01*
X51760001Y-130240001D01*
G75*
G02*
X51260001Y-130740001I-500000J0D01*
G01*
X49760001Y-130740001D01*
G75*
G02*
X49260001Y-130240001I0J500000D01*
G01*
G37*
G36*
G01*
X49260001Y-122740001D02*
X49260001Y-121740001D01*
G75*
G02*
X49760001Y-121240001I500000J0D01*
G01*
X51260001Y-121240001D01*
G75*
G02*
X51760001Y-121740001I0J-500000D01*
G01*
X51760001Y-122740001D01*
G75*
G02*
X51260001Y-123240001I-500000J0D01*
G01*
X49760001Y-123240001D01*
G75*
G02*
X49260001Y-122740001I0J500000D01*
G01*
G37*
%TD*%
%TO.C,K1*%
G36*
G01*
X123510001Y-114740001D02*
X123510001Y-112740001D01*
G75*
G02*
X124010001Y-112240001I500000J0D01*
G01*
X125010001Y-112240001D01*
G75*
G02*
X125510001Y-112740001I0J-500000D01*
G01*
X125510001Y-114740001D01*
G75*
G02*
X125010001Y-115240001I-500000J0D01*
G01*
X124010001Y-115240001D01*
G75*
G02*
X123510001Y-114740001I0J500000D01*
G01*
G37*
G36*
G01*
X118510001Y-114740001D02*
X118510001Y-112740001D01*
G75*
G02*
X119010001Y-112240001I500000J0D01*
G01*
X120010001Y-112240001D01*
G75*
G02*
X120510001Y-112740001I0J-500000D01*
G01*
X120510001Y-114740001D01*
G75*
G02*
X120010001Y-115240001I-500000J0D01*
G01*
X119010001Y-115240001D01*
G75*
G02*
X118510001Y-114740001I0J500000D01*
G01*
G37*
G36*
G01*
X123510001Y-107240001D02*
X123510001Y-105240001D01*
G75*
G02*
X124010001Y-104740001I500000J0D01*
G01*
X125010001Y-104740001D01*
G75*
G02*
X125510001Y-105240001I0J-500000D01*
G01*
X125510001Y-107240001D01*
G75*
G02*
X125010001Y-107740001I-500000J0D01*
G01*
X124010001Y-107740001D01*
G75*
G02*
X123510001Y-107240001I0J500000D01*
G01*
G37*
G36*
G01*
X118510001Y-107240001D02*
X118510001Y-105240001D01*
G75*
G02*
X119010001Y-104740001I500000J0D01*
G01*
X120010001Y-104740001D01*
G75*
G02*
X120510001Y-105240001I0J-500000D01*
G01*
X120510001Y-107240001D01*
G75*
G02*
X120010001Y-107740001I-500000J0D01*
G01*
X119010001Y-107740001D01*
G75*
G02*
X118510001Y-107240001I0J500000D01*
G01*
G37*
G36*
G01*
X103260001Y-114240001D02*
X103260001Y-113240001D01*
G75*
G02*
X103760001Y-112740001I500000J0D01*
G01*
X105260001Y-112740001D01*
G75*
G02*
X105760001Y-113240001I0J-500000D01*
G01*
X105760001Y-114240001D01*
G75*
G02*
X105260001Y-114740001I-500000J0D01*
G01*
X103760001Y-114740001D01*
G75*
G02*
X103260001Y-114240001I0J500000D01*
G01*
G37*
G36*
G01*
X103260001Y-106740001D02*
X103260001Y-105740001D01*
G75*
G02*
X103760001Y-105240001I500000J0D01*
G01*
X105260001Y-105240001D01*
G75*
G02*
X105760001Y-105740001I0J-500000D01*
G01*
X105760001Y-106740001D01*
G75*
G02*
X105260001Y-107240001I-500000J0D01*
G01*
X103760001Y-107240001D01*
G75*
G02*
X103260001Y-106740001I0J500000D01*
G01*
G37*
%TD*%
%TO.C,K1*%
G36*
G01*
X96510001Y-114740001D02*
X96510001Y-112740001D01*
G75*
G02*
X97010001Y-112240001I500000J0D01*
G01*
X98010001Y-112240001D01*
G75*
G02*
X98510001Y-112740001I0J-500000D01*
G01*
X98510001Y-114740001D01*
G75*
G02*
X98010001Y-115240001I-500000J0D01*
G01*
X97010001Y-115240001D01*
G75*
G02*
X96510001Y-114740001I0J500000D01*
G01*
G37*
G36*
G01*
X91510001Y-114740001D02*
X91510001Y-112740001D01*
G75*
G02*
X92010001Y-112240001I500000J0D01*
G01*
X93010001Y-112240001D01*
G75*
G02*
X93510001Y-112740001I0J-500000D01*
G01*
X93510001Y-114740001D01*
G75*
G02*
X93010001Y-115240001I-500000J0D01*
G01*
X92010001Y-115240001D01*
G75*
G02*
X91510001Y-114740001I0J500000D01*
G01*
G37*
G36*
G01*
X96510001Y-107240001D02*
X96510001Y-105240001D01*
G75*
G02*
X97010001Y-104740001I500000J0D01*
G01*
X98010001Y-104740001D01*
G75*
G02*
X98510001Y-105240001I0J-500000D01*
G01*
X98510001Y-107240001D01*
G75*
G02*
X98010001Y-107740001I-500000J0D01*
G01*
X97010001Y-107740001D01*
G75*
G02*
X96510001Y-107240001I0J500000D01*
G01*
G37*
G36*
G01*
X91510001Y-107240001D02*
X91510001Y-105240001D01*
G75*
G02*
X92010001Y-104740001I500000J0D01*
G01*
X93010001Y-104740001D01*
G75*
G02*
X93510001Y-105240001I0J-500000D01*
G01*
X93510001Y-107240001D01*
G75*
G02*
X93010001Y-107740001I-500000J0D01*
G01*
X92010001Y-107740001D01*
G75*
G02*
X91510001Y-107240001I0J500000D01*
G01*
G37*
G36*
G01*
X76260001Y-114240001D02*
X76260001Y-113240001D01*
G75*
G02*
X76760001Y-112740001I500000J0D01*
G01*
X78260001Y-112740001D01*
G75*
G02*
X78760001Y-113240001I0J-500000D01*
G01*
X78760001Y-114240001D01*
G75*
G02*
X78260001Y-114740001I-500000J0D01*
G01*
X76760001Y-114740001D01*
G75*
G02*
X76260001Y-114240001I0J500000D01*
G01*
G37*
G36*
G01*
X76260001Y-106740001D02*
X76260001Y-105740001D01*
G75*
G02*
X76760001Y-105240001I500000J0D01*
G01*
X78260001Y-105240001D01*
G75*
G02*
X78760001Y-105740001I0J-500000D01*
G01*
X78760001Y-106740001D01*
G75*
G02*
X78260001Y-107240001I-500000J0D01*
G01*
X76760001Y-107240001D01*
G75*
G02*
X76260001Y-106740001I0J500000D01*
G01*
G37*
%TD*%
%TO.C,K1*%
G36*
G01*
X69510001Y-114740001D02*
X69510001Y-112740001D01*
G75*
G02*
X70010001Y-112240001I500000J0D01*
G01*
X71010001Y-112240001D01*
G75*
G02*
X71510001Y-112740001I0J-500000D01*
G01*
X71510001Y-114740001D01*
G75*
G02*
X71010001Y-115240001I-500000J0D01*
G01*
X70010001Y-115240001D01*
G75*
G02*
X69510001Y-114740001I0J500000D01*
G01*
G37*
G36*
G01*
X64510001Y-114740001D02*
X64510001Y-112740001D01*
G75*
G02*
X65010001Y-112240001I500000J0D01*
G01*
X66010001Y-112240001D01*
G75*
G02*
X66510001Y-112740001I0J-500000D01*
G01*
X66510001Y-114740001D01*
G75*
G02*
X66010001Y-115240001I-500000J0D01*
G01*
X65010001Y-115240001D01*
G75*
G02*
X64510001Y-114740001I0J500000D01*
G01*
G37*
G36*
G01*
X69510001Y-107240001D02*
X69510001Y-105240001D01*
G75*
G02*
X70010001Y-104740001I500000J0D01*
G01*
X71010001Y-104740001D01*
G75*
G02*
X71510001Y-105240001I0J-500000D01*
G01*
X71510001Y-107240001D01*
G75*
G02*
X71010001Y-107740001I-500000J0D01*
G01*
X70010001Y-107740001D01*
G75*
G02*
X69510001Y-107240001I0J500000D01*
G01*
G37*
G36*
G01*
X64510001Y-107240001D02*
X64510001Y-105240001D01*
G75*
G02*
X65010001Y-104740001I500000J0D01*
G01*
X66010001Y-104740001D01*
G75*
G02*
X66510001Y-105240001I0J-500000D01*
G01*
X66510001Y-107240001D01*
G75*
G02*
X66010001Y-107740001I-500000J0D01*
G01*
X65010001Y-107740001D01*
G75*
G02*
X64510001Y-107240001I0J500000D01*
G01*
G37*
G36*
G01*
X49260001Y-114240001D02*
X49260001Y-113240001D01*
G75*
G02*
X49760001Y-112740001I500000J0D01*
G01*
X51260001Y-112740001D01*
G75*
G02*
X51760001Y-113240001I0J-500000D01*
G01*
X51760001Y-114240001D01*
G75*
G02*
X51260001Y-114740001I-500000J0D01*
G01*
X49760001Y-114740001D01*
G75*
G02*
X49260001Y-114240001I0J500000D01*
G01*
G37*
G36*
G01*
X49260001Y-106740001D02*
X49260001Y-105740001D01*
G75*
G02*
X49760001Y-105240001I500000J0D01*
G01*
X51260001Y-105240001D01*
G75*
G02*
X51760001Y-105740001I0J-500000D01*
G01*
X51760001Y-106740001D01*
G75*
G02*
X51260001Y-107240001I-500000J0D01*
G01*
X49760001Y-107240001D01*
G75*
G02*
X49260001Y-106740001I0J500000D01*
G01*
G37*
%TD*%
%TO.C,K1*%
G36*
G01*
X123510001Y-98740001D02*
X123510001Y-96740001D01*
G75*
G02*
X124010001Y-96240001I500000J0D01*
G01*
X125010001Y-96240001D01*
G75*
G02*
X125510001Y-96740001I0J-500000D01*
G01*
X125510001Y-98740001D01*
G75*
G02*
X125010001Y-99240001I-500000J0D01*
G01*
X124010001Y-99240001D01*
G75*
G02*
X123510001Y-98740001I0J500000D01*
G01*
G37*
G36*
G01*
X118510001Y-98740001D02*
X118510001Y-96740001D01*
G75*
G02*
X119010001Y-96240001I500000J0D01*
G01*
X120010001Y-96240001D01*
G75*
G02*
X120510001Y-96740001I0J-500000D01*
G01*
X120510001Y-98740001D01*
G75*
G02*
X120010001Y-99240001I-500000J0D01*
G01*
X119010001Y-99240001D01*
G75*
G02*
X118510001Y-98740001I0J500000D01*
G01*
G37*
G36*
G01*
X123510001Y-91240001D02*
X123510001Y-89240001D01*
G75*
G02*
X124010001Y-88740001I500000J0D01*
G01*
X125010001Y-88740001D01*
G75*
G02*
X125510001Y-89240001I0J-500000D01*
G01*
X125510001Y-91240001D01*
G75*
G02*
X125010001Y-91740001I-500000J0D01*
G01*
X124010001Y-91740001D01*
G75*
G02*
X123510001Y-91240001I0J500000D01*
G01*
G37*
G36*
G01*
X118510001Y-91240001D02*
X118510001Y-89240001D01*
G75*
G02*
X119010001Y-88740001I500000J0D01*
G01*
X120010001Y-88740001D01*
G75*
G02*
X120510001Y-89240001I0J-500000D01*
G01*
X120510001Y-91240001D01*
G75*
G02*
X120010001Y-91740001I-500000J0D01*
G01*
X119010001Y-91740001D01*
G75*
G02*
X118510001Y-91240001I0J500000D01*
G01*
G37*
G36*
G01*
X103260001Y-98240001D02*
X103260001Y-97240001D01*
G75*
G02*
X103760001Y-96740001I500000J0D01*
G01*
X105260001Y-96740001D01*
G75*
G02*
X105760001Y-97240001I0J-500000D01*
G01*
X105760001Y-98240001D01*
G75*
G02*
X105260001Y-98740001I-500000J0D01*
G01*
X103760001Y-98740001D01*
G75*
G02*
X103260001Y-98240001I0J500000D01*
G01*
G37*
G36*
G01*
X103260001Y-90740001D02*
X103260001Y-89740001D01*
G75*
G02*
X103760001Y-89240001I500000J0D01*
G01*
X105260001Y-89240001D01*
G75*
G02*
X105760001Y-89740001I0J-500000D01*
G01*
X105760001Y-90740001D01*
G75*
G02*
X105260001Y-91240001I-500000J0D01*
G01*
X103760001Y-91240001D01*
G75*
G02*
X103260001Y-90740001I0J500000D01*
G01*
G37*
%TD*%
%TO.C,K1*%
G36*
G01*
X96510001Y-98740001D02*
X96510001Y-96740001D01*
G75*
G02*
X97010001Y-96240001I500000J0D01*
G01*
X98010001Y-96240001D01*
G75*
G02*
X98510001Y-96740001I0J-500000D01*
G01*
X98510001Y-98740001D01*
G75*
G02*
X98010001Y-99240001I-500000J0D01*
G01*
X97010001Y-99240001D01*
G75*
G02*
X96510001Y-98740001I0J500000D01*
G01*
G37*
G36*
G01*
X91510001Y-98740001D02*
X91510001Y-96740001D01*
G75*
G02*
X92010001Y-96240001I500000J0D01*
G01*
X93010001Y-96240001D01*
G75*
G02*
X93510001Y-96740001I0J-500000D01*
G01*
X93510001Y-98740001D01*
G75*
G02*
X93010001Y-99240001I-500000J0D01*
G01*
X92010001Y-99240001D01*
G75*
G02*
X91510001Y-98740001I0J500000D01*
G01*
G37*
G36*
G01*
X96510001Y-91240001D02*
X96510001Y-89240001D01*
G75*
G02*
X97010001Y-88740001I500000J0D01*
G01*
X98010001Y-88740001D01*
G75*
G02*
X98510001Y-89240001I0J-500000D01*
G01*
X98510001Y-91240001D01*
G75*
G02*
X98010001Y-91740001I-500000J0D01*
G01*
X97010001Y-91740001D01*
G75*
G02*
X96510001Y-91240001I0J500000D01*
G01*
G37*
G36*
G01*
X91510001Y-91240001D02*
X91510001Y-89240001D01*
G75*
G02*
X92010001Y-88740001I500000J0D01*
G01*
X93010001Y-88740001D01*
G75*
G02*
X93510001Y-89240001I0J-500000D01*
G01*
X93510001Y-91240001D01*
G75*
G02*
X93010001Y-91740001I-500000J0D01*
G01*
X92010001Y-91740001D01*
G75*
G02*
X91510001Y-91240001I0J500000D01*
G01*
G37*
G36*
G01*
X76260001Y-98240001D02*
X76260001Y-97240001D01*
G75*
G02*
X76760001Y-96740001I500000J0D01*
G01*
X78260001Y-96740001D01*
G75*
G02*
X78760001Y-97240001I0J-500000D01*
G01*
X78760001Y-98240001D01*
G75*
G02*
X78260001Y-98740001I-500000J0D01*
G01*
X76760001Y-98740001D01*
G75*
G02*
X76260001Y-98240001I0J500000D01*
G01*
G37*
G36*
G01*
X76260001Y-90740001D02*
X76260001Y-89740001D01*
G75*
G02*
X76760001Y-89240001I500000J0D01*
G01*
X78260001Y-89240001D01*
G75*
G02*
X78760001Y-89740001I0J-500000D01*
G01*
X78760001Y-90740001D01*
G75*
G02*
X78260001Y-91240001I-500000J0D01*
G01*
X76760001Y-91240001D01*
G75*
G02*
X76260001Y-90740001I0J500000D01*
G01*
G37*
%TD*%
%TO.C,K1*%
G36*
G01*
X69510001Y-98740001D02*
X69510001Y-96740001D01*
G75*
G02*
X70010001Y-96240001I500000J0D01*
G01*
X71010001Y-96240001D01*
G75*
G02*
X71510001Y-96740001I0J-500000D01*
G01*
X71510001Y-98740001D01*
G75*
G02*
X71010001Y-99240001I-500000J0D01*
G01*
X70010001Y-99240001D01*
G75*
G02*
X69510001Y-98740001I0J500000D01*
G01*
G37*
G36*
G01*
X64510001Y-98740001D02*
X64510001Y-96740001D01*
G75*
G02*
X65010001Y-96240001I500000J0D01*
G01*
X66010001Y-96240001D01*
G75*
G02*
X66510001Y-96740001I0J-500000D01*
G01*
X66510001Y-98740001D01*
G75*
G02*
X66010001Y-99240001I-500000J0D01*
G01*
X65010001Y-99240001D01*
G75*
G02*
X64510001Y-98740001I0J500000D01*
G01*
G37*
G36*
G01*
X69510001Y-91240001D02*
X69510001Y-89240001D01*
G75*
G02*
X70010001Y-88740001I500000J0D01*
G01*
X71010001Y-88740001D01*
G75*
G02*
X71510001Y-89240001I0J-500000D01*
G01*
X71510001Y-91240001D01*
G75*
G02*
X71010001Y-91740001I-500000J0D01*
G01*
X70010001Y-91740001D01*
G75*
G02*
X69510001Y-91240001I0J500000D01*
G01*
G37*
G36*
G01*
X64510001Y-91240001D02*
X64510001Y-89240001D01*
G75*
G02*
X65010001Y-88740001I500000J0D01*
G01*
X66010001Y-88740001D01*
G75*
G02*
X66510001Y-89240001I0J-500000D01*
G01*
X66510001Y-91240001D01*
G75*
G02*
X66010001Y-91740001I-500000J0D01*
G01*
X65010001Y-91740001D01*
G75*
G02*
X64510001Y-91240001I0J500000D01*
G01*
G37*
G36*
G01*
X49260001Y-98240001D02*
X49260001Y-97240001D01*
G75*
G02*
X49760001Y-96740001I500000J0D01*
G01*
X51260001Y-96740001D01*
G75*
G02*
X51760001Y-97240001I0J-500000D01*
G01*
X51760001Y-98240001D01*
G75*
G02*
X51260001Y-98740001I-500000J0D01*
G01*
X49760001Y-98740001D01*
G75*
G02*
X49260001Y-98240001I0J500000D01*
G01*
G37*
G36*
G01*
X49260001Y-90740001D02*
X49260001Y-89740001D01*
G75*
G02*
X49760001Y-89240001I500000J0D01*
G01*
X51260001Y-89240001D01*
G75*
G02*
X51760001Y-89740001I0J-500000D01*
G01*
X51760001Y-90740001D01*
G75*
G02*
X51260001Y-91240001I-500000J0D01*
G01*
X49760001Y-91240001D01*
G75*
G02*
X49260001Y-90740001I0J500000D01*
G01*
G37*
%TD*%
%TO.C,K1*%
G36*
G01*
X123510001Y-82740001D02*
X123510001Y-80740001D01*
G75*
G02*
X124010001Y-80240001I500000J0D01*
G01*
X125010001Y-80240001D01*
G75*
G02*
X125510001Y-80740001I0J-500000D01*
G01*
X125510001Y-82740001D01*
G75*
G02*
X125010001Y-83240001I-500000J0D01*
G01*
X124010001Y-83240001D01*
G75*
G02*
X123510001Y-82740001I0J500000D01*
G01*
G37*
G36*
G01*
X118510001Y-82740001D02*
X118510001Y-80740001D01*
G75*
G02*
X119010001Y-80240001I500000J0D01*
G01*
X120010001Y-80240001D01*
G75*
G02*
X120510001Y-80740001I0J-500000D01*
G01*
X120510001Y-82740001D01*
G75*
G02*
X120010001Y-83240001I-500000J0D01*
G01*
X119010001Y-83240001D01*
G75*
G02*
X118510001Y-82740001I0J500000D01*
G01*
G37*
G36*
G01*
X123510001Y-75240001D02*
X123510001Y-73240001D01*
G75*
G02*
X124010001Y-72740001I500000J0D01*
G01*
X125010001Y-72740001D01*
G75*
G02*
X125510001Y-73240001I0J-500000D01*
G01*
X125510001Y-75240001D01*
G75*
G02*
X125010001Y-75740001I-500000J0D01*
G01*
X124010001Y-75740001D01*
G75*
G02*
X123510001Y-75240001I0J500000D01*
G01*
G37*
G36*
G01*
X118510001Y-75240001D02*
X118510001Y-73240001D01*
G75*
G02*
X119010001Y-72740001I500000J0D01*
G01*
X120010001Y-72740001D01*
G75*
G02*
X120510001Y-73240001I0J-500000D01*
G01*
X120510001Y-75240001D01*
G75*
G02*
X120010001Y-75740001I-500000J0D01*
G01*
X119010001Y-75740001D01*
G75*
G02*
X118510001Y-75240001I0J500000D01*
G01*
G37*
G36*
G01*
X103260001Y-82240001D02*
X103260001Y-81240001D01*
G75*
G02*
X103760001Y-80740001I500000J0D01*
G01*
X105260001Y-80740001D01*
G75*
G02*
X105760001Y-81240001I0J-500000D01*
G01*
X105760001Y-82240001D01*
G75*
G02*
X105260001Y-82740001I-500000J0D01*
G01*
X103760001Y-82740001D01*
G75*
G02*
X103260001Y-82240001I0J500000D01*
G01*
G37*
G36*
G01*
X103260001Y-74740001D02*
X103260001Y-73740001D01*
G75*
G02*
X103760001Y-73240001I500000J0D01*
G01*
X105260001Y-73240001D01*
G75*
G02*
X105760001Y-73740001I0J-500000D01*
G01*
X105760001Y-74740001D01*
G75*
G02*
X105260001Y-75240001I-500000J0D01*
G01*
X103760001Y-75240001D01*
G75*
G02*
X103260001Y-74740001I0J500000D01*
G01*
G37*
%TD*%
%TO.C,K1*%
G36*
G01*
X96510001Y-82740001D02*
X96510001Y-80740001D01*
G75*
G02*
X97010001Y-80240001I500000J0D01*
G01*
X98010001Y-80240001D01*
G75*
G02*
X98510001Y-80740001I0J-500000D01*
G01*
X98510001Y-82740001D01*
G75*
G02*
X98010001Y-83240001I-500000J0D01*
G01*
X97010001Y-83240001D01*
G75*
G02*
X96510001Y-82740001I0J500000D01*
G01*
G37*
G36*
G01*
X91510001Y-82740001D02*
X91510001Y-80740001D01*
G75*
G02*
X92010001Y-80240001I500000J0D01*
G01*
X93010001Y-80240001D01*
G75*
G02*
X93510001Y-80740001I0J-500000D01*
G01*
X93510001Y-82740001D01*
G75*
G02*
X93010001Y-83240001I-500000J0D01*
G01*
X92010001Y-83240001D01*
G75*
G02*
X91510001Y-82740001I0J500000D01*
G01*
G37*
G36*
G01*
X96510001Y-75240001D02*
X96510001Y-73240001D01*
G75*
G02*
X97010001Y-72740001I500000J0D01*
G01*
X98010001Y-72740001D01*
G75*
G02*
X98510001Y-73240001I0J-500000D01*
G01*
X98510001Y-75240001D01*
G75*
G02*
X98010001Y-75740001I-500000J0D01*
G01*
X97010001Y-75740001D01*
G75*
G02*
X96510001Y-75240001I0J500000D01*
G01*
G37*
G36*
G01*
X91510001Y-75240001D02*
X91510001Y-73240001D01*
G75*
G02*
X92010001Y-72740001I500000J0D01*
G01*
X93010001Y-72740001D01*
G75*
G02*
X93510001Y-73240001I0J-500000D01*
G01*
X93510001Y-75240001D01*
G75*
G02*
X93010001Y-75740001I-500000J0D01*
G01*
X92010001Y-75740001D01*
G75*
G02*
X91510001Y-75240001I0J500000D01*
G01*
G37*
G36*
G01*
X76260001Y-82240001D02*
X76260001Y-81240001D01*
G75*
G02*
X76760001Y-80740001I500000J0D01*
G01*
X78260001Y-80740001D01*
G75*
G02*
X78760001Y-81240001I0J-500000D01*
G01*
X78760001Y-82240001D01*
G75*
G02*
X78260001Y-82740001I-500000J0D01*
G01*
X76760001Y-82740001D01*
G75*
G02*
X76260001Y-82240001I0J500000D01*
G01*
G37*
G36*
G01*
X76260001Y-74740001D02*
X76260001Y-73740001D01*
G75*
G02*
X76760001Y-73240001I500000J0D01*
G01*
X78260001Y-73240001D01*
G75*
G02*
X78760001Y-73740001I0J-500000D01*
G01*
X78760001Y-74740001D01*
G75*
G02*
X78260001Y-75240001I-500000J0D01*
G01*
X76760001Y-75240001D01*
G75*
G02*
X76260001Y-74740001I0J500000D01*
G01*
G37*
%TD*%
%TO.C,K1*%
G36*
G01*
X69510001Y-82740001D02*
X69510001Y-80740001D01*
G75*
G02*
X70010001Y-80240001I500000J0D01*
G01*
X71010001Y-80240001D01*
G75*
G02*
X71510001Y-80740001I0J-500000D01*
G01*
X71510001Y-82740001D01*
G75*
G02*
X71010001Y-83240001I-500000J0D01*
G01*
X70010001Y-83240001D01*
G75*
G02*
X69510001Y-82740001I0J500000D01*
G01*
G37*
G36*
G01*
X64510001Y-82740001D02*
X64510001Y-80740001D01*
G75*
G02*
X65010001Y-80240001I500000J0D01*
G01*
X66010001Y-80240001D01*
G75*
G02*
X66510001Y-80740001I0J-500000D01*
G01*
X66510001Y-82740001D01*
G75*
G02*
X66010001Y-83240001I-500000J0D01*
G01*
X65010001Y-83240001D01*
G75*
G02*
X64510001Y-82740001I0J500000D01*
G01*
G37*
G36*
G01*
X69510001Y-75240001D02*
X69510001Y-73240001D01*
G75*
G02*
X70010001Y-72740001I500000J0D01*
G01*
X71010001Y-72740001D01*
G75*
G02*
X71510001Y-73240001I0J-500000D01*
G01*
X71510001Y-75240001D01*
G75*
G02*
X71010001Y-75740001I-500000J0D01*
G01*
X70010001Y-75740001D01*
G75*
G02*
X69510001Y-75240001I0J500000D01*
G01*
G37*
G36*
G01*
X64510001Y-75240001D02*
X64510001Y-73240001D01*
G75*
G02*
X65010001Y-72740001I500000J0D01*
G01*
X66010001Y-72740001D01*
G75*
G02*
X66510001Y-73240001I0J-500000D01*
G01*
X66510001Y-75240001D01*
G75*
G02*
X66010001Y-75740001I-500000J0D01*
G01*
X65010001Y-75740001D01*
G75*
G02*
X64510001Y-75240001I0J500000D01*
G01*
G37*
G36*
G01*
X49260001Y-82240001D02*
X49260001Y-81240001D01*
G75*
G02*
X49760001Y-80740001I500000J0D01*
G01*
X51260001Y-80740001D01*
G75*
G02*
X51760001Y-81240001I0J-500000D01*
G01*
X51760001Y-82240001D01*
G75*
G02*
X51260001Y-82740001I-500000J0D01*
G01*
X49760001Y-82740001D01*
G75*
G02*
X49260001Y-82240001I0J500000D01*
G01*
G37*
G36*
G01*
X49260001Y-74740001D02*
X49260001Y-73740001D01*
G75*
G02*
X49760001Y-73240001I500000J0D01*
G01*
X51260001Y-73240001D01*
G75*
G02*
X51760001Y-73740001I0J-500000D01*
G01*
X51760001Y-74740001D01*
G75*
G02*
X51260001Y-75240001I-500000J0D01*
G01*
X49760001Y-75240001D01*
G75*
G02*
X49260001Y-74740001I0J500000D01*
G01*
G37*
%TD*%
%TO.C,K1*%
G36*
G01*
X123510001Y-66740001D02*
X123510001Y-64740001D01*
G75*
G02*
X124010001Y-64240001I500000J0D01*
G01*
X125010001Y-64240001D01*
G75*
G02*
X125510001Y-64740001I0J-500000D01*
G01*
X125510001Y-66740001D01*
G75*
G02*
X125010001Y-67240001I-500000J0D01*
G01*
X124010001Y-67240001D01*
G75*
G02*
X123510001Y-66740001I0J500000D01*
G01*
G37*
G36*
G01*
X118510001Y-66740001D02*
X118510001Y-64740001D01*
G75*
G02*
X119010001Y-64240001I500000J0D01*
G01*
X120010001Y-64240001D01*
G75*
G02*
X120510001Y-64740001I0J-500000D01*
G01*
X120510001Y-66740001D01*
G75*
G02*
X120010001Y-67240001I-500000J0D01*
G01*
X119010001Y-67240001D01*
G75*
G02*
X118510001Y-66740001I0J500000D01*
G01*
G37*
G36*
G01*
X123510001Y-59240001D02*
X123510001Y-57240001D01*
G75*
G02*
X124010001Y-56740001I500000J0D01*
G01*
X125010001Y-56740001D01*
G75*
G02*
X125510001Y-57240001I0J-500000D01*
G01*
X125510001Y-59240001D01*
G75*
G02*
X125010001Y-59740001I-500000J0D01*
G01*
X124010001Y-59740001D01*
G75*
G02*
X123510001Y-59240001I0J500000D01*
G01*
G37*
G36*
G01*
X118510001Y-59240001D02*
X118510001Y-57240001D01*
G75*
G02*
X119010001Y-56740001I500000J0D01*
G01*
X120010001Y-56740001D01*
G75*
G02*
X120510001Y-57240001I0J-500000D01*
G01*
X120510001Y-59240001D01*
G75*
G02*
X120010001Y-59740001I-500000J0D01*
G01*
X119010001Y-59740001D01*
G75*
G02*
X118510001Y-59240001I0J500000D01*
G01*
G37*
G36*
G01*
X103260001Y-66240001D02*
X103260001Y-65240001D01*
G75*
G02*
X103760001Y-64740001I500000J0D01*
G01*
X105260001Y-64740001D01*
G75*
G02*
X105760001Y-65240001I0J-500000D01*
G01*
X105760001Y-66240001D01*
G75*
G02*
X105260001Y-66740001I-500000J0D01*
G01*
X103760001Y-66740001D01*
G75*
G02*
X103260001Y-66240001I0J500000D01*
G01*
G37*
G36*
G01*
X103260001Y-58740001D02*
X103260001Y-57740001D01*
G75*
G02*
X103760001Y-57240001I500000J0D01*
G01*
X105260001Y-57240001D01*
G75*
G02*
X105760001Y-57740001I0J-500000D01*
G01*
X105760001Y-58740001D01*
G75*
G02*
X105260001Y-59240001I-500000J0D01*
G01*
X103760001Y-59240001D01*
G75*
G02*
X103260001Y-58740001I0J500000D01*
G01*
G37*
%TD*%
%TO.C,K1*%
G36*
G01*
X96510001Y-66740001D02*
X96510001Y-64740001D01*
G75*
G02*
X97010001Y-64240001I500000J0D01*
G01*
X98010001Y-64240001D01*
G75*
G02*
X98510001Y-64740001I0J-500000D01*
G01*
X98510001Y-66740001D01*
G75*
G02*
X98010001Y-67240001I-500000J0D01*
G01*
X97010001Y-67240001D01*
G75*
G02*
X96510001Y-66740001I0J500000D01*
G01*
G37*
G36*
G01*
X91510001Y-66740001D02*
X91510001Y-64740001D01*
G75*
G02*
X92010001Y-64240001I500000J0D01*
G01*
X93010001Y-64240001D01*
G75*
G02*
X93510001Y-64740001I0J-500000D01*
G01*
X93510001Y-66740001D01*
G75*
G02*
X93010001Y-67240001I-500000J0D01*
G01*
X92010001Y-67240001D01*
G75*
G02*
X91510001Y-66740001I0J500000D01*
G01*
G37*
G36*
G01*
X96510001Y-59240001D02*
X96510001Y-57240001D01*
G75*
G02*
X97010001Y-56740001I500000J0D01*
G01*
X98010001Y-56740001D01*
G75*
G02*
X98510001Y-57240001I0J-500000D01*
G01*
X98510001Y-59240001D01*
G75*
G02*
X98010001Y-59740001I-500000J0D01*
G01*
X97010001Y-59740001D01*
G75*
G02*
X96510001Y-59240001I0J500000D01*
G01*
G37*
G36*
G01*
X91510001Y-59240001D02*
X91510001Y-57240001D01*
G75*
G02*
X92010001Y-56740001I500000J0D01*
G01*
X93010001Y-56740001D01*
G75*
G02*
X93510001Y-57240001I0J-500000D01*
G01*
X93510001Y-59240001D01*
G75*
G02*
X93010001Y-59740001I-500000J0D01*
G01*
X92010001Y-59740001D01*
G75*
G02*
X91510001Y-59240001I0J500000D01*
G01*
G37*
G36*
G01*
X76260001Y-66240001D02*
X76260001Y-65240001D01*
G75*
G02*
X76760001Y-64740001I500000J0D01*
G01*
X78260001Y-64740001D01*
G75*
G02*
X78760001Y-65240001I0J-500000D01*
G01*
X78760001Y-66240001D01*
G75*
G02*
X78260001Y-66740001I-500000J0D01*
G01*
X76760001Y-66740001D01*
G75*
G02*
X76260001Y-66240001I0J500000D01*
G01*
G37*
G36*
G01*
X76260001Y-58740001D02*
X76260001Y-57740001D01*
G75*
G02*
X76760001Y-57240001I500000J0D01*
G01*
X78260001Y-57240001D01*
G75*
G02*
X78760001Y-57740001I0J-500000D01*
G01*
X78760001Y-58740001D01*
G75*
G02*
X78260001Y-59240001I-500000J0D01*
G01*
X76760001Y-59240001D01*
G75*
G02*
X76260001Y-58740001I0J500000D01*
G01*
G37*
%TD*%
%TO.C,K1*%
G36*
G01*
X69510001Y-66740001D02*
X69510001Y-64740001D01*
G75*
G02*
X70010001Y-64240001I500000J0D01*
G01*
X71010001Y-64240001D01*
G75*
G02*
X71510001Y-64740001I0J-500000D01*
G01*
X71510001Y-66740001D01*
G75*
G02*
X71010001Y-67240001I-500000J0D01*
G01*
X70010001Y-67240001D01*
G75*
G02*
X69510001Y-66740001I0J500000D01*
G01*
G37*
G36*
G01*
X64510001Y-66740001D02*
X64510001Y-64740001D01*
G75*
G02*
X65010001Y-64240001I500000J0D01*
G01*
X66010001Y-64240001D01*
G75*
G02*
X66510001Y-64740001I0J-500000D01*
G01*
X66510001Y-66740001D01*
G75*
G02*
X66010001Y-67240001I-500000J0D01*
G01*
X65010001Y-67240001D01*
G75*
G02*
X64510001Y-66740001I0J500000D01*
G01*
G37*
G36*
G01*
X69510001Y-59240001D02*
X69510001Y-57240001D01*
G75*
G02*
X70010001Y-56740001I500000J0D01*
G01*
X71010001Y-56740001D01*
G75*
G02*
X71510001Y-57240001I0J-500000D01*
G01*
X71510001Y-59240001D01*
G75*
G02*
X71010001Y-59740001I-500000J0D01*
G01*
X70010001Y-59740001D01*
G75*
G02*
X69510001Y-59240001I0J500000D01*
G01*
G37*
G36*
G01*
X64510001Y-59240001D02*
X64510001Y-57240001D01*
G75*
G02*
X65010001Y-56740001I500000J0D01*
G01*
X66010001Y-56740001D01*
G75*
G02*
X66510001Y-57240001I0J-500000D01*
G01*
X66510001Y-59240001D01*
G75*
G02*
X66010001Y-59740001I-500000J0D01*
G01*
X65010001Y-59740001D01*
G75*
G02*
X64510001Y-59240001I0J500000D01*
G01*
G37*
G36*
G01*
X49260001Y-66240001D02*
X49260001Y-65240001D01*
G75*
G02*
X49760001Y-64740001I500000J0D01*
G01*
X51260001Y-64740001D01*
G75*
G02*
X51760001Y-65240001I0J-500000D01*
G01*
X51760001Y-66240001D01*
G75*
G02*
X51260001Y-66740001I-500000J0D01*
G01*
X49760001Y-66740001D01*
G75*
G02*
X49260001Y-66240001I0J500000D01*
G01*
G37*
G36*
G01*
X49260001Y-58740001D02*
X49260001Y-57740001D01*
G75*
G02*
X49760001Y-57240001I500000J0D01*
G01*
X51260001Y-57240001D01*
G75*
G02*
X51760001Y-57740001I0J-500000D01*
G01*
X51760001Y-58740001D01*
G75*
G02*
X51260001Y-59240001I-500000J0D01*
G01*
X49760001Y-59240001D01*
G75*
G02*
X49260001Y-58740001I0J500000D01*
G01*
G37*
%TD*%
%TO.C,K1*%
G36*
G01*
X123510001Y-50740001D02*
X123510001Y-48740001D01*
G75*
G02*
X124010001Y-48240001I500000J0D01*
G01*
X125010001Y-48240001D01*
G75*
G02*
X125510001Y-48740001I0J-500000D01*
G01*
X125510001Y-50740001D01*
G75*
G02*
X125010001Y-51240001I-500000J0D01*
G01*
X124010001Y-51240001D01*
G75*
G02*
X123510001Y-50740001I0J500000D01*
G01*
G37*
G36*
G01*
X118510001Y-50740001D02*
X118510001Y-48740001D01*
G75*
G02*
X119010001Y-48240001I500000J0D01*
G01*
X120010001Y-48240001D01*
G75*
G02*
X120510001Y-48740001I0J-500000D01*
G01*
X120510001Y-50740001D01*
G75*
G02*
X120010001Y-51240001I-500000J0D01*
G01*
X119010001Y-51240001D01*
G75*
G02*
X118510001Y-50740001I0J500000D01*
G01*
G37*
G36*
G01*
X123510001Y-43240001D02*
X123510001Y-41240001D01*
G75*
G02*
X124010001Y-40740001I500000J0D01*
G01*
X125010001Y-40740001D01*
G75*
G02*
X125510001Y-41240001I0J-500000D01*
G01*
X125510001Y-43240001D01*
G75*
G02*
X125010001Y-43740001I-500000J0D01*
G01*
X124010001Y-43740001D01*
G75*
G02*
X123510001Y-43240001I0J500000D01*
G01*
G37*
G36*
G01*
X118510001Y-43240001D02*
X118510001Y-41240001D01*
G75*
G02*
X119010001Y-40740001I500000J0D01*
G01*
X120010001Y-40740001D01*
G75*
G02*
X120510001Y-41240001I0J-500000D01*
G01*
X120510001Y-43240001D01*
G75*
G02*
X120010001Y-43740001I-500000J0D01*
G01*
X119010001Y-43740001D01*
G75*
G02*
X118510001Y-43240001I0J500000D01*
G01*
G37*
G36*
G01*
X103260001Y-50240001D02*
X103260001Y-49240001D01*
G75*
G02*
X103760001Y-48740001I500000J0D01*
G01*
X105260001Y-48740001D01*
G75*
G02*
X105760001Y-49240001I0J-500000D01*
G01*
X105760001Y-50240001D01*
G75*
G02*
X105260001Y-50740001I-500000J0D01*
G01*
X103760001Y-50740001D01*
G75*
G02*
X103260001Y-50240001I0J500000D01*
G01*
G37*
G36*
G01*
X103260001Y-42740001D02*
X103260001Y-41740001D01*
G75*
G02*
X103760001Y-41240001I500000J0D01*
G01*
X105260001Y-41240001D01*
G75*
G02*
X105760001Y-41740001I0J-500000D01*
G01*
X105760001Y-42740001D01*
G75*
G02*
X105260001Y-43240001I-500000J0D01*
G01*
X103760001Y-43240001D01*
G75*
G02*
X103260001Y-42740001I0J500000D01*
G01*
G37*
%TD*%
%TO.C,K1*%
G36*
G01*
X96510001Y-50740001D02*
X96510001Y-48740001D01*
G75*
G02*
X97010001Y-48240001I500000J0D01*
G01*
X98010001Y-48240001D01*
G75*
G02*
X98510001Y-48740001I0J-500000D01*
G01*
X98510001Y-50740001D01*
G75*
G02*
X98010001Y-51240001I-500000J0D01*
G01*
X97010001Y-51240001D01*
G75*
G02*
X96510001Y-50740001I0J500000D01*
G01*
G37*
G36*
G01*
X91510001Y-50740001D02*
X91510001Y-48740001D01*
G75*
G02*
X92010001Y-48240001I500000J0D01*
G01*
X93010001Y-48240001D01*
G75*
G02*
X93510001Y-48740001I0J-500000D01*
G01*
X93510001Y-50740001D01*
G75*
G02*
X93010001Y-51240001I-500000J0D01*
G01*
X92010001Y-51240001D01*
G75*
G02*
X91510001Y-50740001I0J500000D01*
G01*
G37*
G36*
G01*
X96510001Y-43240001D02*
X96510001Y-41240001D01*
G75*
G02*
X97010001Y-40740001I500000J0D01*
G01*
X98010001Y-40740001D01*
G75*
G02*
X98510001Y-41240001I0J-500000D01*
G01*
X98510001Y-43240001D01*
G75*
G02*
X98010001Y-43740001I-500000J0D01*
G01*
X97010001Y-43740001D01*
G75*
G02*
X96510001Y-43240001I0J500000D01*
G01*
G37*
G36*
G01*
X91510001Y-43240001D02*
X91510001Y-41240001D01*
G75*
G02*
X92010001Y-40740001I500000J0D01*
G01*
X93010001Y-40740001D01*
G75*
G02*
X93510001Y-41240001I0J-500000D01*
G01*
X93510001Y-43240001D01*
G75*
G02*
X93010001Y-43740001I-500000J0D01*
G01*
X92010001Y-43740001D01*
G75*
G02*
X91510001Y-43240001I0J500000D01*
G01*
G37*
G36*
G01*
X76260001Y-50240001D02*
X76260001Y-49240001D01*
G75*
G02*
X76760001Y-48740001I500000J0D01*
G01*
X78260001Y-48740001D01*
G75*
G02*
X78760001Y-49240001I0J-500000D01*
G01*
X78760001Y-50240001D01*
G75*
G02*
X78260001Y-50740001I-500000J0D01*
G01*
X76760001Y-50740001D01*
G75*
G02*
X76260001Y-50240001I0J500000D01*
G01*
G37*
G36*
G01*
X76260001Y-42740001D02*
X76260001Y-41740001D01*
G75*
G02*
X76760001Y-41240001I500000J0D01*
G01*
X78260001Y-41240001D01*
G75*
G02*
X78760001Y-41740001I0J-500000D01*
G01*
X78760001Y-42740001D01*
G75*
G02*
X78260001Y-43240001I-500000J0D01*
G01*
X76760001Y-43240001D01*
G75*
G02*
X76260001Y-42740001I0J500000D01*
G01*
G37*
%TD*%
%TO.C,K2*%
G36*
G01*
X121325000Y-132050000D02*
X121325000Y-130050000D01*
G75*
G02*
X121825000Y-129550000I500000J0D01*
G01*
X122825000Y-129550000D01*
G75*
G02*
X123325000Y-130050000I0J-500000D01*
G01*
X123325000Y-132050000D01*
G75*
G02*
X122825000Y-132550000I-500000J0D01*
G01*
X121825000Y-132550000D01*
G75*
G02*
X121325000Y-132050000I0J500000D01*
G01*
G37*
G36*
G01*
X121325000Y-127000000D02*
X121325000Y-125000000D01*
G75*
G02*
X121825000Y-124500000I500000J0D01*
G01*
X122825000Y-124500000D01*
G75*
G02*
X123325000Y-125000000I0J-500000D01*
G01*
X123325000Y-127000000D01*
G75*
G02*
X122825000Y-127500000I-500000J0D01*
G01*
X121825000Y-127500000D01*
G75*
G02*
X121325000Y-127000000I0J500000D01*
G01*
G37*
G36*
G01*
X121325000Y-121950000D02*
X121325000Y-119950000D01*
G75*
G02*
X121825000Y-119450000I500000J0D01*
G01*
X122825000Y-119450000D01*
G75*
G02*
X123325000Y-119950000I0J-500000D01*
G01*
X123325000Y-121950000D01*
G75*
G02*
X122825000Y-122450000I-500000J0D01*
G01*
X121825000Y-122450000D01*
G75*
G02*
X121325000Y-121950000I0J500000D01*
G01*
G37*
G36*
G01*
X118525000Y-127000000D02*
X118525000Y-125000000D01*
G75*
G02*
X119025000Y-124500000I500000J0D01*
G01*
X120025000Y-124500000D01*
G75*
G02*
X120525000Y-125000000I0J-500000D01*
G01*
X120525000Y-127000000D01*
G75*
G02*
X120025000Y-127500000I-500000J0D01*
G01*
X119025000Y-127500000D01*
G75*
G02*
X118525000Y-127000000I0J500000D01*
G01*
G37*
G36*
G01*
X104875000Y-132250000D02*
X104875000Y-131250000D01*
G75*
G02*
X105375000Y-130750000I500000J0D01*
G01*
X106875000Y-130750000D01*
G75*
G02*
X107375000Y-131250000I0J-500000D01*
G01*
X107375000Y-132250000D01*
G75*
G02*
X106875000Y-132750000I-500000J0D01*
G01*
X105375000Y-132750000D01*
G75*
G02*
X104875000Y-132250000I0J500000D01*
G01*
G37*
G36*
G01*
X104875000Y-120750000D02*
X104875000Y-119750000D01*
G75*
G02*
X105375000Y-119250000I500000J0D01*
G01*
X106875000Y-119250000D01*
G75*
G02*
X107375000Y-119750000I0J-500000D01*
G01*
X107375000Y-120750000D01*
G75*
G02*
X106875000Y-121250000I-500000J0D01*
G01*
X105375000Y-121250000D01*
G75*
G02*
X104875000Y-120750000I0J500000D01*
G01*
G37*
%TD*%
%TO.C,K2*%
G36*
G01*
X94325000Y-132050000D02*
X94325000Y-130050000D01*
G75*
G02*
X94825000Y-129550000I500000J0D01*
G01*
X95825000Y-129550000D01*
G75*
G02*
X96325000Y-130050000I0J-500000D01*
G01*
X96325000Y-132050000D01*
G75*
G02*
X95825000Y-132550000I-500000J0D01*
G01*
X94825000Y-132550000D01*
G75*
G02*
X94325000Y-132050000I0J500000D01*
G01*
G37*
G36*
G01*
X94325000Y-127000000D02*
X94325000Y-125000000D01*
G75*
G02*
X94825000Y-124500000I500000J0D01*
G01*
X95825000Y-124500000D01*
G75*
G02*
X96325000Y-125000000I0J-500000D01*
G01*
X96325000Y-127000000D01*
G75*
G02*
X95825000Y-127500000I-500000J0D01*
G01*
X94825000Y-127500000D01*
G75*
G02*
X94325000Y-127000000I0J500000D01*
G01*
G37*
G36*
G01*
X94325000Y-121950000D02*
X94325000Y-119950000D01*
G75*
G02*
X94825000Y-119450000I500000J0D01*
G01*
X95825000Y-119450000D01*
G75*
G02*
X96325000Y-119950000I0J-500000D01*
G01*
X96325000Y-121950000D01*
G75*
G02*
X95825000Y-122450000I-500000J0D01*
G01*
X94825000Y-122450000D01*
G75*
G02*
X94325000Y-121950000I0J500000D01*
G01*
G37*
G36*
G01*
X91525000Y-127000000D02*
X91525000Y-125000000D01*
G75*
G02*
X92025000Y-124500000I500000J0D01*
G01*
X93025000Y-124500000D01*
G75*
G02*
X93525000Y-125000000I0J-500000D01*
G01*
X93525000Y-127000000D01*
G75*
G02*
X93025000Y-127500000I-500000J0D01*
G01*
X92025000Y-127500000D01*
G75*
G02*
X91525000Y-127000000I0J500000D01*
G01*
G37*
G36*
G01*
X77875000Y-132250000D02*
X77875000Y-131250000D01*
G75*
G02*
X78375000Y-130750000I500000J0D01*
G01*
X79875000Y-130750000D01*
G75*
G02*
X80375000Y-131250000I0J-500000D01*
G01*
X80375000Y-132250000D01*
G75*
G02*
X79875000Y-132750000I-500000J0D01*
G01*
X78375000Y-132750000D01*
G75*
G02*
X77875000Y-132250000I0J500000D01*
G01*
G37*
G36*
G01*
X77875000Y-120750000D02*
X77875000Y-119750000D01*
G75*
G02*
X78375000Y-119250000I500000J0D01*
G01*
X79875000Y-119250000D01*
G75*
G02*
X80375000Y-119750000I0J-500000D01*
G01*
X80375000Y-120750000D01*
G75*
G02*
X79875000Y-121250000I-500000J0D01*
G01*
X78375000Y-121250000D01*
G75*
G02*
X77875000Y-120750000I0J500000D01*
G01*
G37*
%TD*%
%TO.C,K2*%
G36*
G01*
X67325000Y-132050000D02*
X67325000Y-130050000D01*
G75*
G02*
X67825000Y-129550000I500000J0D01*
G01*
X68825000Y-129550000D01*
G75*
G02*
X69325000Y-130050000I0J-500000D01*
G01*
X69325000Y-132050000D01*
G75*
G02*
X68825000Y-132550000I-500000J0D01*
G01*
X67825000Y-132550000D01*
G75*
G02*
X67325000Y-132050000I0J500000D01*
G01*
G37*
G36*
G01*
X67325000Y-127000000D02*
X67325000Y-125000000D01*
G75*
G02*
X67825000Y-124500000I500000J0D01*
G01*
X68825000Y-124500000D01*
G75*
G02*
X69325000Y-125000000I0J-500000D01*
G01*
X69325000Y-127000000D01*
G75*
G02*
X68825000Y-127500000I-500000J0D01*
G01*
X67825000Y-127500000D01*
G75*
G02*
X67325000Y-127000000I0J500000D01*
G01*
G37*
G36*
G01*
X67325000Y-121950000D02*
X67325000Y-119950000D01*
G75*
G02*
X67825000Y-119450000I500000J0D01*
G01*
X68825000Y-119450000D01*
G75*
G02*
X69325000Y-119950000I0J-500000D01*
G01*
X69325000Y-121950000D01*
G75*
G02*
X68825000Y-122450000I-500000J0D01*
G01*
X67825000Y-122450000D01*
G75*
G02*
X67325000Y-121950000I0J500000D01*
G01*
G37*
G36*
G01*
X64525000Y-127000000D02*
X64525000Y-125000000D01*
G75*
G02*
X65025000Y-124500000I500000J0D01*
G01*
X66025000Y-124500000D01*
G75*
G02*
X66525000Y-125000000I0J-500000D01*
G01*
X66525000Y-127000000D01*
G75*
G02*
X66025000Y-127500000I-500000J0D01*
G01*
X65025000Y-127500000D01*
G75*
G02*
X64525000Y-127000000I0J500000D01*
G01*
G37*
G36*
G01*
X50875000Y-132250000D02*
X50875000Y-131250000D01*
G75*
G02*
X51375000Y-130750000I500000J0D01*
G01*
X52875000Y-130750000D01*
G75*
G02*
X53375000Y-131250000I0J-500000D01*
G01*
X53375000Y-132250000D01*
G75*
G02*
X52875000Y-132750000I-500000J0D01*
G01*
X51375000Y-132750000D01*
G75*
G02*
X50875000Y-132250000I0J500000D01*
G01*
G37*
G36*
G01*
X50875000Y-120750000D02*
X50875000Y-119750000D01*
G75*
G02*
X51375000Y-119250000I500000J0D01*
G01*
X52875000Y-119250000D01*
G75*
G02*
X53375000Y-119750000I0J-500000D01*
G01*
X53375000Y-120750000D01*
G75*
G02*
X52875000Y-121250000I-500000J0D01*
G01*
X51375000Y-121250000D01*
G75*
G02*
X50875000Y-120750000I0J500000D01*
G01*
G37*
%TD*%
%TO.C,K2*%
G36*
G01*
X121325000Y-116050000D02*
X121325000Y-114050000D01*
G75*
G02*
X121825000Y-113550000I500000J0D01*
G01*
X122825000Y-113550000D01*
G75*
G02*
X123325000Y-114050000I0J-500000D01*
G01*
X123325000Y-116050000D01*
G75*
G02*
X122825000Y-116550000I-500000J0D01*
G01*
X121825000Y-116550000D01*
G75*
G02*
X121325000Y-116050000I0J500000D01*
G01*
G37*
G36*
G01*
X121325000Y-111000000D02*
X121325000Y-109000000D01*
G75*
G02*
X121825000Y-108500000I500000J0D01*
G01*
X122825000Y-108500000D01*
G75*
G02*
X123325000Y-109000000I0J-500000D01*
G01*
X123325000Y-111000000D01*
G75*
G02*
X122825000Y-111500000I-500000J0D01*
G01*
X121825000Y-111500000D01*
G75*
G02*
X121325000Y-111000000I0J500000D01*
G01*
G37*
G36*
G01*
X121325000Y-105950000D02*
X121325000Y-103950000D01*
G75*
G02*
X121825000Y-103450000I500000J0D01*
G01*
X122825000Y-103450000D01*
G75*
G02*
X123325000Y-103950000I0J-500000D01*
G01*
X123325000Y-105950000D01*
G75*
G02*
X122825000Y-106450000I-500000J0D01*
G01*
X121825000Y-106450000D01*
G75*
G02*
X121325000Y-105950000I0J500000D01*
G01*
G37*
G36*
G01*
X118525000Y-111000000D02*
X118525000Y-109000000D01*
G75*
G02*
X119025000Y-108500000I500000J0D01*
G01*
X120025000Y-108500000D01*
G75*
G02*
X120525000Y-109000000I0J-500000D01*
G01*
X120525000Y-111000000D01*
G75*
G02*
X120025000Y-111500000I-500000J0D01*
G01*
X119025000Y-111500000D01*
G75*
G02*
X118525000Y-111000000I0J500000D01*
G01*
G37*
G36*
G01*
X104875000Y-116250000D02*
X104875000Y-115250000D01*
G75*
G02*
X105375000Y-114750000I500000J0D01*
G01*
X106875000Y-114750000D01*
G75*
G02*
X107375000Y-115250000I0J-500000D01*
G01*
X107375000Y-116250000D01*
G75*
G02*
X106875000Y-116750000I-500000J0D01*
G01*
X105375000Y-116750000D01*
G75*
G02*
X104875000Y-116250000I0J500000D01*
G01*
G37*
G36*
G01*
X104875000Y-104750000D02*
X104875000Y-103750000D01*
G75*
G02*
X105375000Y-103250000I500000J0D01*
G01*
X106875000Y-103250000D01*
G75*
G02*
X107375000Y-103750000I0J-500000D01*
G01*
X107375000Y-104750000D01*
G75*
G02*
X106875000Y-105250000I-500000J0D01*
G01*
X105375000Y-105250000D01*
G75*
G02*
X104875000Y-104750000I0J500000D01*
G01*
G37*
%TD*%
%TO.C,K2*%
G36*
G01*
X94325000Y-116050000D02*
X94325000Y-114050000D01*
G75*
G02*
X94825000Y-113550000I500000J0D01*
G01*
X95825000Y-113550000D01*
G75*
G02*
X96325000Y-114050000I0J-500000D01*
G01*
X96325000Y-116050000D01*
G75*
G02*
X95825000Y-116550000I-500000J0D01*
G01*
X94825000Y-116550000D01*
G75*
G02*
X94325000Y-116050000I0J500000D01*
G01*
G37*
G36*
G01*
X94325000Y-111000000D02*
X94325000Y-109000000D01*
G75*
G02*
X94825000Y-108500000I500000J0D01*
G01*
X95825000Y-108500000D01*
G75*
G02*
X96325000Y-109000000I0J-500000D01*
G01*
X96325000Y-111000000D01*
G75*
G02*
X95825000Y-111500000I-500000J0D01*
G01*
X94825000Y-111500000D01*
G75*
G02*
X94325000Y-111000000I0J500000D01*
G01*
G37*
G36*
G01*
X94325000Y-105950000D02*
X94325000Y-103950000D01*
G75*
G02*
X94825000Y-103450000I500000J0D01*
G01*
X95825000Y-103450000D01*
G75*
G02*
X96325000Y-103950000I0J-500000D01*
G01*
X96325000Y-105950000D01*
G75*
G02*
X95825000Y-106450000I-500000J0D01*
G01*
X94825000Y-106450000D01*
G75*
G02*
X94325000Y-105950000I0J500000D01*
G01*
G37*
G36*
G01*
X91525000Y-111000000D02*
X91525000Y-109000000D01*
G75*
G02*
X92025000Y-108500000I500000J0D01*
G01*
X93025000Y-108500000D01*
G75*
G02*
X93525000Y-109000000I0J-500000D01*
G01*
X93525000Y-111000000D01*
G75*
G02*
X93025000Y-111500000I-500000J0D01*
G01*
X92025000Y-111500000D01*
G75*
G02*
X91525000Y-111000000I0J500000D01*
G01*
G37*
G36*
G01*
X77875000Y-116250000D02*
X77875000Y-115250000D01*
G75*
G02*
X78375000Y-114750000I500000J0D01*
G01*
X79875000Y-114750000D01*
G75*
G02*
X80375000Y-115250000I0J-500000D01*
G01*
X80375000Y-116250000D01*
G75*
G02*
X79875000Y-116750000I-500000J0D01*
G01*
X78375000Y-116750000D01*
G75*
G02*
X77875000Y-116250000I0J500000D01*
G01*
G37*
G36*
G01*
X77875000Y-104750000D02*
X77875000Y-103750000D01*
G75*
G02*
X78375000Y-103250000I500000J0D01*
G01*
X79875000Y-103250000D01*
G75*
G02*
X80375000Y-103750000I0J-500000D01*
G01*
X80375000Y-104750000D01*
G75*
G02*
X79875000Y-105250000I-500000J0D01*
G01*
X78375000Y-105250000D01*
G75*
G02*
X77875000Y-104750000I0J500000D01*
G01*
G37*
%TD*%
%TO.C,K2*%
G36*
G01*
X67325000Y-116050000D02*
X67325000Y-114050000D01*
G75*
G02*
X67825000Y-113550000I500000J0D01*
G01*
X68825000Y-113550000D01*
G75*
G02*
X69325000Y-114050000I0J-500000D01*
G01*
X69325000Y-116050000D01*
G75*
G02*
X68825000Y-116550000I-500000J0D01*
G01*
X67825000Y-116550000D01*
G75*
G02*
X67325000Y-116050000I0J500000D01*
G01*
G37*
G36*
G01*
X67325000Y-111000000D02*
X67325000Y-109000000D01*
G75*
G02*
X67825000Y-108500000I500000J0D01*
G01*
X68825000Y-108500000D01*
G75*
G02*
X69325000Y-109000000I0J-500000D01*
G01*
X69325000Y-111000000D01*
G75*
G02*
X68825000Y-111500000I-500000J0D01*
G01*
X67825000Y-111500000D01*
G75*
G02*
X67325000Y-111000000I0J500000D01*
G01*
G37*
G36*
G01*
X67325000Y-105950000D02*
X67325000Y-103950000D01*
G75*
G02*
X67825000Y-103450000I500000J0D01*
G01*
X68825000Y-103450000D01*
G75*
G02*
X69325000Y-103950000I0J-500000D01*
G01*
X69325000Y-105950000D01*
G75*
G02*
X68825000Y-106450000I-500000J0D01*
G01*
X67825000Y-106450000D01*
G75*
G02*
X67325000Y-105950000I0J500000D01*
G01*
G37*
G36*
G01*
X64525000Y-111000000D02*
X64525000Y-109000000D01*
G75*
G02*
X65025000Y-108500000I500000J0D01*
G01*
X66025000Y-108500000D01*
G75*
G02*
X66525000Y-109000000I0J-500000D01*
G01*
X66525000Y-111000000D01*
G75*
G02*
X66025000Y-111500000I-500000J0D01*
G01*
X65025000Y-111500000D01*
G75*
G02*
X64525000Y-111000000I0J500000D01*
G01*
G37*
G36*
G01*
X50875000Y-116250000D02*
X50875000Y-115250000D01*
G75*
G02*
X51375000Y-114750000I500000J0D01*
G01*
X52875000Y-114750000D01*
G75*
G02*
X53375000Y-115250000I0J-500000D01*
G01*
X53375000Y-116250000D01*
G75*
G02*
X52875000Y-116750000I-500000J0D01*
G01*
X51375000Y-116750000D01*
G75*
G02*
X50875000Y-116250000I0J500000D01*
G01*
G37*
G36*
G01*
X50875000Y-104750000D02*
X50875000Y-103750000D01*
G75*
G02*
X51375000Y-103250000I500000J0D01*
G01*
X52875000Y-103250000D01*
G75*
G02*
X53375000Y-103750000I0J-500000D01*
G01*
X53375000Y-104750000D01*
G75*
G02*
X52875000Y-105250000I-500000J0D01*
G01*
X51375000Y-105250000D01*
G75*
G02*
X50875000Y-104750000I0J500000D01*
G01*
G37*
%TD*%
%TO.C,K2*%
G36*
G01*
X121325000Y-100050000D02*
X121325000Y-98050000D01*
G75*
G02*
X121825000Y-97550000I500000J0D01*
G01*
X122825000Y-97550000D01*
G75*
G02*
X123325000Y-98050000I0J-500000D01*
G01*
X123325000Y-100050000D01*
G75*
G02*
X122825000Y-100550000I-500000J0D01*
G01*
X121825000Y-100550000D01*
G75*
G02*
X121325000Y-100050000I0J500000D01*
G01*
G37*
G36*
G01*
X121325000Y-95000000D02*
X121325000Y-93000000D01*
G75*
G02*
X121825000Y-92500000I500000J0D01*
G01*
X122825000Y-92500000D01*
G75*
G02*
X123325000Y-93000000I0J-500000D01*
G01*
X123325000Y-95000000D01*
G75*
G02*
X122825000Y-95500000I-500000J0D01*
G01*
X121825000Y-95500000D01*
G75*
G02*
X121325000Y-95000000I0J500000D01*
G01*
G37*
G36*
G01*
X121325000Y-89950000D02*
X121325000Y-87950000D01*
G75*
G02*
X121825000Y-87450000I500000J0D01*
G01*
X122825000Y-87450000D01*
G75*
G02*
X123325000Y-87950000I0J-500000D01*
G01*
X123325000Y-89950000D01*
G75*
G02*
X122825000Y-90450000I-500000J0D01*
G01*
X121825000Y-90450000D01*
G75*
G02*
X121325000Y-89950000I0J500000D01*
G01*
G37*
G36*
G01*
X118525000Y-95000000D02*
X118525000Y-93000000D01*
G75*
G02*
X119025000Y-92500000I500000J0D01*
G01*
X120025000Y-92500000D01*
G75*
G02*
X120525000Y-93000000I0J-500000D01*
G01*
X120525000Y-95000000D01*
G75*
G02*
X120025000Y-95500000I-500000J0D01*
G01*
X119025000Y-95500000D01*
G75*
G02*
X118525000Y-95000000I0J500000D01*
G01*
G37*
G36*
G01*
X104875000Y-100250000D02*
X104875000Y-99250000D01*
G75*
G02*
X105375000Y-98750000I500000J0D01*
G01*
X106875000Y-98750000D01*
G75*
G02*
X107375000Y-99250000I0J-500000D01*
G01*
X107375000Y-100250000D01*
G75*
G02*
X106875000Y-100750000I-500000J0D01*
G01*
X105375000Y-100750000D01*
G75*
G02*
X104875000Y-100250000I0J500000D01*
G01*
G37*
G36*
G01*
X104875000Y-88750000D02*
X104875000Y-87750000D01*
G75*
G02*
X105375000Y-87250000I500000J0D01*
G01*
X106875000Y-87250000D01*
G75*
G02*
X107375000Y-87750000I0J-500000D01*
G01*
X107375000Y-88750000D01*
G75*
G02*
X106875000Y-89250000I-500000J0D01*
G01*
X105375000Y-89250000D01*
G75*
G02*
X104875000Y-88750000I0J500000D01*
G01*
G37*
%TD*%
%TO.C,K2*%
G36*
G01*
X94325000Y-100050000D02*
X94325000Y-98050000D01*
G75*
G02*
X94825000Y-97550000I500000J0D01*
G01*
X95825000Y-97550000D01*
G75*
G02*
X96325000Y-98050000I0J-500000D01*
G01*
X96325000Y-100050000D01*
G75*
G02*
X95825000Y-100550000I-500000J0D01*
G01*
X94825000Y-100550000D01*
G75*
G02*
X94325000Y-100050000I0J500000D01*
G01*
G37*
G36*
G01*
X94325000Y-95000000D02*
X94325000Y-93000000D01*
G75*
G02*
X94825000Y-92500000I500000J0D01*
G01*
X95825000Y-92500000D01*
G75*
G02*
X96325000Y-93000000I0J-500000D01*
G01*
X96325000Y-95000000D01*
G75*
G02*
X95825000Y-95500000I-500000J0D01*
G01*
X94825000Y-95500000D01*
G75*
G02*
X94325000Y-95000000I0J500000D01*
G01*
G37*
G36*
G01*
X94325000Y-89950000D02*
X94325000Y-87950000D01*
G75*
G02*
X94825000Y-87450000I500000J0D01*
G01*
X95825000Y-87450000D01*
G75*
G02*
X96325000Y-87950000I0J-500000D01*
G01*
X96325000Y-89950000D01*
G75*
G02*
X95825000Y-90450000I-500000J0D01*
G01*
X94825000Y-90450000D01*
G75*
G02*
X94325000Y-89950000I0J500000D01*
G01*
G37*
G36*
G01*
X91525000Y-95000000D02*
X91525000Y-93000000D01*
G75*
G02*
X92025000Y-92500000I500000J0D01*
G01*
X93025000Y-92500000D01*
G75*
G02*
X93525000Y-93000000I0J-500000D01*
G01*
X93525000Y-95000000D01*
G75*
G02*
X93025000Y-95500000I-500000J0D01*
G01*
X92025000Y-95500000D01*
G75*
G02*
X91525000Y-95000000I0J500000D01*
G01*
G37*
G36*
G01*
X77875000Y-100250000D02*
X77875000Y-99250000D01*
G75*
G02*
X78375000Y-98750000I500000J0D01*
G01*
X79875000Y-98750000D01*
G75*
G02*
X80375000Y-99250000I0J-500000D01*
G01*
X80375000Y-100250000D01*
G75*
G02*
X79875000Y-100750000I-500000J0D01*
G01*
X78375000Y-100750000D01*
G75*
G02*
X77875000Y-100250000I0J500000D01*
G01*
G37*
G36*
G01*
X77875000Y-88750000D02*
X77875000Y-87750000D01*
G75*
G02*
X78375000Y-87250000I500000J0D01*
G01*
X79875000Y-87250000D01*
G75*
G02*
X80375000Y-87750000I0J-500000D01*
G01*
X80375000Y-88750000D01*
G75*
G02*
X79875000Y-89250000I-500000J0D01*
G01*
X78375000Y-89250000D01*
G75*
G02*
X77875000Y-88750000I0J500000D01*
G01*
G37*
%TD*%
%TO.C,K2*%
G36*
G01*
X67325000Y-100050000D02*
X67325000Y-98050000D01*
G75*
G02*
X67825000Y-97550000I500000J0D01*
G01*
X68825000Y-97550000D01*
G75*
G02*
X69325000Y-98050000I0J-500000D01*
G01*
X69325000Y-100050000D01*
G75*
G02*
X68825000Y-100550000I-500000J0D01*
G01*
X67825000Y-100550000D01*
G75*
G02*
X67325000Y-100050000I0J500000D01*
G01*
G37*
G36*
G01*
X67325000Y-95000000D02*
X67325000Y-93000000D01*
G75*
G02*
X67825000Y-92500000I500000J0D01*
G01*
X68825000Y-92500000D01*
G75*
G02*
X69325000Y-93000000I0J-500000D01*
G01*
X69325000Y-95000000D01*
G75*
G02*
X68825000Y-95500000I-500000J0D01*
G01*
X67825000Y-95500000D01*
G75*
G02*
X67325000Y-95000000I0J500000D01*
G01*
G37*
G36*
G01*
X67325000Y-89950000D02*
X67325000Y-87950000D01*
G75*
G02*
X67825000Y-87450000I500000J0D01*
G01*
X68825000Y-87450000D01*
G75*
G02*
X69325000Y-87950000I0J-500000D01*
G01*
X69325000Y-89950000D01*
G75*
G02*
X68825000Y-90450000I-500000J0D01*
G01*
X67825000Y-90450000D01*
G75*
G02*
X67325000Y-89950000I0J500000D01*
G01*
G37*
G36*
G01*
X64525000Y-95000000D02*
X64525000Y-93000000D01*
G75*
G02*
X65025000Y-92500000I500000J0D01*
G01*
X66025000Y-92500000D01*
G75*
G02*
X66525000Y-93000000I0J-500000D01*
G01*
X66525000Y-95000000D01*
G75*
G02*
X66025000Y-95500000I-500000J0D01*
G01*
X65025000Y-95500000D01*
G75*
G02*
X64525000Y-95000000I0J500000D01*
G01*
G37*
G36*
G01*
X50875000Y-100250000D02*
X50875000Y-99250000D01*
G75*
G02*
X51375000Y-98750000I500000J0D01*
G01*
X52875000Y-98750000D01*
G75*
G02*
X53375000Y-99250000I0J-500000D01*
G01*
X53375000Y-100250000D01*
G75*
G02*
X52875000Y-100750000I-500000J0D01*
G01*
X51375000Y-100750000D01*
G75*
G02*
X50875000Y-100250000I0J500000D01*
G01*
G37*
G36*
G01*
X50875000Y-88750000D02*
X50875000Y-87750000D01*
G75*
G02*
X51375000Y-87250000I500000J0D01*
G01*
X52875000Y-87250000D01*
G75*
G02*
X53375000Y-87750000I0J-500000D01*
G01*
X53375000Y-88750000D01*
G75*
G02*
X52875000Y-89250000I-500000J0D01*
G01*
X51375000Y-89250000D01*
G75*
G02*
X50875000Y-88750000I0J500000D01*
G01*
G37*
%TD*%
%TO.C,K2*%
G36*
G01*
X121325000Y-84050000D02*
X121325000Y-82050000D01*
G75*
G02*
X121825000Y-81550000I500000J0D01*
G01*
X122825000Y-81550000D01*
G75*
G02*
X123325000Y-82050000I0J-500000D01*
G01*
X123325000Y-84050000D01*
G75*
G02*
X122825000Y-84550000I-500000J0D01*
G01*
X121825000Y-84550000D01*
G75*
G02*
X121325000Y-84050000I0J500000D01*
G01*
G37*
G36*
G01*
X121325000Y-79000000D02*
X121325000Y-77000000D01*
G75*
G02*
X121825000Y-76500000I500000J0D01*
G01*
X122825000Y-76500000D01*
G75*
G02*
X123325000Y-77000000I0J-500000D01*
G01*
X123325000Y-79000000D01*
G75*
G02*
X122825000Y-79500000I-500000J0D01*
G01*
X121825000Y-79500000D01*
G75*
G02*
X121325000Y-79000000I0J500000D01*
G01*
G37*
G36*
G01*
X121325000Y-73950000D02*
X121325000Y-71950000D01*
G75*
G02*
X121825000Y-71450000I500000J0D01*
G01*
X122825000Y-71450000D01*
G75*
G02*
X123325000Y-71950000I0J-500000D01*
G01*
X123325000Y-73950000D01*
G75*
G02*
X122825000Y-74450000I-500000J0D01*
G01*
X121825000Y-74450000D01*
G75*
G02*
X121325000Y-73950000I0J500000D01*
G01*
G37*
G36*
G01*
X118525000Y-79000000D02*
X118525000Y-77000000D01*
G75*
G02*
X119025000Y-76500000I500000J0D01*
G01*
X120025000Y-76500000D01*
G75*
G02*
X120525000Y-77000000I0J-500000D01*
G01*
X120525000Y-79000000D01*
G75*
G02*
X120025000Y-79500000I-500000J0D01*
G01*
X119025000Y-79500000D01*
G75*
G02*
X118525000Y-79000000I0J500000D01*
G01*
G37*
G36*
G01*
X104875000Y-84250000D02*
X104875000Y-83250000D01*
G75*
G02*
X105375000Y-82750000I500000J0D01*
G01*
X106875000Y-82750000D01*
G75*
G02*
X107375000Y-83250000I0J-500000D01*
G01*
X107375000Y-84250000D01*
G75*
G02*
X106875000Y-84750000I-500000J0D01*
G01*
X105375000Y-84750000D01*
G75*
G02*
X104875000Y-84250000I0J500000D01*
G01*
G37*
G36*
G01*
X104875000Y-72750000D02*
X104875000Y-71750000D01*
G75*
G02*
X105375000Y-71250000I500000J0D01*
G01*
X106875000Y-71250000D01*
G75*
G02*
X107375000Y-71750000I0J-500000D01*
G01*
X107375000Y-72750000D01*
G75*
G02*
X106875000Y-73250000I-500000J0D01*
G01*
X105375000Y-73250000D01*
G75*
G02*
X104875000Y-72750000I0J500000D01*
G01*
G37*
%TD*%
%TO.C,K2*%
G36*
G01*
X94325000Y-84050000D02*
X94325000Y-82050000D01*
G75*
G02*
X94825000Y-81550000I500000J0D01*
G01*
X95825000Y-81550000D01*
G75*
G02*
X96325000Y-82050000I0J-500000D01*
G01*
X96325000Y-84050000D01*
G75*
G02*
X95825000Y-84550000I-500000J0D01*
G01*
X94825000Y-84550000D01*
G75*
G02*
X94325000Y-84050000I0J500000D01*
G01*
G37*
G36*
G01*
X94325000Y-79000000D02*
X94325000Y-77000000D01*
G75*
G02*
X94825000Y-76500000I500000J0D01*
G01*
X95825000Y-76500000D01*
G75*
G02*
X96325000Y-77000000I0J-500000D01*
G01*
X96325000Y-79000000D01*
G75*
G02*
X95825000Y-79500000I-500000J0D01*
G01*
X94825000Y-79500000D01*
G75*
G02*
X94325000Y-79000000I0J500000D01*
G01*
G37*
G36*
G01*
X94325000Y-73950000D02*
X94325000Y-71950000D01*
G75*
G02*
X94825000Y-71450000I500000J0D01*
G01*
X95825000Y-71450000D01*
G75*
G02*
X96325000Y-71950000I0J-500000D01*
G01*
X96325000Y-73950000D01*
G75*
G02*
X95825000Y-74450000I-500000J0D01*
G01*
X94825000Y-74450000D01*
G75*
G02*
X94325000Y-73950000I0J500000D01*
G01*
G37*
G36*
G01*
X91525000Y-79000000D02*
X91525000Y-77000000D01*
G75*
G02*
X92025000Y-76500000I500000J0D01*
G01*
X93025000Y-76500000D01*
G75*
G02*
X93525000Y-77000000I0J-500000D01*
G01*
X93525000Y-79000000D01*
G75*
G02*
X93025000Y-79500000I-500000J0D01*
G01*
X92025000Y-79500000D01*
G75*
G02*
X91525000Y-79000000I0J500000D01*
G01*
G37*
G36*
G01*
X77875000Y-84250000D02*
X77875000Y-83250000D01*
G75*
G02*
X78375000Y-82750000I500000J0D01*
G01*
X79875000Y-82750000D01*
G75*
G02*
X80375000Y-83250000I0J-500000D01*
G01*
X80375000Y-84250000D01*
G75*
G02*
X79875000Y-84750000I-500000J0D01*
G01*
X78375000Y-84750000D01*
G75*
G02*
X77875000Y-84250000I0J500000D01*
G01*
G37*
G36*
G01*
X77875000Y-72750000D02*
X77875000Y-71750000D01*
G75*
G02*
X78375000Y-71250000I500000J0D01*
G01*
X79875000Y-71250000D01*
G75*
G02*
X80375000Y-71750000I0J-500000D01*
G01*
X80375000Y-72750000D01*
G75*
G02*
X79875000Y-73250000I-500000J0D01*
G01*
X78375000Y-73250000D01*
G75*
G02*
X77875000Y-72750000I0J500000D01*
G01*
G37*
%TD*%
%TO.C,K2*%
G36*
G01*
X67325000Y-84050000D02*
X67325000Y-82050000D01*
G75*
G02*
X67825000Y-81550000I500000J0D01*
G01*
X68825000Y-81550000D01*
G75*
G02*
X69325000Y-82050000I0J-500000D01*
G01*
X69325000Y-84050000D01*
G75*
G02*
X68825000Y-84550000I-500000J0D01*
G01*
X67825000Y-84550000D01*
G75*
G02*
X67325000Y-84050000I0J500000D01*
G01*
G37*
G36*
G01*
X67325000Y-79000000D02*
X67325000Y-77000000D01*
G75*
G02*
X67825000Y-76500000I500000J0D01*
G01*
X68825000Y-76500000D01*
G75*
G02*
X69325000Y-77000000I0J-500000D01*
G01*
X69325000Y-79000000D01*
G75*
G02*
X68825000Y-79500000I-500000J0D01*
G01*
X67825000Y-79500000D01*
G75*
G02*
X67325000Y-79000000I0J500000D01*
G01*
G37*
G36*
G01*
X67325000Y-73950000D02*
X67325000Y-71950000D01*
G75*
G02*
X67825000Y-71450000I500000J0D01*
G01*
X68825000Y-71450000D01*
G75*
G02*
X69325000Y-71950000I0J-500000D01*
G01*
X69325000Y-73950000D01*
G75*
G02*
X68825000Y-74450000I-500000J0D01*
G01*
X67825000Y-74450000D01*
G75*
G02*
X67325000Y-73950000I0J500000D01*
G01*
G37*
G36*
G01*
X64525000Y-79000000D02*
X64525000Y-77000000D01*
G75*
G02*
X65025000Y-76500000I500000J0D01*
G01*
X66025000Y-76500000D01*
G75*
G02*
X66525000Y-77000000I0J-500000D01*
G01*
X66525000Y-79000000D01*
G75*
G02*
X66025000Y-79500000I-500000J0D01*
G01*
X65025000Y-79500000D01*
G75*
G02*
X64525000Y-79000000I0J500000D01*
G01*
G37*
G36*
G01*
X50875000Y-84250000D02*
X50875000Y-83250000D01*
G75*
G02*
X51375000Y-82750000I500000J0D01*
G01*
X52875000Y-82750000D01*
G75*
G02*
X53375000Y-83250000I0J-500000D01*
G01*
X53375000Y-84250000D01*
G75*
G02*
X52875000Y-84750000I-500000J0D01*
G01*
X51375000Y-84750000D01*
G75*
G02*
X50875000Y-84250000I0J500000D01*
G01*
G37*
G36*
G01*
X50875000Y-72750000D02*
X50875000Y-71750000D01*
G75*
G02*
X51375000Y-71250000I500000J0D01*
G01*
X52875000Y-71250000D01*
G75*
G02*
X53375000Y-71750000I0J-500000D01*
G01*
X53375000Y-72750000D01*
G75*
G02*
X52875000Y-73250000I-500000J0D01*
G01*
X51375000Y-73250000D01*
G75*
G02*
X50875000Y-72750000I0J500000D01*
G01*
G37*
%TD*%
%TO.C,K2*%
G36*
G01*
X121325000Y-68050000D02*
X121325000Y-66050000D01*
G75*
G02*
X121825000Y-65550000I500000J0D01*
G01*
X122825000Y-65550000D01*
G75*
G02*
X123325000Y-66050000I0J-500000D01*
G01*
X123325000Y-68050000D01*
G75*
G02*
X122825000Y-68550000I-500000J0D01*
G01*
X121825000Y-68550000D01*
G75*
G02*
X121325000Y-68050000I0J500000D01*
G01*
G37*
G36*
G01*
X121325000Y-63000000D02*
X121325000Y-61000000D01*
G75*
G02*
X121825000Y-60500000I500000J0D01*
G01*
X122825000Y-60500000D01*
G75*
G02*
X123325000Y-61000000I0J-500000D01*
G01*
X123325000Y-63000000D01*
G75*
G02*
X122825000Y-63500000I-500000J0D01*
G01*
X121825000Y-63500000D01*
G75*
G02*
X121325000Y-63000000I0J500000D01*
G01*
G37*
G36*
G01*
X121325000Y-57950000D02*
X121325000Y-55950000D01*
G75*
G02*
X121825000Y-55450000I500000J0D01*
G01*
X122825000Y-55450000D01*
G75*
G02*
X123325000Y-55950000I0J-500000D01*
G01*
X123325000Y-57950000D01*
G75*
G02*
X122825000Y-58450000I-500000J0D01*
G01*
X121825000Y-58450000D01*
G75*
G02*
X121325000Y-57950000I0J500000D01*
G01*
G37*
G36*
G01*
X118525000Y-63000000D02*
X118525000Y-61000000D01*
G75*
G02*
X119025000Y-60500000I500000J0D01*
G01*
X120025000Y-60500000D01*
G75*
G02*
X120525000Y-61000000I0J-500000D01*
G01*
X120525000Y-63000000D01*
G75*
G02*
X120025000Y-63500000I-500000J0D01*
G01*
X119025000Y-63500000D01*
G75*
G02*
X118525000Y-63000000I0J500000D01*
G01*
G37*
G36*
G01*
X104875000Y-68250000D02*
X104875000Y-67250000D01*
G75*
G02*
X105375000Y-66750000I500000J0D01*
G01*
X106875000Y-66750000D01*
G75*
G02*
X107375000Y-67250000I0J-500000D01*
G01*
X107375000Y-68250000D01*
G75*
G02*
X106875000Y-68750000I-500000J0D01*
G01*
X105375000Y-68750000D01*
G75*
G02*
X104875000Y-68250000I0J500000D01*
G01*
G37*
G36*
G01*
X104875000Y-56750000D02*
X104875000Y-55750000D01*
G75*
G02*
X105375000Y-55250000I500000J0D01*
G01*
X106875000Y-55250000D01*
G75*
G02*
X107375000Y-55750000I0J-500000D01*
G01*
X107375000Y-56750000D01*
G75*
G02*
X106875000Y-57250000I-500000J0D01*
G01*
X105375000Y-57250000D01*
G75*
G02*
X104875000Y-56750000I0J500000D01*
G01*
G37*
%TD*%
%TO.C,K2*%
G36*
G01*
X94325000Y-68050000D02*
X94325000Y-66050000D01*
G75*
G02*
X94825000Y-65550000I500000J0D01*
G01*
X95825000Y-65550000D01*
G75*
G02*
X96325000Y-66050000I0J-500000D01*
G01*
X96325000Y-68050000D01*
G75*
G02*
X95825000Y-68550000I-500000J0D01*
G01*
X94825000Y-68550000D01*
G75*
G02*
X94325000Y-68050000I0J500000D01*
G01*
G37*
G36*
G01*
X94325000Y-63000000D02*
X94325000Y-61000000D01*
G75*
G02*
X94825000Y-60500000I500000J0D01*
G01*
X95825000Y-60500000D01*
G75*
G02*
X96325000Y-61000000I0J-500000D01*
G01*
X96325000Y-63000000D01*
G75*
G02*
X95825000Y-63500000I-500000J0D01*
G01*
X94825000Y-63500000D01*
G75*
G02*
X94325000Y-63000000I0J500000D01*
G01*
G37*
G36*
G01*
X94325000Y-57950000D02*
X94325000Y-55950000D01*
G75*
G02*
X94825000Y-55450000I500000J0D01*
G01*
X95825000Y-55450000D01*
G75*
G02*
X96325000Y-55950000I0J-500000D01*
G01*
X96325000Y-57950000D01*
G75*
G02*
X95825000Y-58450000I-500000J0D01*
G01*
X94825000Y-58450000D01*
G75*
G02*
X94325000Y-57950000I0J500000D01*
G01*
G37*
G36*
G01*
X91525000Y-63000000D02*
X91525000Y-61000000D01*
G75*
G02*
X92025000Y-60500000I500000J0D01*
G01*
X93025000Y-60500000D01*
G75*
G02*
X93525000Y-61000000I0J-500000D01*
G01*
X93525000Y-63000000D01*
G75*
G02*
X93025000Y-63500000I-500000J0D01*
G01*
X92025000Y-63500000D01*
G75*
G02*
X91525000Y-63000000I0J500000D01*
G01*
G37*
G36*
G01*
X77875000Y-68250000D02*
X77875000Y-67250000D01*
G75*
G02*
X78375000Y-66750000I500000J0D01*
G01*
X79875000Y-66750000D01*
G75*
G02*
X80375000Y-67250000I0J-500000D01*
G01*
X80375000Y-68250000D01*
G75*
G02*
X79875000Y-68750000I-500000J0D01*
G01*
X78375000Y-68750000D01*
G75*
G02*
X77875000Y-68250000I0J500000D01*
G01*
G37*
G36*
G01*
X77875000Y-56750000D02*
X77875000Y-55750000D01*
G75*
G02*
X78375000Y-55250000I500000J0D01*
G01*
X79875000Y-55250000D01*
G75*
G02*
X80375000Y-55750000I0J-500000D01*
G01*
X80375000Y-56750000D01*
G75*
G02*
X79875000Y-57250000I-500000J0D01*
G01*
X78375000Y-57250000D01*
G75*
G02*
X77875000Y-56750000I0J500000D01*
G01*
G37*
%TD*%
%TO.C,K2*%
G36*
G01*
X67325000Y-68050000D02*
X67325000Y-66050000D01*
G75*
G02*
X67825000Y-65550000I500000J0D01*
G01*
X68825000Y-65550000D01*
G75*
G02*
X69325000Y-66050000I0J-500000D01*
G01*
X69325000Y-68050000D01*
G75*
G02*
X68825000Y-68550000I-500000J0D01*
G01*
X67825000Y-68550000D01*
G75*
G02*
X67325000Y-68050000I0J500000D01*
G01*
G37*
G36*
G01*
X67325000Y-63000000D02*
X67325000Y-61000000D01*
G75*
G02*
X67825000Y-60500000I500000J0D01*
G01*
X68825000Y-60500000D01*
G75*
G02*
X69325000Y-61000000I0J-500000D01*
G01*
X69325000Y-63000000D01*
G75*
G02*
X68825000Y-63500000I-500000J0D01*
G01*
X67825000Y-63500000D01*
G75*
G02*
X67325000Y-63000000I0J500000D01*
G01*
G37*
G36*
G01*
X67325000Y-57950000D02*
X67325000Y-55950000D01*
G75*
G02*
X67825000Y-55450000I500000J0D01*
G01*
X68825000Y-55450000D01*
G75*
G02*
X69325000Y-55950000I0J-500000D01*
G01*
X69325000Y-57950000D01*
G75*
G02*
X68825000Y-58450000I-500000J0D01*
G01*
X67825000Y-58450000D01*
G75*
G02*
X67325000Y-57950000I0J500000D01*
G01*
G37*
G36*
G01*
X64525000Y-63000000D02*
X64525000Y-61000000D01*
G75*
G02*
X65025000Y-60500000I500000J0D01*
G01*
X66025000Y-60500000D01*
G75*
G02*
X66525000Y-61000000I0J-500000D01*
G01*
X66525000Y-63000000D01*
G75*
G02*
X66025000Y-63500000I-500000J0D01*
G01*
X65025000Y-63500000D01*
G75*
G02*
X64525000Y-63000000I0J500000D01*
G01*
G37*
G36*
G01*
X50875000Y-68250000D02*
X50875000Y-67250000D01*
G75*
G02*
X51375000Y-66750000I500000J0D01*
G01*
X52875000Y-66750000D01*
G75*
G02*
X53375000Y-67250000I0J-500000D01*
G01*
X53375000Y-68250000D01*
G75*
G02*
X52875000Y-68750000I-500000J0D01*
G01*
X51375000Y-68750000D01*
G75*
G02*
X50875000Y-68250000I0J500000D01*
G01*
G37*
G36*
G01*
X50875000Y-56750000D02*
X50875000Y-55750000D01*
G75*
G02*
X51375000Y-55250000I500000J0D01*
G01*
X52875000Y-55250000D01*
G75*
G02*
X53375000Y-55750000I0J-500000D01*
G01*
X53375000Y-56750000D01*
G75*
G02*
X52875000Y-57250000I-500000J0D01*
G01*
X51375000Y-57250000D01*
G75*
G02*
X50875000Y-56750000I0J500000D01*
G01*
G37*
%TD*%
%TO.C,K2*%
G36*
G01*
X121325000Y-52050000D02*
X121325000Y-50050000D01*
G75*
G02*
X121825000Y-49550000I500000J0D01*
G01*
X122825000Y-49550000D01*
G75*
G02*
X123325000Y-50050000I0J-500000D01*
G01*
X123325000Y-52050000D01*
G75*
G02*
X122825000Y-52550000I-500000J0D01*
G01*
X121825000Y-52550000D01*
G75*
G02*
X121325000Y-52050000I0J500000D01*
G01*
G37*
G36*
G01*
X121325000Y-47000000D02*
X121325000Y-45000000D01*
G75*
G02*
X121825000Y-44500000I500000J0D01*
G01*
X122825000Y-44500000D01*
G75*
G02*
X123325000Y-45000000I0J-500000D01*
G01*
X123325000Y-47000000D01*
G75*
G02*
X122825000Y-47500000I-500000J0D01*
G01*
X121825000Y-47500000D01*
G75*
G02*
X121325000Y-47000000I0J500000D01*
G01*
G37*
G36*
G01*
X121325000Y-41950000D02*
X121325000Y-39950000D01*
G75*
G02*
X121825000Y-39450000I500000J0D01*
G01*
X122825000Y-39450000D01*
G75*
G02*
X123325000Y-39950000I0J-500000D01*
G01*
X123325000Y-41950000D01*
G75*
G02*
X122825000Y-42450000I-500000J0D01*
G01*
X121825000Y-42450000D01*
G75*
G02*
X121325000Y-41950000I0J500000D01*
G01*
G37*
G36*
G01*
X118525000Y-47000000D02*
X118525000Y-45000000D01*
G75*
G02*
X119025000Y-44500000I500000J0D01*
G01*
X120025000Y-44500000D01*
G75*
G02*
X120525000Y-45000000I0J-500000D01*
G01*
X120525000Y-47000000D01*
G75*
G02*
X120025000Y-47500000I-500000J0D01*
G01*
X119025000Y-47500000D01*
G75*
G02*
X118525000Y-47000000I0J500000D01*
G01*
G37*
G36*
G01*
X104875000Y-52250000D02*
X104875000Y-51250000D01*
G75*
G02*
X105375000Y-50750000I500000J0D01*
G01*
X106875000Y-50750000D01*
G75*
G02*
X107375000Y-51250000I0J-500000D01*
G01*
X107375000Y-52250000D01*
G75*
G02*
X106875000Y-52750000I-500000J0D01*
G01*
X105375000Y-52750000D01*
G75*
G02*
X104875000Y-52250000I0J500000D01*
G01*
G37*
G36*
G01*
X104875000Y-40750000D02*
X104875000Y-39750000D01*
G75*
G02*
X105375000Y-39250000I500000J0D01*
G01*
X106875000Y-39250000D01*
G75*
G02*
X107375000Y-39750000I0J-500000D01*
G01*
X107375000Y-40750000D01*
G75*
G02*
X106875000Y-41250000I-500000J0D01*
G01*
X105375000Y-41250000D01*
G75*
G02*
X104875000Y-40750000I0J500000D01*
G01*
G37*
%TD*%
%TO.C,K2*%
G36*
G01*
X94325000Y-52050000D02*
X94325000Y-50050000D01*
G75*
G02*
X94825000Y-49550000I500000J0D01*
G01*
X95825000Y-49550000D01*
G75*
G02*
X96325000Y-50050000I0J-500000D01*
G01*
X96325000Y-52050000D01*
G75*
G02*
X95825000Y-52550000I-500000J0D01*
G01*
X94825000Y-52550000D01*
G75*
G02*
X94325000Y-52050000I0J500000D01*
G01*
G37*
G36*
G01*
X94325000Y-47000000D02*
X94325000Y-45000000D01*
G75*
G02*
X94825000Y-44500000I500000J0D01*
G01*
X95825000Y-44500000D01*
G75*
G02*
X96325000Y-45000000I0J-500000D01*
G01*
X96325000Y-47000000D01*
G75*
G02*
X95825000Y-47500000I-500000J0D01*
G01*
X94825000Y-47500000D01*
G75*
G02*
X94325000Y-47000000I0J500000D01*
G01*
G37*
G36*
G01*
X94325000Y-41950000D02*
X94325000Y-39950000D01*
G75*
G02*
X94825000Y-39450000I500000J0D01*
G01*
X95825000Y-39450000D01*
G75*
G02*
X96325000Y-39950000I0J-500000D01*
G01*
X96325000Y-41950000D01*
G75*
G02*
X95825000Y-42450000I-500000J0D01*
G01*
X94825000Y-42450000D01*
G75*
G02*
X94325000Y-41950000I0J500000D01*
G01*
G37*
G36*
G01*
X91525000Y-47000000D02*
X91525000Y-45000000D01*
G75*
G02*
X92025000Y-44500000I500000J0D01*
G01*
X93025000Y-44500000D01*
G75*
G02*
X93525000Y-45000000I0J-500000D01*
G01*
X93525000Y-47000000D01*
G75*
G02*
X93025000Y-47500000I-500000J0D01*
G01*
X92025000Y-47500000D01*
G75*
G02*
X91525000Y-47000000I0J500000D01*
G01*
G37*
G36*
G01*
X77875000Y-52250000D02*
X77875000Y-51250000D01*
G75*
G02*
X78375000Y-50750000I500000J0D01*
G01*
X79875000Y-50750000D01*
G75*
G02*
X80375000Y-51250000I0J-500000D01*
G01*
X80375000Y-52250000D01*
G75*
G02*
X79875000Y-52750000I-500000J0D01*
G01*
X78375000Y-52750000D01*
G75*
G02*
X77875000Y-52250000I0J500000D01*
G01*
G37*
G36*
G01*
X77875000Y-40750000D02*
X77875000Y-39750000D01*
G75*
G02*
X78375000Y-39250000I500000J0D01*
G01*
X79875000Y-39250000D01*
G75*
G02*
X80375000Y-39750000I0J-500000D01*
G01*
X80375000Y-40750000D01*
G75*
G02*
X79875000Y-41250000I-500000J0D01*
G01*
X78375000Y-41250000D01*
G75*
G02*
X77875000Y-40750000I0J500000D01*
G01*
G37*
%TD*%
%TO.C,K2*%
G36*
G01*
X50875000Y-40750000D02*
X50875000Y-39750000D01*
G75*
G02*
X51375000Y-39250000I500000J0D01*
G01*
X52875000Y-39250000D01*
G75*
G02*
X53375000Y-39750000I0J-500000D01*
G01*
X53375000Y-40750000D01*
G75*
G02*
X52875000Y-41250000I-500000J0D01*
G01*
X51375000Y-41250000D01*
G75*
G02*
X50875000Y-40750000I0J500000D01*
G01*
G37*
G36*
G01*
X50875000Y-52250000D02*
X50875000Y-51250000D01*
G75*
G02*
X51375000Y-50750000I500000J0D01*
G01*
X52875000Y-50750000D01*
G75*
G02*
X53375000Y-51250000I0J-500000D01*
G01*
X53375000Y-52250000D01*
G75*
G02*
X52875000Y-52750000I-500000J0D01*
G01*
X51375000Y-52750000D01*
G75*
G02*
X50875000Y-52250000I0J500000D01*
G01*
G37*
G36*
G01*
X64525000Y-47000000D02*
X64525000Y-45000000D01*
G75*
G02*
X65025000Y-44500000I500000J0D01*
G01*
X66025000Y-44500000D01*
G75*
G02*
X66525000Y-45000000I0J-500000D01*
G01*
X66525000Y-47000000D01*
G75*
G02*
X66025000Y-47500000I-500000J0D01*
G01*
X65025000Y-47500000D01*
G75*
G02*
X64525000Y-47000000I0J500000D01*
G01*
G37*
G36*
G01*
X67325000Y-41950000D02*
X67325000Y-39950000D01*
G75*
G02*
X67825000Y-39450000I500000J0D01*
G01*
X68825000Y-39450000D01*
G75*
G02*
X69325000Y-39950000I0J-500000D01*
G01*
X69325000Y-41950000D01*
G75*
G02*
X68825000Y-42450000I-500000J0D01*
G01*
X67825000Y-42450000D01*
G75*
G02*
X67325000Y-41950000I0J500000D01*
G01*
G37*
G36*
G01*
X67325000Y-47000000D02*
X67325000Y-45000000D01*
G75*
G02*
X67825000Y-44500000I500000J0D01*
G01*
X68825000Y-44500000D01*
G75*
G02*
X69325000Y-45000000I0J-500000D01*
G01*
X69325000Y-47000000D01*
G75*
G02*
X68825000Y-47500000I-500000J0D01*
G01*
X67825000Y-47500000D01*
G75*
G02*
X67325000Y-47000000I0J500000D01*
G01*
G37*
G36*
G01*
X67325000Y-52050000D02*
X67325000Y-50050000D01*
G75*
G02*
X67825000Y-49550000I500000J0D01*
G01*
X68825000Y-49550000D01*
G75*
G02*
X69325000Y-50050000I0J-500000D01*
G01*
X69325000Y-52050000D01*
G75*
G02*
X68825000Y-52550000I-500000J0D01*
G01*
X67825000Y-52550000D01*
G75*
G02*
X67325000Y-52050000I0J500000D01*
G01*
G37*
%TD*%
%TO.C,K1*%
G36*
G01*
X49260001Y-42740001D02*
X49260001Y-41740001D01*
G75*
G02*
X49760001Y-41240001I500000J0D01*
G01*
X51260001Y-41240001D01*
G75*
G02*
X51760001Y-41740001I0J-500000D01*
G01*
X51760001Y-42740001D01*
G75*
G02*
X51260001Y-43240001I-500000J0D01*
G01*
X49760001Y-43240001D01*
G75*
G02*
X49260001Y-42740001I0J500000D01*
G01*
G37*
G36*
G01*
X49260001Y-50240001D02*
X49260001Y-49240001D01*
G75*
G02*
X49760001Y-48740001I500000J0D01*
G01*
X51260001Y-48740001D01*
G75*
G02*
X51760001Y-49240001I0J-500000D01*
G01*
X51760001Y-50240001D01*
G75*
G02*
X51260001Y-50740001I-500000J0D01*
G01*
X49760001Y-50740001D01*
G75*
G02*
X49260001Y-50240001I0J500000D01*
G01*
G37*
G36*
G01*
X64510001Y-43240001D02*
X64510001Y-41240001D01*
G75*
G02*
X65010001Y-40740001I500000J0D01*
G01*
X66010001Y-40740001D01*
G75*
G02*
X66510001Y-41240001I0J-500000D01*
G01*
X66510001Y-43240001D01*
G75*
G02*
X66010001Y-43740001I-500000J0D01*
G01*
X65010001Y-43740001D01*
G75*
G02*
X64510001Y-43240001I0J500000D01*
G01*
G37*
G36*
G01*
X69510001Y-43240001D02*
X69510001Y-41240001D01*
G75*
G02*
X70010001Y-40740001I500000J0D01*
G01*
X71010001Y-40740001D01*
G75*
G02*
X71510001Y-41240001I0J-500000D01*
G01*
X71510001Y-43240001D01*
G75*
G02*
X71010001Y-43740001I-500000J0D01*
G01*
X70010001Y-43740001D01*
G75*
G02*
X69510001Y-43240001I0J500000D01*
G01*
G37*
G36*
G01*
X64510001Y-50740001D02*
X64510001Y-48740001D01*
G75*
G02*
X65010001Y-48240001I500000J0D01*
G01*
X66010001Y-48240001D01*
G75*
G02*
X66510001Y-48740001I0J-500000D01*
G01*
X66510001Y-50740001D01*
G75*
G02*
X66010001Y-51240001I-500000J0D01*
G01*
X65010001Y-51240001D01*
G75*
G02*
X64510001Y-50740001I0J500000D01*
G01*
G37*
G36*
G01*
X69510001Y-50740001D02*
X69510001Y-48740001D01*
G75*
G02*
X70010001Y-48240001I500000J0D01*
G01*
X71010001Y-48240001D01*
G75*
G02*
X71510001Y-48740001I0J-500000D01*
G01*
X71510001Y-50740001D01*
G75*
G02*
X71010001Y-51240001I-500000J0D01*
G01*
X70010001Y-51240001D01*
G75*
G02*
X69510001Y-50740001I0J500000D01*
G01*
G37*
%TD*%
M02*
