%TF.GenerationSoftware,KiCad,Pcbnew,(5.1.10)-1*%
%TF.CreationDate,2021-12-01T17:32:52+01:00*%
%TF.ProjectId,RelayAdapter_panelized,52656c61-7941-4646-9170-7465725f7061,rev?*%
%TF.SameCoordinates,Original*%
%TF.FileFunction,Copper,L1,Top*%
%TF.FilePolarity,Positive*%
%FSLAX46Y46*%
G04 Gerber Fmt 4.6, Leading zero omitted, Abs format (unit mm)*
G04 Created by KiCad (PCBNEW (5.1.10)-1) date 2021-12-01 17:32:52*
%MOMM*%
%LPD*%
G01*
G04 APERTURE LIST*
%TA.AperFunction,Conductor*%
%ADD10C,1.000000*%
%TD*%
%TA.AperFunction,Conductor*%
%ADD11C,0.250000*%
%TD*%
G04 APERTURE END LIST*
%TO.P,K1,6*%
%TO.N,Net-(K1-Pad6)*%
%TA.AperFunction,ComponentPad*%
G36*
G01*
X123510001Y-130740001D02*
X123510001Y-128740001D01*
G75*
G02*
X124010001Y-128240001I500000J0D01*
G01*
X125010001Y-128240001D01*
G75*
G02*
X125510001Y-128740001I0J-500000D01*
G01*
X125510001Y-130740001D01*
G75*
G02*
X125010001Y-131240001I-500000J0D01*
G01*
X124010001Y-131240001D01*
G75*
G02*
X123510001Y-130740001I0J500000D01*
G01*
G37*
%TD.AperFunction*%
%TO.P,K1,5*%
%TO.N,Net-(K1-Pad5)*%
%TA.AperFunction,ComponentPad*%
G36*
G01*
X118510001Y-130740001D02*
X118510001Y-128740001D01*
G75*
G02*
X119010001Y-128240001I500000J0D01*
G01*
X120010001Y-128240001D01*
G75*
G02*
X120510001Y-128740001I0J-500000D01*
G01*
X120510001Y-130740001D01*
G75*
G02*
X120010001Y-131240001I-500000J0D01*
G01*
X119010001Y-131240001D01*
G75*
G02*
X118510001Y-130740001I0J500000D01*
G01*
G37*
%TD.AperFunction*%
%TO.P,K1,4*%
%TO.N,Net-(K1-Pad4)*%
%TA.AperFunction,ComponentPad*%
G36*
G01*
X123510001Y-123240001D02*
X123510001Y-121240001D01*
G75*
G02*
X124010001Y-120740001I500000J0D01*
G01*
X125010001Y-120740001D01*
G75*
G02*
X125510001Y-121240001I0J-500000D01*
G01*
X125510001Y-123240001D01*
G75*
G02*
X125010001Y-123740001I-500000J0D01*
G01*
X124010001Y-123740001D01*
G75*
G02*
X123510001Y-123240001I0J500000D01*
G01*
G37*
%TD.AperFunction*%
%TO.P,K1,3*%
%TO.N,Net-(K1-Pad3)*%
%TA.AperFunction,ComponentPad*%
G36*
G01*
X118510001Y-123240001D02*
X118510001Y-121240001D01*
G75*
G02*
X119010001Y-120740001I500000J0D01*
G01*
X120010001Y-120740001D01*
G75*
G02*
X120510001Y-121240001I0J-500000D01*
G01*
X120510001Y-123240001D01*
G75*
G02*
X120010001Y-123740001I-500000J0D01*
G01*
X119010001Y-123740001D01*
G75*
G02*
X118510001Y-123240001I0J500000D01*
G01*
G37*
%TD.AperFunction*%
%TO.P,K1,2*%
%TO.N,Net-(K1-Pad2)*%
%TA.AperFunction,ComponentPad*%
G36*
G01*
X103260001Y-130240001D02*
X103260001Y-129240001D01*
G75*
G02*
X103760001Y-128740001I500000J0D01*
G01*
X105260001Y-128740001D01*
G75*
G02*
X105760001Y-129240001I0J-500000D01*
G01*
X105760001Y-130240001D01*
G75*
G02*
X105260001Y-130740001I-500000J0D01*
G01*
X103760001Y-130740001D01*
G75*
G02*
X103260001Y-130240001I0J500000D01*
G01*
G37*
%TD.AperFunction*%
%TO.P,K1,1*%
%TO.N,Net-(K1-Pad1)*%
%TA.AperFunction,ComponentPad*%
G36*
G01*
X103260001Y-122740001D02*
X103260001Y-121740001D01*
G75*
G02*
X103760001Y-121240001I500000J0D01*
G01*
X105260001Y-121240001D01*
G75*
G02*
X105760001Y-121740001I0J-500000D01*
G01*
X105760001Y-122740001D01*
G75*
G02*
X105260001Y-123240001I-500000J0D01*
G01*
X103760001Y-123240001D01*
G75*
G02*
X103260001Y-122740001I0J500000D01*
G01*
G37*
%TD.AperFunction*%
%TD*%
%TO.P,K1,6*%
%TO.N,Net-(K1-Pad6)*%
%TA.AperFunction,ComponentPad*%
G36*
G01*
X96510001Y-130740001D02*
X96510001Y-128740001D01*
G75*
G02*
X97010001Y-128240001I500000J0D01*
G01*
X98010001Y-128240001D01*
G75*
G02*
X98510001Y-128740001I0J-500000D01*
G01*
X98510001Y-130740001D01*
G75*
G02*
X98010001Y-131240001I-500000J0D01*
G01*
X97010001Y-131240001D01*
G75*
G02*
X96510001Y-130740001I0J500000D01*
G01*
G37*
%TD.AperFunction*%
%TO.P,K1,5*%
%TO.N,Net-(K1-Pad5)*%
%TA.AperFunction,ComponentPad*%
G36*
G01*
X91510001Y-130740001D02*
X91510001Y-128740001D01*
G75*
G02*
X92010001Y-128240001I500000J0D01*
G01*
X93010001Y-128240001D01*
G75*
G02*
X93510001Y-128740001I0J-500000D01*
G01*
X93510001Y-130740001D01*
G75*
G02*
X93010001Y-131240001I-500000J0D01*
G01*
X92010001Y-131240001D01*
G75*
G02*
X91510001Y-130740001I0J500000D01*
G01*
G37*
%TD.AperFunction*%
%TO.P,K1,4*%
%TO.N,Net-(K1-Pad4)*%
%TA.AperFunction,ComponentPad*%
G36*
G01*
X96510001Y-123240001D02*
X96510001Y-121240001D01*
G75*
G02*
X97010001Y-120740001I500000J0D01*
G01*
X98010001Y-120740001D01*
G75*
G02*
X98510001Y-121240001I0J-500000D01*
G01*
X98510001Y-123240001D01*
G75*
G02*
X98010001Y-123740001I-500000J0D01*
G01*
X97010001Y-123740001D01*
G75*
G02*
X96510001Y-123240001I0J500000D01*
G01*
G37*
%TD.AperFunction*%
%TO.P,K1,3*%
%TO.N,Net-(K1-Pad3)*%
%TA.AperFunction,ComponentPad*%
G36*
G01*
X91510001Y-123240001D02*
X91510001Y-121240001D01*
G75*
G02*
X92010001Y-120740001I500000J0D01*
G01*
X93010001Y-120740001D01*
G75*
G02*
X93510001Y-121240001I0J-500000D01*
G01*
X93510001Y-123240001D01*
G75*
G02*
X93010001Y-123740001I-500000J0D01*
G01*
X92010001Y-123740001D01*
G75*
G02*
X91510001Y-123240001I0J500000D01*
G01*
G37*
%TD.AperFunction*%
%TO.P,K1,2*%
%TO.N,Net-(K1-Pad2)*%
%TA.AperFunction,ComponentPad*%
G36*
G01*
X76260001Y-130240001D02*
X76260001Y-129240001D01*
G75*
G02*
X76760001Y-128740001I500000J0D01*
G01*
X78260001Y-128740001D01*
G75*
G02*
X78760001Y-129240001I0J-500000D01*
G01*
X78760001Y-130240001D01*
G75*
G02*
X78260001Y-130740001I-500000J0D01*
G01*
X76760001Y-130740001D01*
G75*
G02*
X76260001Y-130240001I0J500000D01*
G01*
G37*
%TD.AperFunction*%
%TO.P,K1,1*%
%TO.N,Net-(K1-Pad1)*%
%TA.AperFunction,ComponentPad*%
G36*
G01*
X76260001Y-122740001D02*
X76260001Y-121740001D01*
G75*
G02*
X76760001Y-121240001I500000J0D01*
G01*
X78260001Y-121240001D01*
G75*
G02*
X78760001Y-121740001I0J-500000D01*
G01*
X78760001Y-122740001D01*
G75*
G02*
X78260001Y-123240001I-500000J0D01*
G01*
X76760001Y-123240001D01*
G75*
G02*
X76260001Y-122740001I0J500000D01*
G01*
G37*
%TD.AperFunction*%
%TD*%
%TO.P,K1,6*%
%TO.N,Net-(K1-Pad6)*%
%TA.AperFunction,ComponentPad*%
G36*
G01*
X69510001Y-130740001D02*
X69510001Y-128740001D01*
G75*
G02*
X70010001Y-128240001I500000J0D01*
G01*
X71010001Y-128240001D01*
G75*
G02*
X71510001Y-128740001I0J-500000D01*
G01*
X71510001Y-130740001D01*
G75*
G02*
X71010001Y-131240001I-500000J0D01*
G01*
X70010001Y-131240001D01*
G75*
G02*
X69510001Y-130740001I0J500000D01*
G01*
G37*
%TD.AperFunction*%
%TO.P,K1,5*%
%TO.N,Net-(K1-Pad5)*%
%TA.AperFunction,ComponentPad*%
G36*
G01*
X64510001Y-130740001D02*
X64510001Y-128740001D01*
G75*
G02*
X65010001Y-128240001I500000J0D01*
G01*
X66010001Y-128240001D01*
G75*
G02*
X66510001Y-128740001I0J-500000D01*
G01*
X66510001Y-130740001D01*
G75*
G02*
X66010001Y-131240001I-500000J0D01*
G01*
X65010001Y-131240001D01*
G75*
G02*
X64510001Y-130740001I0J500000D01*
G01*
G37*
%TD.AperFunction*%
%TO.P,K1,4*%
%TO.N,Net-(K1-Pad4)*%
%TA.AperFunction,ComponentPad*%
G36*
G01*
X69510001Y-123240001D02*
X69510001Y-121240001D01*
G75*
G02*
X70010001Y-120740001I500000J0D01*
G01*
X71010001Y-120740001D01*
G75*
G02*
X71510001Y-121240001I0J-500000D01*
G01*
X71510001Y-123240001D01*
G75*
G02*
X71010001Y-123740001I-500000J0D01*
G01*
X70010001Y-123740001D01*
G75*
G02*
X69510001Y-123240001I0J500000D01*
G01*
G37*
%TD.AperFunction*%
%TO.P,K1,3*%
%TO.N,Net-(K1-Pad3)*%
%TA.AperFunction,ComponentPad*%
G36*
G01*
X64510001Y-123240001D02*
X64510001Y-121240001D01*
G75*
G02*
X65010001Y-120740001I500000J0D01*
G01*
X66010001Y-120740001D01*
G75*
G02*
X66510001Y-121240001I0J-500000D01*
G01*
X66510001Y-123240001D01*
G75*
G02*
X66010001Y-123740001I-500000J0D01*
G01*
X65010001Y-123740001D01*
G75*
G02*
X64510001Y-123240001I0J500000D01*
G01*
G37*
%TD.AperFunction*%
%TO.P,K1,2*%
%TO.N,Net-(K1-Pad2)*%
%TA.AperFunction,ComponentPad*%
G36*
G01*
X49260001Y-130240001D02*
X49260001Y-129240001D01*
G75*
G02*
X49760001Y-128740001I500000J0D01*
G01*
X51260001Y-128740001D01*
G75*
G02*
X51760001Y-129240001I0J-500000D01*
G01*
X51760001Y-130240001D01*
G75*
G02*
X51260001Y-130740001I-500000J0D01*
G01*
X49760001Y-130740001D01*
G75*
G02*
X49260001Y-130240001I0J500000D01*
G01*
G37*
%TD.AperFunction*%
%TO.P,K1,1*%
%TO.N,Net-(K1-Pad1)*%
%TA.AperFunction,ComponentPad*%
G36*
G01*
X49260001Y-122740001D02*
X49260001Y-121740001D01*
G75*
G02*
X49760001Y-121240001I500000J0D01*
G01*
X51260001Y-121240001D01*
G75*
G02*
X51760001Y-121740001I0J-500000D01*
G01*
X51760001Y-122740001D01*
G75*
G02*
X51260001Y-123240001I-500000J0D01*
G01*
X49760001Y-123240001D01*
G75*
G02*
X49260001Y-122740001I0J500000D01*
G01*
G37*
%TD.AperFunction*%
%TD*%
%TO.P,K1,6*%
%TO.N,Net-(K1-Pad6)*%
%TA.AperFunction,ComponentPad*%
G36*
G01*
X123510001Y-114740001D02*
X123510001Y-112740001D01*
G75*
G02*
X124010001Y-112240001I500000J0D01*
G01*
X125010001Y-112240001D01*
G75*
G02*
X125510001Y-112740001I0J-500000D01*
G01*
X125510001Y-114740001D01*
G75*
G02*
X125010001Y-115240001I-500000J0D01*
G01*
X124010001Y-115240001D01*
G75*
G02*
X123510001Y-114740001I0J500000D01*
G01*
G37*
%TD.AperFunction*%
%TO.P,K1,5*%
%TO.N,Net-(K1-Pad5)*%
%TA.AperFunction,ComponentPad*%
G36*
G01*
X118510001Y-114740001D02*
X118510001Y-112740001D01*
G75*
G02*
X119010001Y-112240001I500000J0D01*
G01*
X120010001Y-112240001D01*
G75*
G02*
X120510001Y-112740001I0J-500000D01*
G01*
X120510001Y-114740001D01*
G75*
G02*
X120010001Y-115240001I-500000J0D01*
G01*
X119010001Y-115240001D01*
G75*
G02*
X118510001Y-114740001I0J500000D01*
G01*
G37*
%TD.AperFunction*%
%TO.P,K1,4*%
%TO.N,Net-(K1-Pad4)*%
%TA.AperFunction,ComponentPad*%
G36*
G01*
X123510001Y-107240001D02*
X123510001Y-105240001D01*
G75*
G02*
X124010001Y-104740001I500000J0D01*
G01*
X125010001Y-104740001D01*
G75*
G02*
X125510001Y-105240001I0J-500000D01*
G01*
X125510001Y-107240001D01*
G75*
G02*
X125010001Y-107740001I-500000J0D01*
G01*
X124010001Y-107740001D01*
G75*
G02*
X123510001Y-107240001I0J500000D01*
G01*
G37*
%TD.AperFunction*%
%TO.P,K1,3*%
%TO.N,Net-(K1-Pad3)*%
%TA.AperFunction,ComponentPad*%
G36*
G01*
X118510001Y-107240001D02*
X118510001Y-105240001D01*
G75*
G02*
X119010001Y-104740001I500000J0D01*
G01*
X120010001Y-104740001D01*
G75*
G02*
X120510001Y-105240001I0J-500000D01*
G01*
X120510001Y-107240001D01*
G75*
G02*
X120010001Y-107740001I-500000J0D01*
G01*
X119010001Y-107740001D01*
G75*
G02*
X118510001Y-107240001I0J500000D01*
G01*
G37*
%TD.AperFunction*%
%TO.P,K1,2*%
%TO.N,Net-(K1-Pad2)*%
%TA.AperFunction,ComponentPad*%
G36*
G01*
X103260001Y-114240001D02*
X103260001Y-113240001D01*
G75*
G02*
X103760001Y-112740001I500000J0D01*
G01*
X105260001Y-112740001D01*
G75*
G02*
X105760001Y-113240001I0J-500000D01*
G01*
X105760001Y-114240001D01*
G75*
G02*
X105260001Y-114740001I-500000J0D01*
G01*
X103760001Y-114740001D01*
G75*
G02*
X103260001Y-114240001I0J500000D01*
G01*
G37*
%TD.AperFunction*%
%TO.P,K1,1*%
%TO.N,Net-(K1-Pad1)*%
%TA.AperFunction,ComponentPad*%
G36*
G01*
X103260001Y-106740001D02*
X103260001Y-105740001D01*
G75*
G02*
X103760001Y-105240001I500000J0D01*
G01*
X105260001Y-105240001D01*
G75*
G02*
X105760001Y-105740001I0J-500000D01*
G01*
X105760001Y-106740001D01*
G75*
G02*
X105260001Y-107240001I-500000J0D01*
G01*
X103760001Y-107240001D01*
G75*
G02*
X103260001Y-106740001I0J500000D01*
G01*
G37*
%TD.AperFunction*%
%TD*%
%TO.P,K1,6*%
%TO.N,Net-(K1-Pad6)*%
%TA.AperFunction,ComponentPad*%
G36*
G01*
X96510001Y-114740001D02*
X96510001Y-112740001D01*
G75*
G02*
X97010001Y-112240001I500000J0D01*
G01*
X98010001Y-112240001D01*
G75*
G02*
X98510001Y-112740001I0J-500000D01*
G01*
X98510001Y-114740001D01*
G75*
G02*
X98010001Y-115240001I-500000J0D01*
G01*
X97010001Y-115240001D01*
G75*
G02*
X96510001Y-114740001I0J500000D01*
G01*
G37*
%TD.AperFunction*%
%TO.P,K1,5*%
%TO.N,Net-(K1-Pad5)*%
%TA.AperFunction,ComponentPad*%
G36*
G01*
X91510001Y-114740001D02*
X91510001Y-112740001D01*
G75*
G02*
X92010001Y-112240001I500000J0D01*
G01*
X93010001Y-112240001D01*
G75*
G02*
X93510001Y-112740001I0J-500000D01*
G01*
X93510001Y-114740001D01*
G75*
G02*
X93010001Y-115240001I-500000J0D01*
G01*
X92010001Y-115240001D01*
G75*
G02*
X91510001Y-114740001I0J500000D01*
G01*
G37*
%TD.AperFunction*%
%TO.P,K1,4*%
%TO.N,Net-(K1-Pad4)*%
%TA.AperFunction,ComponentPad*%
G36*
G01*
X96510001Y-107240001D02*
X96510001Y-105240001D01*
G75*
G02*
X97010001Y-104740001I500000J0D01*
G01*
X98010001Y-104740001D01*
G75*
G02*
X98510001Y-105240001I0J-500000D01*
G01*
X98510001Y-107240001D01*
G75*
G02*
X98010001Y-107740001I-500000J0D01*
G01*
X97010001Y-107740001D01*
G75*
G02*
X96510001Y-107240001I0J500000D01*
G01*
G37*
%TD.AperFunction*%
%TO.P,K1,3*%
%TO.N,Net-(K1-Pad3)*%
%TA.AperFunction,ComponentPad*%
G36*
G01*
X91510001Y-107240001D02*
X91510001Y-105240001D01*
G75*
G02*
X92010001Y-104740001I500000J0D01*
G01*
X93010001Y-104740001D01*
G75*
G02*
X93510001Y-105240001I0J-500000D01*
G01*
X93510001Y-107240001D01*
G75*
G02*
X93010001Y-107740001I-500000J0D01*
G01*
X92010001Y-107740001D01*
G75*
G02*
X91510001Y-107240001I0J500000D01*
G01*
G37*
%TD.AperFunction*%
%TO.P,K1,2*%
%TO.N,Net-(K1-Pad2)*%
%TA.AperFunction,ComponentPad*%
G36*
G01*
X76260001Y-114240001D02*
X76260001Y-113240001D01*
G75*
G02*
X76760001Y-112740001I500000J0D01*
G01*
X78260001Y-112740001D01*
G75*
G02*
X78760001Y-113240001I0J-500000D01*
G01*
X78760001Y-114240001D01*
G75*
G02*
X78260001Y-114740001I-500000J0D01*
G01*
X76760001Y-114740001D01*
G75*
G02*
X76260001Y-114240001I0J500000D01*
G01*
G37*
%TD.AperFunction*%
%TO.P,K1,1*%
%TO.N,Net-(K1-Pad1)*%
%TA.AperFunction,ComponentPad*%
G36*
G01*
X76260001Y-106740001D02*
X76260001Y-105740001D01*
G75*
G02*
X76760001Y-105240001I500000J0D01*
G01*
X78260001Y-105240001D01*
G75*
G02*
X78760001Y-105740001I0J-500000D01*
G01*
X78760001Y-106740001D01*
G75*
G02*
X78260001Y-107240001I-500000J0D01*
G01*
X76760001Y-107240001D01*
G75*
G02*
X76260001Y-106740001I0J500000D01*
G01*
G37*
%TD.AperFunction*%
%TD*%
%TO.P,K1,6*%
%TO.N,Net-(K1-Pad6)*%
%TA.AperFunction,ComponentPad*%
G36*
G01*
X69510001Y-114740001D02*
X69510001Y-112740001D01*
G75*
G02*
X70010001Y-112240001I500000J0D01*
G01*
X71010001Y-112240001D01*
G75*
G02*
X71510001Y-112740001I0J-500000D01*
G01*
X71510001Y-114740001D01*
G75*
G02*
X71010001Y-115240001I-500000J0D01*
G01*
X70010001Y-115240001D01*
G75*
G02*
X69510001Y-114740001I0J500000D01*
G01*
G37*
%TD.AperFunction*%
%TO.P,K1,5*%
%TO.N,Net-(K1-Pad5)*%
%TA.AperFunction,ComponentPad*%
G36*
G01*
X64510001Y-114740001D02*
X64510001Y-112740001D01*
G75*
G02*
X65010001Y-112240001I500000J0D01*
G01*
X66010001Y-112240001D01*
G75*
G02*
X66510001Y-112740001I0J-500000D01*
G01*
X66510001Y-114740001D01*
G75*
G02*
X66010001Y-115240001I-500000J0D01*
G01*
X65010001Y-115240001D01*
G75*
G02*
X64510001Y-114740001I0J500000D01*
G01*
G37*
%TD.AperFunction*%
%TO.P,K1,4*%
%TO.N,Net-(K1-Pad4)*%
%TA.AperFunction,ComponentPad*%
G36*
G01*
X69510001Y-107240001D02*
X69510001Y-105240001D01*
G75*
G02*
X70010001Y-104740001I500000J0D01*
G01*
X71010001Y-104740001D01*
G75*
G02*
X71510001Y-105240001I0J-500000D01*
G01*
X71510001Y-107240001D01*
G75*
G02*
X71010001Y-107740001I-500000J0D01*
G01*
X70010001Y-107740001D01*
G75*
G02*
X69510001Y-107240001I0J500000D01*
G01*
G37*
%TD.AperFunction*%
%TO.P,K1,3*%
%TO.N,Net-(K1-Pad3)*%
%TA.AperFunction,ComponentPad*%
G36*
G01*
X64510001Y-107240001D02*
X64510001Y-105240001D01*
G75*
G02*
X65010001Y-104740001I500000J0D01*
G01*
X66010001Y-104740001D01*
G75*
G02*
X66510001Y-105240001I0J-500000D01*
G01*
X66510001Y-107240001D01*
G75*
G02*
X66010001Y-107740001I-500000J0D01*
G01*
X65010001Y-107740001D01*
G75*
G02*
X64510001Y-107240001I0J500000D01*
G01*
G37*
%TD.AperFunction*%
%TO.P,K1,2*%
%TO.N,Net-(K1-Pad2)*%
%TA.AperFunction,ComponentPad*%
G36*
G01*
X49260001Y-114240001D02*
X49260001Y-113240001D01*
G75*
G02*
X49760001Y-112740001I500000J0D01*
G01*
X51260001Y-112740001D01*
G75*
G02*
X51760001Y-113240001I0J-500000D01*
G01*
X51760001Y-114240001D01*
G75*
G02*
X51260001Y-114740001I-500000J0D01*
G01*
X49760001Y-114740001D01*
G75*
G02*
X49260001Y-114240001I0J500000D01*
G01*
G37*
%TD.AperFunction*%
%TO.P,K1,1*%
%TO.N,Net-(K1-Pad1)*%
%TA.AperFunction,ComponentPad*%
G36*
G01*
X49260001Y-106740001D02*
X49260001Y-105740001D01*
G75*
G02*
X49760001Y-105240001I500000J0D01*
G01*
X51260001Y-105240001D01*
G75*
G02*
X51760001Y-105740001I0J-500000D01*
G01*
X51760001Y-106740001D01*
G75*
G02*
X51260001Y-107240001I-500000J0D01*
G01*
X49760001Y-107240001D01*
G75*
G02*
X49260001Y-106740001I0J500000D01*
G01*
G37*
%TD.AperFunction*%
%TD*%
%TO.P,K1,6*%
%TO.N,Net-(K1-Pad6)*%
%TA.AperFunction,ComponentPad*%
G36*
G01*
X123510001Y-98740001D02*
X123510001Y-96740001D01*
G75*
G02*
X124010001Y-96240001I500000J0D01*
G01*
X125010001Y-96240001D01*
G75*
G02*
X125510001Y-96740001I0J-500000D01*
G01*
X125510001Y-98740001D01*
G75*
G02*
X125010001Y-99240001I-500000J0D01*
G01*
X124010001Y-99240001D01*
G75*
G02*
X123510001Y-98740001I0J500000D01*
G01*
G37*
%TD.AperFunction*%
%TO.P,K1,5*%
%TO.N,Net-(K1-Pad5)*%
%TA.AperFunction,ComponentPad*%
G36*
G01*
X118510001Y-98740001D02*
X118510001Y-96740001D01*
G75*
G02*
X119010001Y-96240001I500000J0D01*
G01*
X120010001Y-96240001D01*
G75*
G02*
X120510001Y-96740001I0J-500000D01*
G01*
X120510001Y-98740001D01*
G75*
G02*
X120010001Y-99240001I-500000J0D01*
G01*
X119010001Y-99240001D01*
G75*
G02*
X118510001Y-98740001I0J500000D01*
G01*
G37*
%TD.AperFunction*%
%TO.P,K1,4*%
%TO.N,Net-(K1-Pad4)*%
%TA.AperFunction,ComponentPad*%
G36*
G01*
X123510001Y-91240001D02*
X123510001Y-89240001D01*
G75*
G02*
X124010001Y-88740001I500000J0D01*
G01*
X125010001Y-88740001D01*
G75*
G02*
X125510001Y-89240001I0J-500000D01*
G01*
X125510001Y-91240001D01*
G75*
G02*
X125010001Y-91740001I-500000J0D01*
G01*
X124010001Y-91740001D01*
G75*
G02*
X123510001Y-91240001I0J500000D01*
G01*
G37*
%TD.AperFunction*%
%TO.P,K1,3*%
%TO.N,Net-(K1-Pad3)*%
%TA.AperFunction,ComponentPad*%
G36*
G01*
X118510001Y-91240001D02*
X118510001Y-89240001D01*
G75*
G02*
X119010001Y-88740001I500000J0D01*
G01*
X120010001Y-88740001D01*
G75*
G02*
X120510001Y-89240001I0J-500000D01*
G01*
X120510001Y-91240001D01*
G75*
G02*
X120010001Y-91740001I-500000J0D01*
G01*
X119010001Y-91740001D01*
G75*
G02*
X118510001Y-91240001I0J500000D01*
G01*
G37*
%TD.AperFunction*%
%TO.P,K1,2*%
%TO.N,Net-(K1-Pad2)*%
%TA.AperFunction,ComponentPad*%
G36*
G01*
X103260001Y-98240001D02*
X103260001Y-97240001D01*
G75*
G02*
X103760001Y-96740001I500000J0D01*
G01*
X105260001Y-96740001D01*
G75*
G02*
X105760001Y-97240001I0J-500000D01*
G01*
X105760001Y-98240001D01*
G75*
G02*
X105260001Y-98740001I-500000J0D01*
G01*
X103760001Y-98740001D01*
G75*
G02*
X103260001Y-98240001I0J500000D01*
G01*
G37*
%TD.AperFunction*%
%TO.P,K1,1*%
%TO.N,Net-(K1-Pad1)*%
%TA.AperFunction,ComponentPad*%
G36*
G01*
X103260001Y-90740001D02*
X103260001Y-89740001D01*
G75*
G02*
X103760001Y-89240001I500000J0D01*
G01*
X105260001Y-89240001D01*
G75*
G02*
X105760001Y-89740001I0J-500000D01*
G01*
X105760001Y-90740001D01*
G75*
G02*
X105260001Y-91240001I-500000J0D01*
G01*
X103760001Y-91240001D01*
G75*
G02*
X103260001Y-90740001I0J500000D01*
G01*
G37*
%TD.AperFunction*%
%TD*%
%TO.P,K1,6*%
%TO.N,Net-(K1-Pad6)*%
%TA.AperFunction,ComponentPad*%
G36*
G01*
X96510001Y-98740001D02*
X96510001Y-96740001D01*
G75*
G02*
X97010001Y-96240001I500000J0D01*
G01*
X98010001Y-96240001D01*
G75*
G02*
X98510001Y-96740001I0J-500000D01*
G01*
X98510001Y-98740001D01*
G75*
G02*
X98010001Y-99240001I-500000J0D01*
G01*
X97010001Y-99240001D01*
G75*
G02*
X96510001Y-98740001I0J500000D01*
G01*
G37*
%TD.AperFunction*%
%TO.P,K1,5*%
%TO.N,Net-(K1-Pad5)*%
%TA.AperFunction,ComponentPad*%
G36*
G01*
X91510001Y-98740001D02*
X91510001Y-96740001D01*
G75*
G02*
X92010001Y-96240001I500000J0D01*
G01*
X93010001Y-96240001D01*
G75*
G02*
X93510001Y-96740001I0J-500000D01*
G01*
X93510001Y-98740001D01*
G75*
G02*
X93010001Y-99240001I-500000J0D01*
G01*
X92010001Y-99240001D01*
G75*
G02*
X91510001Y-98740001I0J500000D01*
G01*
G37*
%TD.AperFunction*%
%TO.P,K1,4*%
%TO.N,Net-(K1-Pad4)*%
%TA.AperFunction,ComponentPad*%
G36*
G01*
X96510001Y-91240001D02*
X96510001Y-89240001D01*
G75*
G02*
X97010001Y-88740001I500000J0D01*
G01*
X98010001Y-88740001D01*
G75*
G02*
X98510001Y-89240001I0J-500000D01*
G01*
X98510001Y-91240001D01*
G75*
G02*
X98010001Y-91740001I-500000J0D01*
G01*
X97010001Y-91740001D01*
G75*
G02*
X96510001Y-91240001I0J500000D01*
G01*
G37*
%TD.AperFunction*%
%TO.P,K1,3*%
%TO.N,Net-(K1-Pad3)*%
%TA.AperFunction,ComponentPad*%
G36*
G01*
X91510001Y-91240001D02*
X91510001Y-89240001D01*
G75*
G02*
X92010001Y-88740001I500000J0D01*
G01*
X93010001Y-88740001D01*
G75*
G02*
X93510001Y-89240001I0J-500000D01*
G01*
X93510001Y-91240001D01*
G75*
G02*
X93010001Y-91740001I-500000J0D01*
G01*
X92010001Y-91740001D01*
G75*
G02*
X91510001Y-91240001I0J500000D01*
G01*
G37*
%TD.AperFunction*%
%TO.P,K1,2*%
%TO.N,Net-(K1-Pad2)*%
%TA.AperFunction,ComponentPad*%
G36*
G01*
X76260001Y-98240001D02*
X76260001Y-97240001D01*
G75*
G02*
X76760001Y-96740001I500000J0D01*
G01*
X78260001Y-96740001D01*
G75*
G02*
X78760001Y-97240001I0J-500000D01*
G01*
X78760001Y-98240001D01*
G75*
G02*
X78260001Y-98740001I-500000J0D01*
G01*
X76760001Y-98740001D01*
G75*
G02*
X76260001Y-98240001I0J500000D01*
G01*
G37*
%TD.AperFunction*%
%TO.P,K1,1*%
%TO.N,Net-(K1-Pad1)*%
%TA.AperFunction,ComponentPad*%
G36*
G01*
X76260001Y-90740001D02*
X76260001Y-89740001D01*
G75*
G02*
X76760001Y-89240001I500000J0D01*
G01*
X78260001Y-89240001D01*
G75*
G02*
X78760001Y-89740001I0J-500000D01*
G01*
X78760001Y-90740001D01*
G75*
G02*
X78260001Y-91240001I-500000J0D01*
G01*
X76760001Y-91240001D01*
G75*
G02*
X76260001Y-90740001I0J500000D01*
G01*
G37*
%TD.AperFunction*%
%TD*%
%TO.P,K1,6*%
%TO.N,Net-(K1-Pad6)*%
%TA.AperFunction,ComponentPad*%
G36*
G01*
X69510001Y-98740001D02*
X69510001Y-96740001D01*
G75*
G02*
X70010001Y-96240001I500000J0D01*
G01*
X71010001Y-96240001D01*
G75*
G02*
X71510001Y-96740001I0J-500000D01*
G01*
X71510001Y-98740001D01*
G75*
G02*
X71010001Y-99240001I-500000J0D01*
G01*
X70010001Y-99240001D01*
G75*
G02*
X69510001Y-98740001I0J500000D01*
G01*
G37*
%TD.AperFunction*%
%TO.P,K1,5*%
%TO.N,Net-(K1-Pad5)*%
%TA.AperFunction,ComponentPad*%
G36*
G01*
X64510001Y-98740001D02*
X64510001Y-96740001D01*
G75*
G02*
X65010001Y-96240001I500000J0D01*
G01*
X66010001Y-96240001D01*
G75*
G02*
X66510001Y-96740001I0J-500000D01*
G01*
X66510001Y-98740001D01*
G75*
G02*
X66010001Y-99240001I-500000J0D01*
G01*
X65010001Y-99240001D01*
G75*
G02*
X64510001Y-98740001I0J500000D01*
G01*
G37*
%TD.AperFunction*%
%TO.P,K1,4*%
%TO.N,Net-(K1-Pad4)*%
%TA.AperFunction,ComponentPad*%
G36*
G01*
X69510001Y-91240001D02*
X69510001Y-89240001D01*
G75*
G02*
X70010001Y-88740001I500000J0D01*
G01*
X71010001Y-88740001D01*
G75*
G02*
X71510001Y-89240001I0J-500000D01*
G01*
X71510001Y-91240001D01*
G75*
G02*
X71010001Y-91740001I-500000J0D01*
G01*
X70010001Y-91740001D01*
G75*
G02*
X69510001Y-91240001I0J500000D01*
G01*
G37*
%TD.AperFunction*%
%TO.P,K1,3*%
%TO.N,Net-(K1-Pad3)*%
%TA.AperFunction,ComponentPad*%
G36*
G01*
X64510001Y-91240001D02*
X64510001Y-89240001D01*
G75*
G02*
X65010001Y-88740001I500000J0D01*
G01*
X66010001Y-88740001D01*
G75*
G02*
X66510001Y-89240001I0J-500000D01*
G01*
X66510001Y-91240001D01*
G75*
G02*
X66010001Y-91740001I-500000J0D01*
G01*
X65010001Y-91740001D01*
G75*
G02*
X64510001Y-91240001I0J500000D01*
G01*
G37*
%TD.AperFunction*%
%TO.P,K1,2*%
%TO.N,Net-(K1-Pad2)*%
%TA.AperFunction,ComponentPad*%
G36*
G01*
X49260001Y-98240001D02*
X49260001Y-97240001D01*
G75*
G02*
X49760001Y-96740001I500000J0D01*
G01*
X51260001Y-96740001D01*
G75*
G02*
X51760001Y-97240001I0J-500000D01*
G01*
X51760001Y-98240001D01*
G75*
G02*
X51260001Y-98740001I-500000J0D01*
G01*
X49760001Y-98740001D01*
G75*
G02*
X49260001Y-98240001I0J500000D01*
G01*
G37*
%TD.AperFunction*%
%TO.P,K1,1*%
%TO.N,Net-(K1-Pad1)*%
%TA.AperFunction,ComponentPad*%
G36*
G01*
X49260001Y-90740001D02*
X49260001Y-89740001D01*
G75*
G02*
X49760001Y-89240001I500000J0D01*
G01*
X51260001Y-89240001D01*
G75*
G02*
X51760001Y-89740001I0J-500000D01*
G01*
X51760001Y-90740001D01*
G75*
G02*
X51260001Y-91240001I-500000J0D01*
G01*
X49760001Y-91240001D01*
G75*
G02*
X49260001Y-90740001I0J500000D01*
G01*
G37*
%TD.AperFunction*%
%TD*%
%TO.P,K1,6*%
%TO.N,Net-(K1-Pad6)*%
%TA.AperFunction,ComponentPad*%
G36*
G01*
X123510001Y-82740001D02*
X123510001Y-80740001D01*
G75*
G02*
X124010001Y-80240001I500000J0D01*
G01*
X125010001Y-80240001D01*
G75*
G02*
X125510001Y-80740001I0J-500000D01*
G01*
X125510001Y-82740001D01*
G75*
G02*
X125010001Y-83240001I-500000J0D01*
G01*
X124010001Y-83240001D01*
G75*
G02*
X123510001Y-82740001I0J500000D01*
G01*
G37*
%TD.AperFunction*%
%TO.P,K1,5*%
%TO.N,Net-(K1-Pad5)*%
%TA.AperFunction,ComponentPad*%
G36*
G01*
X118510001Y-82740001D02*
X118510001Y-80740001D01*
G75*
G02*
X119010001Y-80240001I500000J0D01*
G01*
X120010001Y-80240001D01*
G75*
G02*
X120510001Y-80740001I0J-500000D01*
G01*
X120510001Y-82740001D01*
G75*
G02*
X120010001Y-83240001I-500000J0D01*
G01*
X119010001Y-83240001D01*
G75*
G02*
X118510001Y-82740001I0J500000D01*
G01*
G37*
%TD.AperFunction*%
%TO.P,K1,4*%
%TO.N,Net-(K1-Pad4)*%
%TA.AperFunction,ComponentPad*%
G36*
G01*
X123510001Y-75240001D02*
X123510001Y-73240001D01*
G75*
G02*
X124010001Y-72740001I500000J0D01*
G01*
X125010001Y-72740001D01*
G75*
G02*
X125510001Y-73240001I0J-500000D01*
G01*
X125510001Y-75240001D01*
G75*
G02*
X125010001Y-75740001I-500000J0D01*
G01*
X124010001Y-75740001D01*
G75*
G02*
X123510001Y-75240001I0J500000D01*
G01*
G37*
%TD.AperFunction*%
%TO.P,K1,3*%
%TO.N,Net-(K1-Pad3)*%
%TA.AperFunction,ComponentPad*%
G36*
G01*
X118510001Y-75240001D02*
X118510001Y-73240001D01*
G75*
G02*
X119010001Y-72740001I500000J0D01*
G01*
X120010001Y-72740001D01*
G75*
G02*
X120510001Y-73240001I0J-500000D01*
G01*
X120510001Y-75240001D01*
G75*
G02*
X120010001Y-75740001I-500000J0D01*
G01*
X119010001Y-75740001D01*
G75*
G02*
X118510001Y-75240001I0J500000D01*
G01*
G37*
%TD.AperFunction*%
%TO.P,K1,2*%
%TO.N,Net-(K1-Pad2)*%
%TA.AperFunction,ComponentPad*%
G36*
G01*
X103260001Y-82240001D02*
X103260001Y-81240001D01*
G75*
G02*
X103760001Y-80740001I500000J0D01*
G01*
X105260001Y-80740001D01*
G75*
G02*
X105760001Y-81240001I0J-500000D01*
G01*
X105760001Y-82240001D01*
G75*
G02*
X105260001Y-82740001I-500000J0D01*
G01*
X103760001Y-82740001D01*
G75*
G02*
X103260001Y-82240001I0J500000D01*
G01*
G37*
%TD.AperFunction*%
%TO.P,K1,1*%
%TO.N,Net-(K1-Pad1)*%
%TA.AperFunction,ComponentPad*%
G36*
G01*
X103260001Y-74740001D02*
X103260001Y-73740001D01*
G75*
G02*
X103760001Y-73240001I500000J0D01*
G01*
X105260001Y-73240001D01*
G75*
G02*
X105760001Y-73740001I0J-500000D01*
G01*
X105760001Y-74740001D01*
G75*
G02*
X105260001Y-75240001I-500000J0D01*
G01*
X103760001Y-75240001D01*
G75*
G02*
X103260001Y-74740001I0J500000D01*
G01*
G37*
%TD.AperFunction*%
%TD*%
%TO.P,K1,6*%
%TO.N,Net-(K1-Pad6)*%
%TA.AperFunction,ComponentPad*%
G36*
G01*
X96510001Y-82740001D02*
X96510001Y-80740001D01*
G75*
G02*
X97010001Y-80240001I500000J0D01*
G01*
X98010001Y-80240001D01*
G75*
G02*
X98510001Y-80740001I0J-500000D01*
G01*
X98510001Y-82740001D01*
G75*
G02*
X98010001Y-83240001I-500000J0D01*
G01*
X97010001Y-83240001D01*
G75*
G02*
X96510001Y-82740001I0J500000D01*
G01*
G37*
%TD.AperFunction*%
%TO.P,K1,5*%
%TO.N,Net-(K1-Pad5)*%
%TA.AperFunction,ComponentPad*%
G36*
G01*
X91510001Y-82740001D02*
X91510001Y-80740001D01*
G75*
G02*
X92010001Y-80240001I500000J0D01*
G01*
X93010001Y-80240001D01*
G75*
G02*
X93510001Y-80740001I0J-500000D01*
G01*
X93510001Y-82740001D01*
G75*
G02*
X93010001Y-83240001I-500000J0D01*
G01*
X92010001Y-83240001D01*
G75*
G02*
X91510001Y-82740001I0J500000D01*
G01*
G37*
%TD.AperFunction*%
%TO.P,K1,4*%
%TO.N,Net-(K1-Pad4)*%
%TA.AperFunction,ComponentPad*%
G36*
G01*
X96510001Y-75240001D02*
X96510001Y-73240001D01*
G75*
G02*
X97010001Y-72740001I500000J0D01*
G01*
X98010001Y-72740001D01*
G75*
G02*
X98510001Y-73240001I0J-500000D01*
G01*
X98510001Y-75240001D01*
G75*
G02*
X98010001Y-75740001I-500000J0D01*
G01*
X97010001Y-75740001D01*
G75*
G02*
X96510001Y-75240001I0J500000D01*
G01*
G37*
%TD.AperFunction*%
%TO.P,K1,3*%
%TO.N,Net-(K1-Pad3)*%
%TA.AperFunction,ComponentPad*%
G36*
G01*
X91510001Y-75240001D02*
X91510001Y-73240001D01*
G75*
G02*
X92010001Y-72740001I500000J0D01*
G01*
X93010001Y-72740001D01*
G75*
G02*
X93510001Y-73240001I0J-500000D01*
G01*
X93510001Y-75240001D01*
G75*
G02*
X93010001Y-75740001I-500000J0D01*
G01*
X92010001Y-75740001D01*
G75*
G02*
X91510001Y-75240001I0J500000D01*
G01*
G37*
%TD.AperFunction*%
%TO.P,K1,2*%
%TO.N,Net-(K1-Pad2)*%
%TA.AperFunction,ComponentPad*%
G36*
G01*
X76260001Y-82240001D02*
X76260001Y-81240001D01*
G75*
G02*
X76760001Y-80740001I500000J0D01*
G01*
X78260001Y-80740001D01*
G75*
G02*
X78760001Y-81240001I0J-500000D01*
G01*
X78760001Y-82240001D01*
G75*
G02*
X78260001Y-82740001I-500000J0D01*
G01*
X76760001Y-82740001D01*
G75*
G02*
X76260001Y-82240001I0J500000D01*
G01*
G37*
%TD.AperFunction*%
%TO.P,K1,1*%
%TO.N,Net-(K1-Pad1)*%
%TA.AperFunction,ComponentPad*%
G36*
G01*
X76260001Y-74740001D02*
X76260001Y-73740001D01*
G75*
G02*
X76760001Y-73240001I500000J0D01*
G01*
X78260001Y-73240001D01*
G75*
G02*
X78760001Y-73740001I0J-500000D01*
G01*
X78760001Y-74740001D01*
G75*
G02*
X78260001Y-75240001I-500000J0D01*
G01*
X76760001Y-75240001D01*
G75*
G02*
X76260001Y-74740001I0J500000D01*
G01*
G37*
%TD.AperFunction*%
%TD*%
%TO.P,K1,6*%
%TO.N,Net-(K1-Pad6)*%
%TA.AperFunction,ComponentPad*%
G36*
G01*
X69510001Y-82740001D02*
X69510001Y-80740001D01*
G75*
G02*
X70010001Y-80240001I500000J0D01*
G01*
X71010001Y-80240001D01*
G75*
G02*
X71510001Y-80740001I0J-500000D01*
G01*
X71510001Y-82740001D01*
G75*
G02*
X71010001Y-83240001I-500000J0D01*
G01*
X70010001Y-83240001D01*
G75*
G02*
X69510001Y-82740001I0J500000D01*
G01*
G37*
%TD.AperFunction*%
%TO.P,K1,5*%
%TO.N,Net-(K1-Pad5)*%
%TA.AperFunction,ComponentPad*%
G36*
G01*
X64510001Y-82740001D02*
X64510001Y-80740001D01*
G75*
G02*
X65010001Y-80240001I500000J0D01*
G01*
X66010001Y-80240001D01*
G75*
G02*
X66510001Y-80740001I0J-500000D01*
G01*
X66510001Y-82740001D01*
G75*
G02*
X66010001Y-83240001I-500000J0D01*
G01*
X65010001Y-83240001D01*
G75*
G02*
X64510001Y-82740001I0J500000D01*
G01*
G37*
%TD.AperFunction*%
%TO.P,K1,4*%
%TO.N,Net-(K1-Pad4)*%
%TA.AperFunction,ComponentPad*%
G36*
G01*
X69510001Y-75240001D02*
X69510001Y-73240001D01*
G75*
G02*
X70010001Y-72740001I500000J0D01*
G01*
X71010001Y-72740001D01*
G75*
G02*
X71510001Y-73240001I0J-500000D01*
G01*
X71510001Y-75240001D01*
G75*
G02*
X71010001Y-75740001I-500000J0D01*
G01*
X70010001Y-75740001D01*
G75*
G02*
X69510001Y-75240001I0J500000D01*
G01*
G37*
%TD.AperFunction*%
%TO.P,K1,3*%
%TO.N,Net-(K1-Pad3)*%
%TA.AperFunction,ComponentPad*%
G36*
G01*
X64510001Y-75240001D02*
X64510001Y-73240001D01*
G75*
G02*
X65010001Y-72740001I500000J0D01*
G01*
X66010001Y-72740001D01*
G75*
G02*
X66510001Y-73240001I0J-500000D01*
G01*
X66510001Y-75240001D01*
G75*
G02*
X66010001Y-75740001I-500000J0D01*
G01*
X65010001Y-75740001D01*
G75*
G02*
X64510001Y-75240001I0J500000D01*
G01*
G37*
%TD.AperFunction*%
%TO.P,K1,2*%
%TO.N,Net-(K1-Pad2)*%
%TA.AperFunction,ComponentPad*%
G36*
G01*
X49260001Y-82240001D02*
X49260001Y-81240001D01*
G75*
G02*
X49760001Y-80740001I500000J0D01*
G01*
X51260001Y-80740001D01*
G75*
G02*
X51760001Y-81240001I0J-500000D01*
G01*
X51760001Y-82240001D01*
G75*
G02*
X51260001Y-82740001I-500000J0D01*
G01*
X49760001Y-82740001D01*
G75*
G02*
X49260001Y-82240001I0J500000D01*
G01*
G37*
%TD.AperFunction*%
%TO.P,K1,1*%
%TO.N,Net-(K1-Pad1)*%
%TA.AperFunction,ComponentPad*%
G36*
G01*
X49260001Y-74740001D02*
X49260001Y-73740001D01*
G75*
G02*
X49760001Y-73240001I500000J0D01*
G01*
X51260001Y-73240001D01*
G75*
G02*
X51760001Y-73740001I0J-500000D01*
G01*
X51760001Y-74740001D01*
G75*
G02*
X51260001Y-75240001I-500000J0D01*
G01*
X49760001Y-75240001D01*
G75*
G02*
X49260001Y-74740001I0J500000D01*
G01*
G37*
%TD.AperFunction*%
%TD*%
%TO.P,K1,6*%
%TO.N,Net-(K1-Pad6)*%
%TA.AperFunction,ComponentPad*%
G36*
G01*
X123510001Y-66740001D02*
X123510001Y-64740001D01*
G75*
G02*
X124010001Y-64240001I500000J0D01*
G01*
X125010001Y-64240001D01*
G75*
G02*
X125510001Y-64740001I0J-500000D01*
G01*
X125510001Y-66740001D01*
G75*
G02*
X125010001Y-67240001I-500000J0D01*
G01*
X124010001Y-67240001D01*
G75*
G02*
X123510001Y-66740001I0J500000D01*
G01*
G37*
%TD.AperFunction*%
%TO.P,K1,5*%
%TO.N,Net-(K1-Pad5)*%
%TA.AperFunction,ComponentPad*%
G36*
G01*
X118510001Y-66740001D02*
X118510001Y-64740001D01*
G75*
G02*
X119010001Y-64240001I500000J0D01*
G01*
X120010001Y-64240001D01*
G75*
G02*
X120510001Y-64740001I0J-500000D01*
G01*
X120510001Y-66740001D01*
G75*
G02*
X120010001Y-67240001I-500000J0D01*
G01*
X119010001Y-67240001D01*
G75*
G02*
X118510001Y-66740001I0J500000D01*
G01*
G37*
%TD.AperFunction*%
%TO.P,K1,4*%
%TO.N,Net-(K1-Pad4)*%
%TA.AperFunction,ComponentPad*%
G36*
G01*
X123510001Y-59240001D02*
X123510001Y-57240001D01*
G75*
G02*
X124010001Y-56740001I500000J0D01*
G01*
X125010001Y-56740001D01*
G75*
G02*
X125510001Y-57240001I0J-500000D01*
G01*
X125510001Y-59240001D01*
G75*
G02*
X125010001Y-59740001I-500000J0D01*
G01*
X124010001Y-59740001D01*
G75*
G02*
X123510001Y-59240001I0J500000D01*
G01*
G37*
%TD.AperFunction*%
%TO.P,K1,3*%
%TO.N,Net-(K1-Pad3)*%
%TA.AperFunction,ComponentPad*%
G36*
G01*
X118510001Y-59240001D02*
X118510001Y-57240001D01*
G75*
G02*
X119010001Y-56740001I500000J0D01*
G01*
X120010001Y-56740001D01*
G75*
G02*
X120510001Y-57240001I0J-500000D01*
G01*
X120510001Y-59240001D01*
G75*
G02*
X120010001Y-59740001I-500000J0D01*
G01*
X119010001Y-59740001D01*
G75*
G02*
X118510001Y-59240001I0J500000D01*
G01*
G37*
%TD.AperFunction*%
%TO.P,K1,2*%
%TO.N,Net-(K1-Pad2)*%
%TA.AperFunction,ComponentPad*%
G36*
G01*
X103260001Y-66240001D02*
X103260001Y-65240001D01*
G75*
G02*
X103760001Y-64740001I500000J0D01*
G01*
X105260001Y-64740001D01*
G75*
G02*
X105760001Y-65240001I0J-500000D01*
G01*
X105760001Y-66240001D01*
G75*
G02*
X105260001Y-66740001I-500000J0D01*
G01*
X103760001Y-66740001D01*
G75*
G02*
X103260001Y-66240001I0J500000D01*
G01*
G37*
%TD.AperFunction*%
%TO.P,K1,1*%
%TO.N,Net-(K1-Pad1)*%
%TA.AperFunction,ComponentPad*%
G36*
G01*
X103260001Y-58740001D02*
X103260001Y-57740001D01*
G75*
G02*
X103760001Y-57240001I500000J0D01*
G01*
X105260001Y-57240001D01*
G75*
G02*
X105760001Y-57740001I0J-500000D01*
G01*
X105760001Y-58740001D01*
G75*
G02*
X105260001Y-59240001I-500000J0D01*
G01*
X103760001Y-59240001D01*
G75*
G02*
X103260001Y-58740001I0J500000D01*
G01*
G37*
%TD.AperFunction*%
%TD*%
%TO.P,K1,6*%
%TO.N,Net-(K1-Pad6)*%
%TA.AperFunction,ComponentPad*%
G36*
G01*
X96510001Y-66740001D02*
X96510001Y-64740001D01*
G75*
G02*
X97010001Y-64240001I500000J0D01*
G01*
X98010001Y-64240001D01*
G75*
G02*
X98510001Y-64740001I0J-500000D01*
G01*
X98510001Y-66740001D01*
G75*
G02*
X98010001Y-67240001I-500000J0D01*
G01*
X97010001Y-67240001D01*
G75*
G02*
X96510001Y-66740001I0J500000D01*
G01*
G37*
%TD.AperFunction*%
%TO.P,K1,5*%
%TO.N,Net-(K1-Pad5)*%
%TA.AperFunction,ComponentPad*%
G36*
G01*
X91510001Y-66740001D02*
X91510001Y-64740001D01*
G75*
G02*
X92010001Y-64240001I500000J0D01*
G01*
X93010001Y-64240001D01*
G75*
G02*
X93510001Y-64740001I0J-500000D01*
G01*
X93510001Y-66740001D01*
G75*
G02*
X93010001Y-67240001I-500000J0D01*
G01*
X92010001Y-67240001D01*
G75*
G02*
X91510001Y-66740001I0J500000D01*
G01*
G37*
%TD.AperFunction*%
%TO.P,K1,4*%
%TO.N,Net-(K1-Pad4)*%
%TA.AperFunction,ComponentPad*%
G36*
G01*
X96510001Y-59240001D02*
X96510001Y-57240001D01*
G75*
G02*
X97010001Y-56740001I500000J0D01*
G01*
X98010001Y-56740001D01*
G75*
G02*
X98510001Y-57240001I0J-500000D01*
G01*
X98510001Y-59240001D01*
G75*
G02*
X98010001Y-59740001I-500000J0D01*
G01*
X97010001Y-59740001D01*
G75*
G02*
X96510001Y-59240001I0J500000D01*
G01*
G37*
%TD.AperFunction*%
%TO.P,K1,3*%
%TO.N,Net-(K1-Pad3)*%
%TA.AperFunction,ComponentPad*%
G36*
G01*
X91510001Y-59240001D02*
X91510001Y-57240001D01*
G75*
G02*
X92010001Y-56740001I500000J0D01*
G01*
X93010001Y-56740001D01*
G75*
G02*
X93510001Y-57240001I0J-500000D01*
G01*
X93510001Y-59240001D01*
G75*
G02*
X93010001Y-59740001I-500000J0D01*
G01*
X92010001Y-59740001D01*
G75*
G02*
X91510001Y-59240001I0J500000D01*
G01*
G37*
%TD.AperFunction*%
%TO.P,K1,2*%
%TO.N,Net-(K1-Pad2)*%
%TA.AperFunction,ComponentPad*%
G36*
G01*
X76260001Y-66240001D02*
X76260001Y-65240001D01*
G75*
G02*
X76760001Y-64740001I500000J0D01*
G01*
X78260001Y-64740001D01*
G75*
G02*
X78760001Y-65240001I0J-500000D01*
G01*
X78760001Y-66240001D01*
G75*
G02*
X78260001Y-66740001I-500000J0D01*
G01*
X76760001Y-66740001D01*
G75*
G02*
X76260001Y-66240001I0J500000D01*
G01*
G37*
%TD.AperFunction*%
%TO.P,K1,1*%
%TO.N,Net-(K1-Pad1)*%
%TA.AperFunction,ComponentPad*%
G36*
G01*
X76260001Y-58740001D02*
X76260001Y-57740001D01*
G75*
G02*
X76760001Y-57240001I500000J0D01*
G01*
X78260001Y-57240001D01*
G75*
G02*
X78760001Y-57740001I0J-500000D01*
G01*
X78760001Y-58740001D01*
G75*
G02*
X78260001Y-59240001I-500000J0D01*
G01*
X76760001Y-59240001D01*
G75*
G02*
X76260001Y-58740001I0J500000D01*
G01*
G37*
%TD.AperFunction*%
%TD*%
%TO.P,K1,6*%
%TO.N,Net-(K1-Pad6)*%
%TA.AperFunction,ComponentPad*%
G36*
G01*
X69510001Y-66740001D02*
X69510001Y-64740001D01*
G75*
G02*
X70010001Y-64240001I500000J0D01*
G01*
X71010001Y-64240001D01*
G75*
G02*
X71510001Y-64740001I0J-500000D01*
G01*
X71510001Y-66740001D01*
G75*
G02*
X71010001Y-67240001I-500000J0D01*
G01*
X70010001Y-67240001D01*
G75*
G02*
X69510001Y-66740001I0J500000D01*
G01*
G37*
%TD.AperFunction*%
%TO.P,K1,5*%
%TO.N,Net-(K1-Pad5)*%
%TA.AperFunction,ComponentPad*%
G36*
G01*
X64510001Y-66740001D02*
X64510001Y-64740001D01*
G75*
G02*
X65010001Y-64240001I500000J0D01*
G01*
X66010001Y-64240001D01*
G75*
G02*
X66510001Y-64740001I0J-500000D01*
G01*
X66510001Y-66740001D01*
G75*
G02*
X66010001Y-67240001I-500000J0D01*
G01*
X65010001Y-67240001D01*
G75*
G02*
X64510001Y-66740001I0J500000D01*
G01*
G37*
%TD.AperFunction*%
%TO.P,K1,4*%
%TO.N,Net-(K1-Pad4)*%
%TA.AperFunction,ComponentPad*%
G36*
G01*
X69510001Y-59240001D02*
X69510001Y-57240001D01*
G75*
G02*
X70010001Y-56740001I500000J0D01*
G01*
X71010001Y-56740001D01*
G75*
G02*
X71510001Y-57240001I0J-500000D01*
G01*
X71510001Y-59240001D01*
G75*
G02*
X71010001Y-59740001I-500000J0D01*
G01*
X70010001Y-59740001D01*
G75*
G02*
X69510001Y-59240001I0J500000D01*
G01*
G37*
%TD.AperFunction*%
%TO.P,K1,3*%
%TO.N,Net-(K1-Pad3)*%
%TA.AperFunction,ComponentPad*%
G36*
G01*
X64510001Y-59240001D02*
X64510001Y-57240001D01*
G75*
G02*
X65010001Y-56740001I500000J0D01*
G01*
X66010001Y-56740001D01*
G75*
G02*
X66510001Y-57240001I0J-500000D01*
G01*
X66510001Y-59240001D01*
G75*
G02*
X66010001Y-59740001I-500000J0D01*
G01*
X65010001Y-59740001D01*
G75*
G02*
X64510001Y-59240001I0J500000D01*
G01*
G37*
%TD.AperFunction*%
%TO.P,K1,2*%
%TO.N,Net-(K1-Pad2)*%
%TA.AperFunction,ComponentPad*%
G36*
G01*
X49260001Y-66240001D02*
X49260001Y-65240001D01*
G75*
G02*
X49760001Y-64740001I500000J0D01*
G01*
X51260001Y-64740001D01*
G75*
G02*
X51760001Y-65240001I0J-500000D01*
G01*
X51760001Y-66240001D01*
G75*
G02*
X51260001Y-66740001I-500000J0D01*
G01*
X49760001Y-66740001D01*
G75*
G02*
X49260001Y-66240001I0J500000D01*
G01*
G37*
%TD.AperFunction*%
%TO.P,K1,1*%
%TO.N,Net-(K1-Pad1)*%
%TA.AperFunction,ComponentPad*%
G36*
G01*
X49260001Y-58740001D02*
X49260001Y-57740001D01*
G75*
G02*
X49760001Y-57240001I500000J0D01*
G01*
X51260001Y-57240001D01*
G75*
G02*
X51760001Y-57740001I0J-500000D01*
G01*
X51760001Y-58740001D01*
G75*
G02*
X51260001Y-59240001I-500000J0D01*
G01*
X49760001Y-59240001D01*
G75*
G02*
X49260001Y-58740001I0J500000D01*
G01*
G37*
%TD.AperFunction*%
%TD*%
%TO.P,K1,6*%
%TO.N,Net-(K1-Pad6)*%
%TA.AperFunction,ComponentPad*%
G36*
G01*
X123510001Y-50740001D02*
X123510001Y-48740001D01*
G75*
G02*
X124010001Y-48240001I500000J0D01*
G01*
X125010001Y-48240001D01*
G75*
G02*
X125510001Y-48740001I0J-500000D01*
G01*
X125510001Y-50740001D01*
G75*
G02*
X125010001Y-51240001I-500000J0D01*
G01*
X124010001Y-51240001D01*
G75*
G02*
X123510001Y-50740001I0J500000D01*
G01*
G37*
%TD.AperFunction*%
%TO.P,K1,5*%
%TO.N,Net-(K1-Pad5)*%
%TA.AperFunction,ComponentPad*%
G36*
G01*
X118510001Y-50740001D02*
X118510001Y-48740001D01*
G75*
G02*
X119010001Y-48240001I500000J0D01*
G01*
X120010001Y-48240001D01*
G75*
G02*
X120510001Y-48740001I0J-500000D01*
G01*
X120510001Y-50740001D01*
G75*
G02*
X120010001Y-51240001I-500000J0D01*
G01*
X119010001Y-51240001D01*
G75*
G02*
X118510001Y-50740001I0J500000D01*
G01*
G37*
%TD.AperFunction*%
%TO.P,K1,4*%
%TO.N,Net-(K1-Pad4)*%
%TA.AperFunction,ComponentPad*%
G36*
G01*
X123510001Y-43240001D02*
X123510001Y-41240001D01*
G75*
G02*
X124010001Y-40740001I500000J0D01*
G01*
X125010001Y-40740001D01*
G75*
G02*
X125510001Y-41240001I0J-500000D01*
G01*
X125510001Y-43240001D01*
G75*
G02*
X125010001Y-43740001I-500000J0D01*
G01*
X124010001Y-43740001D01*
G75*
G02*
X123510001Y-43240001I0J500000D01*
G01*
G37*
%TD.AperFunction*%
%TO.P,K1,3*%
%TO.N,Net-(K1-Pad3)*%
%TA.AperFunction,ComponentPad*%
G36*
G01*
X118510001Y-43240001D02*
X118510001Y-41240001D01*
G75*
G02*
X119010001Y-40740001I500000J0D01*
G01*
X120010001Y-40740001D01*
G75*
G02*
X120510001Y-41240001I0J-500000D01*
G01*
X120510001Y-43240001D01*
G75*
G02*
X120010001Y-43740001I-500000J0D01*
G01*
X119010001Y-43740001D01*
G75*
G02*
X118510001Y-43240001I0J500000D01*
G01*
G37*
%TD.AperFunction*%
%TO.P,K1,2*%
%TO.N,Net-(K1-Pad2)*%
%TA.AperFunction,ComponentPad*%
G36*
G01*
X103260001Y-50240001D02*
X103260001Y-49240001D01*
G75*
G02*
X103760001Y-48740001I500000J0D01*
G01*
X105260001Y-48740001D01*
G75*
G02*
X105760001Y-49240001I0J-500000D01*
G01*
X105760001Y-50240001D01*
G75*
G02*
X105260001Y-50740001I-500000J0D01*
G01*
X103760001Y-50740001D01*
G75*
G02*
X103260001Y-50240001I0J500000D01*
G01*
G37*
%TD.AperFunction*%
%TO.P,K1,1*%
%TO.N,Net-(K1-Pad1)*%
%TA.AperFunction,ComponentPad*%
G36*
G01*
X103260001Y-42740001D02*
X103260001Y-41740001D01*
G75*
G02*
X103760001Y-41240001I500000J0D01*
G01*
X105260001Y-41240001D01*
G75*
G02*
X105760001Y-41740001I0J-500000D01*
G01*
X105760001Y-42740001D01*
G75*
G02*
X105260001Y-43240001I-500000J0D01*
G01*
X103760001Y-43240001D01*
G75*
G02*
X103260001Y-42740001I0J500000D01*
G01*
G37*
%TD.AperFunction*%
%TD*%
%TO.P,K1,6*%
%TO.N,Net-(K1-Pad6)*%
%TA.AperFunction,ComponentPad*%
G36*
G01*
X96510001Y-50740001D02*
X96510001Y-48740001D01*
G75*
G02*
X97010001Y-48240001I500000J0D01*
G01*
X98010001Y-48240001D01*
G75*
G02*
X98510001Y-48740001I0J-500000D01*
G01*
X98510001Y-50740001D01*
G75*
G02*
X98010001Y-51240001I-500000J0D01*
G01*
X97010001Y-51240001D01*
G75*
G02*
X96510001Y-50740001I0J500000D01*
G01*
G37*
%TD.AperFunction*%
%TO.P,K1,5*%
%TO.N,Net-(K1-Pad5)*%
%TA.AperFunction,ComponentPad*%
G36*
G01*
X91510001Y-50740001D02*
X91510001Y-48740001D01*
G75*
G02*
X92010001Y-48240001I500000J0D01*
G01*
X93010001Y-48240001D01*
G75*
G02*
X93510001Y-48740001I0J-500000D01*
G01*
X93510001Y-50740001D01*
G75*
G02*
X93010001Y-51240001I-500000J0D01*
G01*
X92010001Y-51240001D01*
G75*
G02*
X91510001Y-50740001I0J500000D01*
G01*
G37*
%TD.AperFunction*%
%TO.P,K1,4*%
%TO.N,Net-(K1-Pad4)*%
%TA.AperFunction,ComponentPad*%
G36*
G01*
X96510001Y-43240001D02*
X96510001Y-41240001D01*
G75*
G02*
X97010001Y-40740001I500000J0D01*
G01*
X98010001Y-40740001D01*
G75*
G02*
X98510001Y-41240001I0J-500000D01*
G01*
X98510001Y-43240001D01*
G75*
G02*
X98010001Y-43740001I-500000J0D01*
G01*
X97010001Y-43740001D01*
G75*
G02*
X96510001Y-43240001I0J500000D01*
G01*
G37*
%TD.AperFunction*%
%TO.P,K1,3*%
%TO.N,Net-(K1-Pad3)*%
%TA.AperFunction,ComponentPad*%
G36*
G01*
X91510001Y-43240001D02*
X91510001Y-41240001D01*
G75*
G02*
X92010001Y-40740001I500000J0D01*
G01*
X93010001Y-40740001D01*
G75*
G02*
X93510001Y-41240001I0J-500000D01*
G01*
X93510001Y-43240001D01*
G75*
G02*
X93010001Y-43740001I-500000J0D01*
G01*
X92010001Y-43740001D01*
G75*
G02*
X91510001Y-43240001I0J500000D01*
G01*
G37*
%TD.AperFunction*%
%TO.P,K1,2*%
%TO.N,Net-(K1-Pad2)*%
%TA.AperFunction,ComponentPad*%
G36*
G01*
X76260001Y-50240001D02*
X76260001Y-49240001D01*
G75*
G02*
X76760001Y-48740001I500000J0D01*
G01*
X78260001Y-48740001D01*
G75*
G02*
X78760001Y-49240001I0J-500000D01*
G01*
X78760001Y-50240001D01*
G75*
G02*
X78260001Y-50740001I-500000J0D01*
G01*
X76760001Y-50740001D01*
G75*
G02*
X76260001Y-50240001I0J500000D01*
G01*
G37*
%TD.AperFunction*%
%TO.P,K1,1*%
%TO.N,Net-(K1-Pad1)*%
%TA.AperFunction,ComponentPad*%
G36*
G01*
X76260001Y-42740001D02*
X76260001Y-41740001D01*
G75*
G02*
X76760001Y-41240001I500000J0D01*
G01*
X78260001Y-41240001D01*
G75*
G02*
X78760001Y-41740001I0J-500000D01*
G01*
X78760001Y-42740001D01*
G75*
G02*
X78260001Y-43240001I-500000J0D01*
G01*
X76760001Y-43240001D01*
G75*
G02*
X76260001Y-42740001I0J500000D01*
G01*
G37*
%TD.AperFunction*%
%TD*%
%TO.P,K2,10*%
%TO.N,Net-(K1-Pad6)*%
%TA.AperFunction,ComponentPad*%
G36*
G01*
X121325000Y-132050000D02*
X121325000Y-130050000D01*
G75*
G02*
X121825000Y-129550000I500000J0D01*
G01*
X122825000Y-129550000D01*
G75*
G02*
X123325000Y-130050000I0J-500000D01*
G01*
X123325000Y-132050000D01*
G75*
G02*
X122825000Y-132550000I-500000J0D01*
G01*
X121825000Y-132550000D01*
G75*
G02*
X121325000Y-132050000I0J500000D01*
G01*
G37*
%TD.AperFunction*%
%TO.P,K2,6*%
%TO.N,Net-(K1-Pad3)*%
%TA.AperFunction,ComponentPad*%
G36*
G01*
X121325000Y-127000000D02*
X121325000Y-125000000D01*
G75*
G02*
X121825000Y-124500000I500000J0D01*
G01*
X122825000Y-124500000D01*
G75*
G02*
X123325000Y-125000000I0J-500000D01*
G01*
X123325000Y-127000000D01*
G75*
G02*
X122825000Y-127500000I-500000J0D01*
G01*
X121825000Y-127500000D01*
G75*
G02*
X121325000Y-127000000I0J500000D01*
G01*
G37*
%TD.AperFunction*%
%TO.P,K2,7*%
%TO.N,Net-(K1-Pad4)*%
%TA.AperFunction,ComponentPad*%
G36*
G01*
X121325000Y-121950000D02*
X121325000Y-119950000D01*
G75*
G02*
X121825000Y-119450000I500000J0D01*
G01*
X122825000Y-119450000D01*
G75*
G02*
X123325000Y-119950000I0J-500000D01*
G01*
X123325000Y-121950000D01*
G75*
G02*
X122825000Y-122450000I-500000J0D01*
G01*
X121825000Y-122450000D01*
G75*
G02*
X121325000Y-121950000I0J500000D01*
G01*
G37*
%TD.AperFunction*%
%TO.P,K2,9*%
%TO.N,Net-(K1-Pad5)*%
%TA.AperFunction,ComponentPad*%
G36*
G01*
X118525000Y-127000000D02*
X118525000Y-125000000D01*
G75*
G02*
X119025000Y-124500000I500000J0D01*
G01*
X120025000Y-124500000D01*
G75*
G02*
X120525000Y-125000000I0J-500000D01*
G01*
X120525000Y-127000000D01*
G75*
G02*
X120025000Y-127500000I-500000J0D01*
G01*
X119025000Y-127500000D01*
G75*
G02*
X118525000Y-127000000I0J500000D01*
G01*
G37*
%TD.AperFunction*%
%TO.P,K2,4*%
%TO.N,Net-(K1-Pad2)*%
%TA.AperFunction,ComponentPad*%
G36*
G01*
X104875000Y-132250000D02*
X104875000Y-131250000D01*
G75*
G02*
X105375000Y-130750000I500000J0D01*
G01*
X106875000Y-130750000D01*
G75*
G02*
X107375000Y-131250000I0J-500000D01*
G01*
X107375000Y-132250000D01*
G75*
G02*
X106875000Y-132750000I-500000J0D01*
G01*
X105375000Y-132750000D01*
G75*
G02*
X104875000Y-132250000I0J500000D01*
G01*
G37*
%TD.AperFunction*%
%TO.P,K2,1*%
%TO.N,Net-(K1-Pad1)*%
%TA.AperFunction,ComponentPad*%
G36*
G01*
X104875000Y-120750000D02*
X104875000Y-119750000D01*
G75*
G02*
X105375000Y-119250000I500000J0D01*
G01*
X106875000Y-119250000D01*
G75*
G02*
X107375000Y-119750000I0J-500000D01*
G01*
X107375000Y-120750000D01*
G75*
G02*
X106875000Y-121250000I-500000J0D01*
G01*
X105375000Y-121250000D01*
G75*
G02*
X104875000Y-120750000I0J500000D01*
G01*
G37*
%TD.AperFunction*%
%TD*%
%TO.P,K2,10*%
%TO.N,Net-(K1-Pad6)*%
%TA.AperFunction,ComponentPad*%
G36*
G01*
X94325000Y-132050000D02*
X94325000Y-130050000D01*
G75*
G02*
X94825000Y-129550000I500000J0D01*
G01*
X95825000Y-129550000D01*
G75*
G02*
X96325000Y-130050000I0J-500000D01*
G01*
X96325000Y-132050000D01*
G75*
G02*
X95825000Y-132550000I-500000J0D01*
G01*
X94825000Y-132550000D01*
G75*
G02*
X94325000Y-132050000I0J500000D01*
G01*
G37*
%TD.AperFunction*%
%TO.P,K2,6*%
%TO.N,Net-(K1-Pad3)*%
%TA.AperFunction,ComponentPad*%
G36*
G01*
X94325000Y-127000000D02*
X94325000Y-125000000D01*
G75*
G02*
X94825000Y-124500000I500000J0D01*
G01*
X95825000Y-124500000D01*
G75*
G02*
X96325000Y-125000000I0J-500000D01*
G01*
X96325000Y-127000000D01*
G75*
G02*
X95825000Y-127500000I-500000J0D01*
G01*
X94825000Y-127500000D01*
G75*
G02*
X94325000Y-127000000I0J500000D01*
G01*
G37*
%TD.AperFunction*%
%TO.P,K2,7*%
%TO.N,Net-(K1-Pad4)*%
%TA.AperFunction,ComponentPad*%
G36*
G01*
X94325000Y-121950000D02*
X94325000Y-119950000D01*
G75*
G02*
X94825000Y-119450000I500000J0D01*
G01*
X95825000Y-119450000D01*
G75*
G02*
X96325000Y-119950000I0J-500000D01*
G01*
X96325000Y-121950000D01*
G75*
G02*
X95825000Y-122450000I-500000J0D01*
G01*
X94825000Y-122450000D01*
G75*
G02*
X94325000Y-121950000I0J500000D01*
G01*
G37*
%TD.AperFunction*%
%TO.P,K2,9*%
%TO.N,Net-(K1-Pad5)*%
%TA.AperFunction,ComponentPad*%
G36*
G01*
X91525000Y-127000000D02*
X91525000Y-125000000D01*
G75*
G02*
X92025000Y-124500000I500000J0D01*
G01*
X93025000Y-124500000D01*
G75*
G02*
X93525000Y-125000000I0J-500000D01*
G01*
X93525000Y-127000000D01*
G75*
G02*
X93025000Y-127500000I-500000J0D01*
G01*
X92025000Y-127500000D01*
G75*
G02*
X91525000Y-127000000I0J500000D01*
G01*
G37*
%TD.AperFunction*%
%TO.P,K2,4*%
%TO.N,Net-(K1-Pad2)*%
%TA.AperFunction,ComponentPad*%
G36*
G01*
X77875000Y-132250000D02*
X77875000Y-131250000D01*
G75*
G02*
X78375000Y-130750000I500000J0D01*
G01*
X79875000Y-130750000D01*
G75*
G02*
X80375000Y-131250000I0J-500000D01*
G01*
X80375000Y-132250000D01*
G75*
G02*
X79875000Y-132750000I-500000J0D01*
G01*
X78375000Y-132750000D01*
G75*
G02*
X77875000Y-132250000I0J500000D01*
G01*
G37*
%TD.AperFunction*%
%TO.P,K2,1*%
%TO.N,Net-(K1-Pad1)*%
%TA.AperFunction,ComponentPad*%
G36*
G01*
X77875000Y-120750000D02*
X77875000Y-119750000D01*
G75*
G02*
X78375000Y-119250000I500000J0D01*
G01*
X79875000Y-119250000D01*
G75*
G02*
X80375000Y-119750000I0J-500000D01*
G01*
X80375000Y-120750000D01*
G75*
G02*
X79875000Y-121250000I-500000J0D01*
G01*
X78375000Y-121250000D01*
G75*
G02*
X77875000Y-120750000I0J500000D01*
G01*
G37*
%TD.AperFunction*%
%TD*%
%TO.P,K2,10*%
%TO.N,Net-(K1-Pad6)*%
%TA.AperFunction,ComponentPad*%
G36*
G01*
X67325000Y-132050000D02*
X67325000Y-130050000D01*
G75*
G02*
X67825000Y-129550000I500000J0D01*
G01*
X68825000Y-129550000D01*
G75*
G02*
X69325000Y-130050000I0J-500000D01*
G01*
X69325000Y-132050000D01*
G75*
G02*
X68825000Y-132550000I-500000J0D01*
G01*
X67825000Y-132550000D01*
G75*
G02*
X67325000Y-132050000I0J500000D01*
G01*
G37*
%TD.AperFunction*%
%TO.P,K2,6*%
%TO.N,Net-(K1-Pad3)*%
%TA.AperFunction,ComponentPad*%
G36*
G01*
X67325000Y-127000000D02*
X67325000Y-125000000D01*
G75*
G02*
X67825000Y-124500000I500000J0D01*
G01*
X68825000Y-124500000D01*
G75*
G02*
X69325000Y-125000000I0J-500000D01*
G01*
X69325000Y-127000000D01*
G75*
G02*
X68825000Y-127500000I-500000J0D01*
G01*
X67825000Y-127500000D01*
G75*
G02*
X67325000Y-127000000I0J500000D01*
G01*
G37*
%TD.AperFunction*%
%TO.P,K2,7*%
%TO.N,Net-(K1-Pad4)*%
%TA.AperFunction,ComponentPad*%
G36*
G01*
X67325000Y-121950000D02*
X67325000Y-119950000D01*
G75*
G02*
X67825000Y-119450000I500000J0D01*
G01*
X68825000Y-119450000D01*
G75*
G02*
X69325000Y-119950000I0J-500000D01*
G01*
X69325000Y-121950000D01*
G75*
G02*
X68825000Y-122450000I-500000J0D01*
G01*
X67825000Y-122450000D01*
G75*
G02*
X67325000Y-121950000I0J500000D01*
G01*
G37*
%TD.AperFunction*%
%TO.P,K2,9*%
%TO.N,Net-(K1-Pad5)*%
%TA.AperFunction,ComponentPad*%
G36*
G01*
X64525000Y-127000000D02*
X64525000Y-125000000D01*
G75*
G02*
X65025000Y-124500000I500000J0D01*
G01*
X66025000Y-124500000D01*
G75*
G02*
X66525000Y-125000000I0J-500000D01*
G01*
X66525000Y-127000000D01*
G75*
G02*
X66025000Y-127500000I-500000J0D01*
G01*
X65025000Y-127500000D01*
G75*
G02*
X64525000Y-127000000I0J500000D01*
G01*
G37*
%TD.AperFunction*%
%TO.P,K2,4*%
%TO.N,Net-(K1-Pad2)*%
%TA.AperFunction,ComponentPad*%
G36*
G01*
X50875000Y-132250000D02*
X50875000Y-131250000D01*
G75*
G02*
X51375000Y-130750000I500000J0D01*
G01*
X52875000Y-130750000D01*
G75*
G02*
X53375000Y-131250000I0J-500000D01*
G01*
X53375000Y-132250000D01*
G75*
G02*
X52875000Y-132750000I-500000J0D01*
G01*
X51375000Y-132750000D01*
G75*
G02*
X50875000Y-132250000I0J500000D01*
G01*
G37*
%TD.AperFunction*%
%TO.P,K2,1*%
%TO.N,Net-(K1-Pad1)*%
%TA.AperFunction,ComponentPad*%
G36*
G01*
X50875000Y-120750000D02*
X50875000Y-119750000D01*
G75*
G02*
X51375000Y-119250000I500000J0D01*
G01*
X52875000Y-119250000D01*
G75*
G02*
X53375000Y-119750000I0J-500000D01*
G01*
X53375000Y-120750000D01*
G75*
G02*
X52875000Y-121250000I-500000J0D01*
G01*
X51375000Y-121250000D01*
G75*
G02*
X50875000Y-120750000I0J500000D01*
G01*
G37*
%TD.AperFunction*%
%TD*%
%TO.P,K2,10*%
%TO.N,Net-(K1-Pad6)*%
%TA.AperFunction,ComponentPad*%
G36*
G01*
X121325000Y-116050000D02*
X121325000Y-114050000D01*
G75*
G02*
X121825000Y-113550000I500000J0D01*
G01*
X122825000Y-113550000D01*
G75*
G02*
X123325000Y-114050000I0J-500000D01*
G01*
X123325000Y-116050000D01*
G75*
G02*
X122825000Y-116550000I-500000J0D01*
G01*
X121825000Y-116550000D01*
G75*
G02*
X121325000Y-116050000I0J500000D01*
G01*
G37*
%TD.AperFunction*%
%TO.P,K2,6*%
%TO.N,Net-(K1-Pad3)*%
%TA.AperFunction,ComponentPad*%
G36*
G01*
X121325000Y-111000000D02*
X121325000Y-109000000D01*
G75*
G02*
X121825000Y-108500000I500000J0D01*
G01*
X122825000Y-108500000D01*
G75*
G02*
X123325000Y-109000000I0J-500000D01*
G01*
X123325000Y-111000000D01*
G75*
G02*
X122825000Y-111500000I-500000J0D01*
G01*
X121825000Y-111500000D01*
G75*
G02*
X121325000Y-111000000I0J500000D01*
G01*
G37*
%TD.AperFunction*%
%TO.P,K2,7*%
%TO.N,Net-(K1-Pad4)*%
%TA.AperFunction,ComponentPad*%
G36*
G01*
X121325000Y-105950000D02*
X121325000Y-103950000D01*
G75*
G02*
X121825000Y-103450000I500000J0D01*
G01*
X122825000Y-103450000D01*
G75*
G02*
X123325000Y-103950000I0J-500000D01*
G01*
X123325000Y-105950000D01*
G75*
G02*
X122825000Y-106450000I-500000J0D01*
G01*
X121825000Y-106450000D01*
G75*
G02*
X121325000Y-105950000I0J500000D01*
G01*
G37*
%TD.AperFunction*%
%TO.P,K2,9*%
%TO.N,Net-(K1-Pad5)*%
%TA.AperFunction,ComponentPad*%
G36*
G01*
X118525000Y-111000000D02*
X118525000Y-109000000D01*
G75*
G02*
X119025000Y-108500000I500000J0D01*
G01*
X120025000Y-108500000D01*
G75*
G02*
X120525000Y-109000000I0J-500000D01*
G01*
X120525000Y-111000000D01*
G75*
G02*
X120025000Y-111500000I-500000J0D01*
G01*
X119025000Y-111500000D01*
G75*
G02*
X118525000Y-111000000I0J500000D01*
G01*
G37*
%TD.AperFunction*%
%TO.P,K2,4*%
%TO.N,Net-(K1-Pad2)*%
%TA.AperFunction,ComponentPad*%
G36*
G01*
X104875000Y-116250000D02*
X104875000Y-115250000D01*
G75*
G02*
X105375000Y-114750000I500000J0D01*
G01*
X106875000Y-114750000D01*
G75*
G02*
X107375000Y-115250000I0J-500000D01*
G01*
X107375000Y-116250000D01*
G75*
G02*
X106875000Y-116750000I-500000J0D01*
G01*
X105375000Y-116750000D01*
G75*
G02*
X104875000Y-116250000I0J500000D01*
G01*
G37*
%TD.AperFunction*%
%TO.P,K2,1*%
%TO.N,Net-(K1-Pad1)*%
%TA.AperFunction,ComponentPad*%
G36*
G01*
X104875000Y-104750000D02*
X104875000Y-103750000D01*
G75*
G02*
X105375000Y-103250000I500000J0D01*
G01*
X106875000Y-103250000D01*
G75*
G02*
X107375000Y-103750000I0J-500000D01*
G01*
X107375000Y-104750000D01*
G75*
G02*
X106875000Y-105250000I-500000J0D01*
G01*
X105375000Y-105250000D01*
G75*
G02*
X104875000Y-104750000I0J500000D01*
G01*
G37*
%TD.AperFunction*%
%TD*%
%TO.P,K2,10*%
%TO.N,Net-(K1-Pad6)*%
%TA.AperFunction,ComponentPad*%
G36*
G01*
X94325000Y-116050000D02*
X94325000Y-114050000D01*
G75*
G02*
X94825000Y-113550000I500000J0D01*
G01*
X95825000Y-113550000D01*
G75*
G02*
X96325000Y-114050000I0J-500000D01*
G01*
X96325000Y-116050000D01*
G75*
G02*
X95825000Y-116550000I-500000J0D01*
G01*
X94825000Y-116550000D01*
G75*
G02*
X94325000Y-116050000I0J500000D01*
G01*
G37*
%TD.AperFunction*%
%TO.P,K2,6*%
%TO.N,Net-(K1-Pad3)*%
%TA.AperFunction,ComponentPad*%
G36*
G01*
X94325000Y-111000000D02*
X94325000Y-109000000D01*
G75*
G02*
X94825000Y-108500000I500000J0D01*
G01*
X95825000Y-108500000D01*
G75*
G02*
X96325000Y-109000000I0J-500000D01*
G01*
X96325000Y-111000000D01*
G75*
G02*
X95825000Y-111500000I-500000J0D01*
G01*
X94825000Y-111500000D01*
G75*
G02*
X94325000Y-111000000I0J500000D01*
G01*
G37*
%TD.AperFunction*%
%TO.P,K2,7*%
%TO.N,Net-(K1-Pad4)*%
%TA.AperFunction,ComponentPad*%
G36*
G01*
X94325000Y-105950000D02*
X94325000Y-103950000D01*
G75*
G02*
X94825000Y-103450000I500000J0D01*
G01*
X95825000Y-103450000D01*
G75*
G02*
X96325000Y-103950000I0J-500000D01*
G01*
X96325000Y-105950000D01*
G75*
G02*
X95825000Y-106450000I-500000J0D01*
G01*
X94825000Y-106450000D01*
G75*
G02*
X94325000Y-105950000I0J500000D01*
G01*
G37*
%TD.AperFunction*%
%TO.P,K2,9*%
%TO.N,Net-(K1-Pad5)*%
%TA.AperFunction,ComponentPad*%
G36*
G01*
X91525000Y-111000000D02*
X91525000Y-109000000D01*
G75*
G02*
X92025000Y-108500000I500000J0D01*
G01*
X93025000Y-108500000D01*
G75*
G02*
X93525000Y-109000000I0J-500000D01*
G01*
X93525000Y-111000000D01*
G75*
G02*
X93025000Y-111500000I-500000J0D01*
G01*
X92025000Y-111500000D01*
G75*
G02*
X91525000Y-111000000I0J500000D01*
G01*
G37*
%TD.AperFunction*%
%TO.P,K2,4*%
%TO.N,Net-(K1-Pad2)*%
%TA.AperFunction,ComponentPad*%
G36*
G01*
X77875000Y-116250000D02*
X77875000Y-115250000D01*
G75*
G02*
X78375000Y-114750000I500000J0D01*
G01*
X79875000Y-114750000D01*
G75*
G02*
X80375000Y-115250000I0J-500000D01*
G01*
X80375000Y-116250000D01*
G75*
G02*
X79875000Y-116750000I-500000J0D01*
G01*
X78375000Y-116750000D01*
G75*
G02*
X77875000Y-116250000I0J500000D01*
G01*
G37*
%TD.AperFunction*%
%TO.P,K2,1*%
%TO.N,Net-(K1-Pad1)*%
%TA.AperFunction,ComponentPad*%
G36*
G01*
X77875000Y-104750000D02*
X77875000Y-103750000D01*
G75*
G02*
X78375000Y-103250000I500000J0D01*
G01*
X79875000Y-103250000D01*
G75*
G02*
X80375000Y-103750000I0J-500000D01*
G01*
X80375000Y-104750000D01*
G75*
G02*
X79875000Y-105250000I-500000J0D01*
G01*
X78375000Y-105250000D01*
G75*
G02*
X77875000Y-104750000I0J500000D01*
G01*
G37*
%TD.AperFunction*%
%TD*%
%TO.P,K2,10*%
%TO.N,Net-(K1-Pad6)*%
%TA.AperFunction,ComponentPad*%
G36*
G01*
X67325000Y-116050000D02*
X67325000Y-114050000D01*
G75*
G02*
X67825000Y-113550000I500000J0D01*
G01*
X68825000Y-113550000D01*
G75*
G02*
X69325000Y-114050000I0J-500000D01*
G01*
X69325000Y-116050000D01*
G75*
G02*
X68825000Y-116550000I-500000J0D01*
G01*
X67825000Y-116550000D01*
G75*
G02*
X67325000Y-116050000I0J500000D01*
G01*
G37*
%TD.AperFunction*%
%TO.P,K2,6*%
%TO.N,Net-(K1-Pad3)*%
%TA.AperFunction,ComponentPad*%
G36*
G01*
X67325000Y-111000000D02*
X67325000Y-109000000D01*
G75*
G02*
X67825000Y-108500000I500000J0D01*
G01*
X68825000Y-108500000D01*
G75*
G02*
X69325000Y-109000000I0J-500000D01*
G01*
X69325000Y-111000000D01*
G75*
G02*
X68825000Y-111500000I-500000J0D01*
G01*
X67825000Y-111500000D01*
G75*
G02*
X67325000Y-111000000I0J500000D01*
G01*
G37*
%TD.AperFunction*%
%TO.P,K2,7*%
%TO.N,Net-(K1-Pad4)*%
%TA.AperFunction,ComponentPad*%
G36*
G01*
X67325000Y-105950000D02*
X67325000Y-103950000D01*
G75*
G02*
X67825000Y-103450000I500000J0D01*
G01*
X68825000Y-103450000D01*
G75*
G02*
X69325000Y-103950000I0J-500000D01*
G01*
X69325000Y-105950000D01*
G75*
G02*
X68825000Y-106450000I-500000J0D01*
G01*
X67825000Y-106450000D01*
G75*
G02*
X67325000Y-105950000I0J500000D01*
G01*
G37*
%TD.AperFunction*%
%TO.P,K2,9*%
%TO.N,Net-(K1-Pad5)*%
%TA.AperFunction,ComponentPad*%
G36*
G01*
X64525000Y-111000000D02*
X64525000Y-109000000D01*
G75*
G02*
X65025000Y-108500000I500000J0D01*
G01*
X66025000Y-108500000D01*
G75*
G02*
X66525000Y-109000000I0J-500000D01*
G01*
X66525000Y-111000000D01*
G75*
G02*
X66025000Y-111500000I-500000J0D01*
G01*
X65025000Y-111500000D01*
G75*
G02*
X64525000Y-111000000I0J500000D01*
G01*
G37*
%TD.AperFunction*%
%TO.P,K2,4*%
%TO.N,Net-(K1-Pad2)*%
%TA.AperFunction,ComponentPad*%
G36*
G01*
X50875000Y-116250000D02*
X50875000Y-115250000D01*
G75*
G02*
X51375000Y-114750000I500000J0D01*
G01*
X52875000Y-114750000D01*
G75*
G02*
X53375000Y-115250000I0J-500000D01*
G01*
X53375000Y-116250000D01*
G75*
G02*
X52875000Y-116750000I-500000J0D01*
G01*
X51375000Y-116750000D01*
G75*
G02*
X50875000Y-116250000I0J500000D01*
G01*
G37*
%TD.AperFunction*%
%TO.P,K2,1*%
%TO.N,Net-(K1-Pad1)*%
%TA.AperFunction,ComponentPad*%
G36*
G01*
X50875000Y-104750000D02*
X50875000Y-103750000D01*
G75*
G02*
X51375000Y-103250000I500000J0D01*
G01*
X52875000Y-103250000D01*
G75*
G02*
X53375000Y-103750000I0J-500000D01*
G01*
X53375000Y-104750000D01*
G75*
G02*
X52875000Y-105250000I-500000J0D01*
G01*
X51375000Y-105250000D01*
G75*
G02*
X50875000Y-104750000I0J500000D01*
G01*
G37*
%TD.AperFunction*%
%TD*%
%TO.P,K2,10*%
%TO.N,Net-(K1-Pad6)*%
%TA.AperFunction,ComponentPad*%
G36*
G01*
X121325000Y-100050000D02*
X121325000Y-98050000D01*
G75*
G02*
X121825000Y-97550000I500000J0D01*
G01*
X122825000Y-97550000D01*
G75*
G02*
X123325000Y-98050000I0J-500000D01*
G01*
X123325000Y-100050000D01*
G75*
G02*
X122825000Y-100550000I-500000J0D01*
G01*
X121825000Y-100550000D01*
G75*
G02*
X121325000Y-100050000I0J500000D01*
G01*
G37*
%TD.AperFunction*%
%TO.P,K2,6*%
%TO.N,Net-(K1-Pad3)*%
%TA.AperFunction,ComponentPad*%
G36*
G01*
X121325000Y-95000000D02*
X121325000Y-93000000D01*
G75*
G02*
X121825000Y-92500000I500000J0D01*
G01*
X122825000Y-92500000D01*
G75*
G02*
X123325000Y-93000000I0J-500000D01*
G01*
X123325000Y-95000000D01*
G75*
G02*
X122825000Y-95500000I-500000J0D01*
G01*
X121825000Y-95500000D01*
G75*
G02*
X121325000Y-95000000I0J500000D01*
G01*
G37*
%TD.AperFunction*%
%TO.P,K2,7*%
%TO.N,Net-(K1-Pad4)*%
%TA.AperFunction,ComponentPad*%
G36*
G01*
X121325000Y-89950000D02*
X121325000Y-87950000D01*
G75*
G02*
X121825000Y-87450000I500000J0D01*
G01*
X122825000Y-87450000D01*
G75*
G02*
X123325000Y-87950000I0J-500000D01*
G01*
X123325000Y-89950000D01*
G75*
G02*
X122825000Y-90450000I-500000J0D01*
G01*
X121825000Y-90450000D01*
G75*
G02*
X121325000Y-89950000I0J500000D01*
G01*
G37*
%TD.AperFunction*%
%TO.P,K2,9*%
%TO.N,Net-(K1-Pad5)*%
%TA.AperFunction,ComponentPad*%
G36*
G01*
X118525000Y-95000000D02*
X118525000Y-93000000D01*
G75*
G02*
X119025000Y-92500000I500000J0D01*
G01*
X120025000Y-92500000D01*
G75*
G02*
X120525000Y-93000000I0J-500000D01*
G01*
X120525000Y-95000000D01*
G75*
G02*
X120025000Y-95500000I-500000J0D01*
G01*
X119025000Y-95500000D01*
G75*
G02*
X118525000Y-95000000I0J500000D01*
G01*
G37*
%TD.AperFunction*%
%TO.P,K2,4*%
%TO.N,Net-(K1-Pad2)*%
%TA.AperFunction,ComponentPad*%
G36*
G01*
X104875000Y-100250000D02*
X104875000Y-99250000D01*
G75*
G02*
X105375000Y-98750000I500000J0D01*
G01*
X106875000Y-98750000D01*
G75*
G02*
X107375000Y-99250000I0J-500000D01*
G01*
X107375000Y-100250000D01*
G75*
G02*
X106875000Y-100750000I-500000J0D01*
G01*
X105375000Y-100750000D01*
G75*
G02*
X104875000Y-100250000I0J500000D01*
G01*
G37*
%TD.AperFunction*%
%TO.P,K2,1*%
%TO.N,Net-(K1-Pad1)*%
%TA.AperFunction,ComponentPad*%
G36*
G01*
X104875000Y-88750000D02*
X104875000Y-87750000D01*
G75*
G02*
X105375000Y-87250000I500000J0D01*
G01*
X106875000Y-87250000D01*
G75*
G02*
X107375000Y-87750000I0J-500000D01*
G01*
X107375000Y-88750000D01*
G75*
G02*
X106875000Y-89250000I-500000J0D01*
G01*
X105375000Y-89250000D01*
G75*
G02*
X104875000Y-88750000I0J500000D01*
G01*
G37*
%TD.AperFunction*%
%TD*%
%TO.P,K2,10*%
%TO.N,Net-(K1-Pad6)*%
%TA.AperFunction,ComponentPad*%
G36*
G01*
X94325000Y-100050000D02*
X94325000Y-98050000D01*
G75*
G02*
X94825000Y-97550000I500000J0D01*
G01*
X95825000Y-97550000D01*
G75*
G02*
X96325000Y-98050000I0J-500000D01*
G01*
X96325000Y-100050000D01*
G75*
G02*
X95825000Y-100550000I-500000J0D01*
G01*
X94825000Y-100550000D01*
G75*
G02*
X94325000Y-100050000I0J500000D01*
G01*
G37*
%TD.AperFunction*%
%TO.P,K2,6*%
%TO.N,Net-(K1-Pad3)*%
%TA.AperFunction,ComponentPad*%
G36*
G01*
X94325000Y-95000000D02*
X94325000Y-93000000D01*
G75*
G02*
X94825000Y-92500000I500000J0D01*
G01*
X95825000Y-92500000D01*
G75*
G02*
X96325000Y-93000000I0J-500000D01*
G01*
X96325000Y-95000000D01*
G75*
G02*
X95825000Y-95500000I-500000J0D01*
G01*
X94825000Y-95500000D01*
G75*
G02*
X94325000Y-95000000I0J500000D01*
G01*
G37*
%TD.AperFunction*%
%TO.P,K2,7*%
%TO.N,Net-(K1-Pad4)*%
%TA.AperFunction,ComponentPad*%
G36*
G01*
X94325000Y-89950000D02*
X94325000Y-87950000D01*
G75*
G02*
X94825000Y-87450000I500000J0D01*
G01*
X95825000Y-87450000D01*
G75*
G02*
X96325000Y-87950000I0J-500000D01*
G01*
X96325000Y-89950000D01*
G75*
G02*
X95825000Y-90450000I-500000J0D01*
G01*
X94825000Y-90450000D01*
G75*
G02*
X94325000Y-89950000I0J500000D01*
G01*
G37*
%TD.AperFunction*%
%TO.P,K2,9*%
%TO.N,Net-(K1-Pad5)*%
%TA.AperFunction,ComponentPad*%
G36*
G01*
X91525000Y-95000000D02*
X91525000Y-93000000D01*
G75*
G02*
X92025000Y-92500000I500000J0D01*
G01*
X93025000Y-92500000D01*
G75*
G02*
X93525000Y-93000000I0J-500000D01*
G01*
X93525000Y-95000000D01*
G75*
G02*
X93025000Y-95500000I-500000J0D01*
G01*
X92025000Y-95500000D01*
G75*
G02*
X91525000Y-95000000I0J500000D01*
G01*
G37*
%TD.AperFunction*%
%TO.P,K2,4*%
%TO.N,Net-(K1-Pad2)*%
%TA.AperFunction,ComponentPad*%
G36*
G01*
X77875000Y-100250000D02*
X77875000Y-99250000D01*
G75*
G02*
X78375000Y-98750000I500000J0D01*
G01*
X79875000Y-98750000D01*
G75*
G02*
X80375000Y-99250000I0J-500000D01*
G01*
X80375000Y-100250000D01*
G75*
G02*
X79875000Y-100750000I-500000J0D01*
G01*
X78375000Y-100750000D01*
G75*
G02*
X77875000Y-100250000I0J500000D01*
G01*
G37*
%TD.AperFunction*%
%TO.P,K2,1*%
%TO.N,Net-(K1-Pad1)*%
%TA.AperFunction,ComponentPad*%
G36*
G01*
X77875000Y-88750000D02*
X77875000Y-87750000D01*
G75*
G02*
X78375000Y-87250000I500000J0D01*
G01*
X79875000Y-87250000D01*
G75*
G02*
X80375000Y-87750000I0J-500000D01*
G01*
X80375000Y-88750000D01*
G75*
G02*
X79875000Y-89250000I-500000J0D01*
G01*
X78375000Y-89250000D01*
G75*
G02*
X77875000Y-88750000I0J500000D01*
G01*
G37*
%TD.AperFunction*%
%TD*%
%TO.P,K2,10*%
%TO.N,Net-(K1-Pad6)*%
%TA.AperFunction,ComponentPad*%
G36*
G01*
X67325000Y-100050000D02*
X67325000Y-98050000D01*
G75*
G02*
X67825000Y-97550000I500000J0D01*
G01*
X68825000Y-97550000D01*
G75*
G02*
X69325000Y-98050000I0J-500000D01*
G01*
X69325000Y-100050000D01*
G75*
G02*
X68825000Y-100550000I-500000J0D01*
G01*
X67825000Y-100550000D01*
G75*
G02*
X67325000Y-100050000I0J500000D01*
G01*
G37*
%TD.AperFunction*%
%TO.P,K2,6*%
%TO.N,Net-(K1-Pad3)*%
%TA.AperFunction,ComponentPad*%
G36*
G01*
X67325000Y-95000000D02*
X67325000Y-93000000D01*
G75*
G02*
X67825000Y-92500000I500000J0D01*
G01*
X68825000Y-92500000D01*
G75*
G02*
X69325000Y-93000000I0J-500000D01*
G01*
X69325000Y-95000000D01*
G75*
G02*
X68825000Y-95500000I-500000J0D01*
G01*
X67825000Y-95500000D01*
G75*
G02*
X67325000Y-95000000I0J500000D01*
G01*
G37*
%TD.AperFunction*%
%TO.P,K2,7*%
%TO.N,Net-(K1-Pad4)*%
%TA.AperFunction,ComponentPad*%
G36*
G01*
X67325000Y-89950000D02*
X67325000Y-87950000D01*
G75*
G02*
X67825000Y-87450000I500000J0D01*
G01*
X68825000Y-87450000D01*
G75*
G02*
X69325000Y-87950000I0J-500000D01*
G01*
X69325000Y-89950000D01*
G75*
G02*
X68825000Y-90450000I-500000J0D01*
G01*
X67825000Y-90450000D01*
G75*
G02*
X67325000Y-89950000I0J500000D01*
G01*
G37*
%TD.AperFunction*%
%TO.P,K2,9*%
%TO.N,Net-(K1-Pad5)*%
%TA.AperFunction,ComponentPad*%
G36*
G01*
X64525000Y-95000000D02*
X64525000Y-93000000D01*
G75*
G02*
X65025000Y-92500000I500000J0D01*
G01*
X66025000Y-92500000D01*
G75*
G02*
X66525000Y-93000000I0J-500000D01*
G01*
X66525000Y-95000000D01*
G75*
G02*
X66025000Y-95500000I-500000J0D01*
G01*
X65025000Y-95500000D01*
G75*
G02*
X64525000Y-95000000I0J500000D01*
G01*
G37*
%TD.AperFunction*%
%TO.P,K2,4*%
%TO.N,Net-(K1-Pad2)*%
%TA.AperFunction,ComponentPad*%
G36*
G01*
X50875000Y-100250000D02*
X50875000Y-99250000D01*
G75*
G02*
X51375000Y-98750000I500000J0D01*
G01*
X52875000Y-98750000D01*
G75*
G02*
X53375000Y-99250000I0J-500000D01*
G01*
X53375000Y-100250000D01*
G75*
G02*
X52875000Y-100750000I-500000J0D01*
G01*
X51375000Y-100750000D01*
G75*
G02*
X50875000Y-100250000I0J500000D01*
G01*
G37*
%TD.AperFunction*%
%TO.P,K2,1*%
%TO.N,Net-(K1-Pad1)*%
%TA.AperFunction,ComponentPad*%
G36*
G01*
X50875000Y-88750000D02*
X50875000Y-87750000D01*
G75*
G02*
X51375000Y-87250000I500000J0D01*
G01*
X52875000Y-87250000D01*
G75*
G02*
X53375000Y-87750000I0J-500000D01*
G01*
X53375000Y-88750000D01*
G75*
G02*
X52875000Y-89250000I-500000J0D01*
G01*
X51375000Y-89250000D01*
G75*
G02*
X50875000Y-88750000I0J500000D01*
G01*
G37*
%TD.AperFunction*%
%TD*%
%TO.P,K2,10*%
%TO.N,Net-(K1-Pad6)*%
%TA.AperFunction,ComponentPad*%
G36*
G01*
X121325000Y-84050000D02*
X121325000Y-82050000D01*
G75*
G02*
X121825000Y-81550000I500000J0D01*
G01*
X122825000Y-81550000D01*
G75*
G02*
X123325000Y-82050000I0J-500000D01*
G01*
X123325000Y-84050000D01*
G75*
G02*
X122825000Y-84550000I-500000J0D01*
G01*
X121825000Y-84550000D01*
G75*
G02*
X121325000Y-84050000I0J500000D01*
G01*
G37*
%TD.AperFunction*%
%TO.P,K2,6*%
%TO.N,Net-(K1-Pad3)*%
%TA.AperFunction,ComponentPad*%
G36*
G01*
X121325000Y-79000000D02*
X121325000Y-77000000D01*
G75*
G02*
X121825000Y-76500000I500000J0D01*
G01*
X122825000Y-76500000D01*
G75*
G02*
X123325000Y-77000000I0J-500000D01*
G01*
X123325000Y-79000000D01*
G75*
G02*
X122825000Y-79500000I-500000J0D01*
G01*
X121825000Y-79500000D01*
G75*
G02*
X121325000Y-79000000I0J500000D01*
G01*
G37*
%TD.AperFunction*%
%TO.P,K2,7*%
%TO.N,Net-(K1-Pad4)*%
%TA.AperFunction,ComponentPad*%
G36*
G01*
X121325000Y-73950000D02*
X121325000Y-71950000D01*
G75*
G02*
X121825000Y-71450000I500000J0D01*
G01*
X122825000Y-71450000D01*
G75*
G02*
X123325000Y-71950000I0J-500000D01*
G01*
X123325000Y-73950000D01*
G75*
G02*
X122825000Y-74450000I-500000J0D01*
G01*
X121825000Y-74450000D01*
G75*
G02*
X121325000Y-73950000I0J500000D01*
G01*
G37*
%TD.AperFunction*%
%TO.P,K2,9*%
%TO.N,Net-(K1-Pad5)*%
%TA.AperFunction,ComponentPad*%
G36*
G01*
X118525000Y-79000000D02*
X118525000Y-77000000D01*
G75*
G02*
X119025000Y-76500000I500000J0D01*
G01*
X120025000Y-76500000D01*
G75*
G02*
X120525000Y-77000000I0J-500000D01*
G01*
X120525000Y-79000000D01*
G75*
G02*
X120025000Y-79500000I-500000J0D01*
G01*
X119025000Y-79500000D01*
G75*
G02*
X118525000Y-79000000I0J500000D01*
G01*
G37*
%TD.AperFunction*%
%TO.P,K2,4*%
%TO.N,Net-(K1-Pad2)*%
%TA.AperFunction,ComponentPad*%
G36*
G01*
X104875000Y-84250000D02*
X104875000Y-83250000D01*
G75*
G02*
X105375000Y-82750000I500000J0D01*
G01*
X106875000Y-82750000D01*
G75*
G02*
X107375000Y-83250000I0J-500000D01*
G01*
X107375000Y-84250000D01*
G75*
G02*
X106875000Y-84750000I-500000J0D01*
G01*
X105375000Y-84750000D01*
G75*
G02*
X104875000Y-84250000I0J500000D01*
G01*
G37*
%TD.AperFunction*%
%TO.P,K2,1*%
%TO.N,Net-(K1-Pad1)*%
%TA.AperFunction,ComponentPad*%
G36*
G01*
X104875000Y-72750000D02*
X104875000Y-71750000D01*
G75*
G02*
X105375000Y-71250000I500000J0D01*
G01*
X106875000Y-71250000D01*
G75*
G02*
X107375000Y-71750000I0J-500000D01*
G01*
X107375000Y-72750000D01*
G75*
G02*
X106875000Y-73250000I-500000J0D01*
G01*
X105375000Y-73250000D01*
G75*
G02*
X104875000Y-72750000I0J500000D01*
G01*
G37*
%TD.AperFunction*%
%TD*%
%TO.P,K2,10*%
%TO.N,Net-(K1-Pad6)*%
%TA.AperFunction,ComponentPad*%
G36*
G01*
X94325000Y-84050000D02*
X94325000Y-82050000D01*
G75*
G02*
X94825000Y-81550000I500000J0D01*
G01*
X95825000Y-81550000D01*
G75*
G02*
X96325000Y-82050000I0J-500000D01*
G01*
X96325000Y-84050000D01*
G75*
G02*
X95825000Y-84550000I-500000J0D01*
G01*
X94825000Y-84550000D01*
G75*
G02*
X94325000Y-84050000I0J500000D01*
G01*
G37*
%TD.AperFunction*%
%TO.P,K2,6*%
%TO.N,Net-(K1-Pad3)*%
%TA.AperFunction,ComponentPad*%
G36*
G01*
X94325000Y-79000000D02*
X94325000Y-77000000D01*
G75*
G02*
X94825000Y-76500000I500000J0D01*
G01*
X95825000Y-76500000D01*
G75*
G02*
X96325000Y-77000000I0J-500000D01*
G01*
X96325000Y-79000000D01*
G75*
G02*
X95825000Y-79500000I-500000J0D01*
G01*
X94825000Y-79500000D01*
G75*
G02*
X94325000Y-79000000I0J500000D01*
G01*
G37*
%TD.AperFunction*%
%TO.P,K2,7*%
%TO.N,Net-(K1-Pad4)*%
%TA.AperFunction,ComponentPad*%
G36*
G01*
X94325000Y-73950000D02*
X94325000Y-71950000D01*
G75*
G02*
X94825000Y-71450000I500000J0D01*
G01*
X95825000Y-71450000D01*
G75*
G02*
X96325000Y-71950000I0J-500000D01*
G01*
X96325000Y-73950000D01*
G75*
G02*
X95825000Y-74450000I-500000J0D01*
G01*
X94825000Y-74450000D01*
G75*
G02*
X94325000Y-73950000I0J500000D01*
G01*
G37*
%TD.AperFunction*%
%TO.P,K2,9*%
%TO.N,Net-(K1-Pad5)*%
%TA.AperFunction,ComponentPad*%
G36*
G01*
X91525000Y-79000000D02*
X91525000Y-77000000D01*
G75*
G02*
X92025000Y-76500000I500000J0D01*
G01*
X93025000Y-76500000D01*
G75*
G02*
X93525000Y-77000000I0J-500000D01*
G01*
X93525000Y-79000000D01*
G75*
G02*
X93025000Y-79500000I-500000J0D01*
G01*
X92025000Y-79500000D01*
G75*
G02*
X91525000Y-79000000I0J500000D01*
G01*
G37*
%TD.AperFunction*%
%TO.P,K2,4*%
%TO.N,Net-(K1-Pad2)*%
%TA.AperFunction,ComponentPad*%
G36*
G01*
X77875000Y-84250000D02*
X77875000Y-83250000D01*
G75*
G02*
X78375000Y-82750000I500000J0D01*
G01*
X79875000Y-82750000D01*
G75*
G02*
X80375000Y-83250000I0J-500000D01*
G01*
X80375000Y-84250000D01*
G75*
G02*
X79875000Y-84750000I-500000J0D01*
G01*
X78375000Y-84750000D01*
G75*
G02*
X77875000Y-84250000I0J500000D01*
G01*
G37*
%TD.AperFunction*%
%TO.P,K2,1*%
%TO.N,Net-(K1-Pad1)*%
%TA.AperFunction,ComponentPad*%
G36*
G01*
X77875000Y-72750000D02*
X77875000Y-71750000D01*
G75*
G02*
X78375000Y-71250000I500000J0D01*
G01*
X79875000Y-71250000D01*
G75*
G02*
X80375000Y-71750000I0J-500000D01*
G01*
X80375000Y-72750000D01*
G75*
G02*
X79875000Y-73250000I-500000J0D01*
G01*
X78375000Y-73250000D01*
G75*
G02*
X77875000Y-72750000I0J500000D01*
G01*
G37*
%TD.AperFunction*%
%TD*%
%TO.P,K2,10*%
%TO.N,Net-(K1-Pad6)*%
%TA.AperFunction,ComponentPad*%
G36*
G01*
X67325000Y-84050000D02*
X67325000Y-82050000D01*
G75*
G02*
X67825000Y-81550000I500000J0D01*
G01*
X68825000Y-81550000D01*
G75*
G02*
X69325000Y-82050000I0J-500000D01*
G01*
X69325000Y-84050000D01*
G75*
G02*
X68825000Y-84550000I-500000J0D01*
G01*
X67825000Y-84550000D01*
G75*
G02*
X67325000Y-84050000I0J500000D01*
G01*
G37*
%TD.AperFunction*%
%TO.P,K2,6*%
%TO.N,Net-(K1-Pad3)*%
%TA.AperFunction,ComponentPad*%
G36*
G01*
X67325000Y-79000000D02*
X67325000Y-77000000D01*
G75*
G02*
X67825000Y-76500000I500000J0D01*
G01*
X68825000Y-76500000D01*
G75*
G02*
X69325000Y-77000000I0J-500000D01*
G01*
X69325000Y-79000000D01*
G75*
G02*
X68825000Y-79500000I-500000J0D01*
G01*
X67825000Y-79500000D01*
G75*
G02*
X67325000Y-79000000I0J500000D01*
G01*
G37*
%TD.AperFunction*%
%TO.P,K2,7*%
%TO.N,Net-(K1-Pad4)*%
%TA.AperFunction,ComponentPad*%
G36*
G01*
X67325000Y-73950000D02*
X67325000Y-71950000D01*
G75*
G02*
X67825000Y-71450000I500000J0D01*
G01*
X68825000Y-71450000D01*
G75*
G02*
X69325000Y-71950000I0J-500000D01*
G01*
X69325000Y-73950000D01*
G75*
G02*
X68825000Y-74450000I-500000J0D01*
G01*
X67825000Y-74450000D01*
G75*
G02*
X67325000Y-73950000I0J500000D01*
G01*
G37*
%TD.AperFunction*%
%TO.P,K2,9*%
%TO.N,Net-(K1-Pad5)*%
%TA.AperFunction,ComponentPad*%
G36*
G01*
X64525000Y-79000000D02*
X64525000Y-77000000D01*
G75*
G02*
X65025000Y-76500000I500000J0D01*
G01*
X66025000Y-76500000D01*
G75*
G02*
X66525000Y-77000000I0J-500000D01*
G01*
X66525000Y-79000000D01*
G75*
G02*
X66025000Y-79500000I-500000J0D01*
G01*
X65025000Y-79500000D01*
G75*
G02*
X64525000Y-79000000I0J500000D01*
G01*
G37*
%TD.AperFunction*%
%TO.P,K2,4*%
%TO.N,Net-(K1-Pad2)*%
%TA.AperFunction,ComponentPad*%
G36*
G01*
X50875000Y-84250000D02*
X50875000Y-83250000D01*
G75*
G02*
X51375000Y-82750000I500000J0D01*
G01*
X52875000Y-82750000D01*
G75*
G02*
X53375000Y-83250000I0J-500000D01*
G01*
X53375000Y-84250000D01*
G75*
G02*
X52875000Y-84750000I-500000J0D01*
G01*
X51375000Y-84750000D01*
G75*
G02*
X50875000Y-84250000I0J500000D01*
G01*
G37*
%TD.AperFunction*%
%TO.P,K2,1*%
%TO.N,Net-(K1-Pad1)*%
%TA.AperFunction,ComponentPad*%
G36*
G01*
X50875000Y-72750000D02*
X50875000Y-71750000D01*
G75*
G02*
X51375000Y-71250000I500000J0D01*
G01*
X52875000Y-71250000D01*
G75*
G02*
X53375000Y-71750000I0J-500000D01*
G01*
X53375000Y-72750000D01*
G75*
G02*
X52875000Y-73250000I-500000J0D01*
G01*
X51375000Y-73250000D01*
G75*
G02*
X50875000Y-72750000I0J500000D01*
G01*
G37*
%TD.AperFunction*%
%TD*%
%TO.P,K2,10*%
%TO.N,Net-(K1-Pad6)*%
%TA.AperFunction,ComponentPad*%
G36*
G01*
X121325000Y-68050000D02*
X121325000Y-66050000D01*
G75*
G02*
X121825000Y-65550000I500000J0D01*
G01*
X122825000Y-65550000D01*
G75*
G02*
X123325000Y-66050000I0J-500000D01*
G01*
X123325000Y-68050000D01*
G75*
G02*
X122825000Y-68550000I-500000J0D01*
G01*
X121825000Y-68550000D01*
G75*
G02*
X121325000Y-68050000I0J500000D01*
G01*
G37*
%TD.AperFunction*%
%TO.P,K2,6*%
%TO.N,Net-(K1-Pad3)*%
%TA.AperFunction,ComponentPad*%
G36*
G01*
X121325000Y-63000000D02*
X121325000Y-61000000D01*
G75*
G02*
X121825000Y-60500000I500000J0D01*
G01*
X122825000Y-60500000D01*
G75*
G02*
X123325000Y-61000000I0J-500000D01*
G01*
X123325000Y-63000000D01*
G75*
G02*
X122825000Y-63500000I-500000J0D01*
G01*
X121825000Y-63500000D01*
G75*
G02*
X121325000Y-63000000I0J500000D01*
G01*
G37*
%TD.AperFunction*%
%TO.P,K2,7*%
%TO.N,Net-(K1-Pad4)*%
%TA.AperFunction,ComponentPad*%
G36*
G01*
X121325000Y-57950000D02*
X121325000Y-55950000D01*
G75*
G02*
X121825000Y-55450000I500000J0D01*
G01*
X122825000Y-55450000D01*
G75*
G02*
X123325000Y-55950000I0J-500000D01*
G01*
X123325000Y-57950000D01*
G75*
G02*
X122825000Y-58450000I-500000J0D01*
G01*
X121825000Y-58450000D01*
G75*
G02*
X121325000Y-57950000I0J500000D01*
G01*
G37*
%TD.AperFunction*%
%TO.P,K2,9*%
%TO.N,Net-(K1-Pad5)*%
%TA.AperFunction,ComponentPad*%
G36*
G01*
X118525000Y-63000000D02*
X118525000Y-61000000D01*
G75*
G02*
X119025000Y-60500000I500000J0D01*
G01*
X120025000Y-60500000D01*
G75*
G02*
X120525000Y-61000000I0J-500000D01*
G01*
X120525000Y-63000000D01*
G75*
G02*
X120025000Y-63500000I-500000J0D01*
G01*
X119025000Y-63500000D01*
G75*
G02*
X118525000Y-63000000I0J500000D01*
G01*
G37*
%TD.AperFunction*%
%TO.P,K2,4*%
%TO.N,Net-(K1-Pad2)*%
%TA.AperFunction,ComponentPad*%
G36*
G01*
X104875000Y-68250000D02*
X104875000Y-67250000D01*
G75*
G02*
X105375000Y-66750000I500000J0D01*
G01*
X106875000Y-66750000D01*
G75*
G02*
X107375000Y-67250000I0J-500000D01*
G01*
X107375000Y-68250000D01*
G75*
G02*
X106875000Y-68750000I-500000J0D01*
G01*
X105375000Y-68750000D01*
G75*
G02*
X104875000Y-68250000I0J500000D01*
G01*
G37*
%TD.AperFunction*%
%TO.P,K2,1*%
%TO.N,Net-(K1-Pad1)*%
%TA.AperFunction,ComponentPad*%
G36*
G01*
X104875000Y-56750000D02*
X104875000Y-55750000D01*
G75*
G02*
X105375000Y-55250000I500000J0D01*
G01*
X106875000Y-55250000D01*
G75*
G02*
X107375000Y-55750000I0J-500000D01*
G01*
X107375000Y-56750000D01*
G75*
G02*
X106875000Y-57250000I-500000J0D01*
G01*
X105375000Y-57250000D01*
G75*
G02*
X104875000Y-56750000I0J500000D01*
G01*
G37*
%TD.AperFunction*%
%TD*%
%TO.P,K2,10*%
%TO.N,Net-(K1-Pad6)*%
%TA.AperFunction,ComponentPad*%
G36*
G01*
X94325000Y-68050000D02*
X94325000Y-66050000D01*
G75*
G02*
X94825000Y-65550000I500000J0D01*
G01*
X95825000Y-65550000D01*
G75*
G02*
X96325000Y-66050000I0J-500000D01*
G01*
X96325000Y-68050000D01*
G75*
G02*
X95825000Y-68550000I-500000J0D01*
G01*
X94825000Y-68550000D01*
G75*
G02*
X94325000Y-68050000I0J500000D01*
G01*
G37*
%TD.AperFunction*%
%TO.P,K2,6*%
%TO.N,Net-(K1-Pad3)*%
%TA.AperFunction,ComponentPad*%
G36*
G01*
X94325000Y-63000000D02*
X94325000Y-61000000D01*
G75*
G02*
X94825000Y-60500000I500000J0D01*
G01*
X95825000Y-60500000D01*
G75*
G02*
X96325000Y-61000000I0J-500000D01*
G01*
X96325000Y-63000000D01*
G75*
G02*
X95825000Y-63500000I-500000J0D01*
G01*
X94825000Y-63500000D01*
G75*
G02*
X94325000Y-63000000I0J500000D01*
G01*
G37*
%TD.AperFunction*%
%TO.P,K2,7*%
%TO.N,Net-(K1-Pad4)*%
%TA.AperFunction,ComponentPad*%
G36*
G01*
X94325000Y-57950000D02*
X94325000Y-55950000D01*
G75*
G02*
X94825000Y-55450000I500000J0D01*
G01*
X95825000Y-55450000D01*
G75*
G02*
X96325000Y-55950000I0J-500000D01*
G01*
X96325000Y-57950000D01*
G75*
G02*
X95825000Y-58450000I-500000J0D01*
G01*
X94825000Y-58450000D01*
G75*
G02*
X94325000Y-57950000I0J500000D01*
G01*
G37*
%TD.AperFunction*%
%TO.P,K2,9*%
%TO.N,Net-(K1-Pad5)*%
%TA.AperFunction,ComponentPad*%
G36*
G01*
X91525000Y-63000000D02*
X91525000Y-61000000D01*
G75*
G02*
X92025000Y-60500000I500000J0D01*
G01*
X93025000Y-60500000D01*
G75*
G02*
X93525000Y-61000000I0J-500000D01*
G01*
X93525000Y-63000000D01*
G75*
G02*
X93025000Y-63500000I-500000J0D01*
G01*
X92025000Y-63500000D01*
G75*
G02*
X91525000Y-63000000I0J500000D01*
G01*
G37*
%TD.AperFunction*%
%TO.P,K2,4*%
%TO.N,Net-(K1-Pad2)*%
%TA.AperFunction,ComponentPad*%
G36*
G01*
X77875000Y-68250000D02*
X77875000Y-67250000D01*
G75*
G02*
X78375000Y-66750000I500000J0D01*
G01*
X79875000Y-66750000D01*
G75*
G02*
X80375000Y-67250000I0J-500000D01*
G01*
X80375000Y-68250000D01*
G75*
G02*
X79875000Y-68750000I-500000J0D01*
G01*
X78375000Y-68750000D01*
G75*
G02*
X77875000Y-68250000I0J500000D01*
G01*
G37*
%TD.AperFunction*%
%TO.P,K2,1*%
%TO.N,Net-(K1-Pad1)*%
%TA.AperFunction,ComponentPad*%
G36*
G01*
X77875000Y-56750000D02*
X77875000Y-55750000D01*
G75*
G02*
X78375000Y-55250000I500000J0D01*
G01*
X79875000Y-55250000D01*
G75*
G02*
X80375000Y-55750000I0J-500000D01*
G01*
X80375000Y-56750000D01*
G75*
G02*
X79875000Y-57250000I-500000J0D01*
G01*
X78375000Y-57250000D01*
G75*
G02*
X77875000Y-56750000I0J500000D01*
G01*
G37*
%TD.AperFunction*%
%TD*%
%TO.P,K2,10*%
%TO.N,Net-(K1-Pad6)*%
%TA.AperFunction,ComponentPad*%
G36*
G01*
X67325000Y-68050000D02*
X67325000Y-66050000D01*
G75*
G02*
X67825000Y-65550000I500000J0D01*
G01*
X68825000Y-65550000D01*
G75*
G02*
X69325000Y-66050000I0J-500000D01*
G01*
X69325000Y-68050000D01*
G75*
G02*
X68825000Y-68550000I-500000J0D01*
G01*
X67825000Y-68550000D01*
G75*
G02*
X67325000Y-68050000I0J500000D01*
G01*
G37*
%TD.AperFunction*%
%TO.P,K2,6*%
%TO.N,Net-(K1-Pad3)*%
%TA.AperFunction,ComponentPad*%
G36*
G01*
X67325000Y-63000000D02*
X67325000Y-61000000D01*
G75*
G02*
X67825000Y-60500000I500000J0D01*
G01*
X68825000Y-60500000D01*
G75*
G02*
X69325000Y-61000000I0J-500000D01*
G01*
X69325000Y-63000000D01*
G75*
G02*
X68825000Y-63500000I-500000J0D01*
G01*
X67825000Y-63500000D01*
G75*
G02*
X67325000Y-63000000I0J500000D01*
G01*
G37*
%TD.AperFunction*%
%TO.P,K2,7*%
%TO.N,Net-(K1-Pad4)*%
%TA.AperFunction,ComponentPad*%
G36*
G01*
X67325000Y-57950000D02*
X67325000Y-55950000D01*
G75*
G02*
X67825000Y-55450000I500000J0D01*
G01*
X68825000Y-55450000D01*
G75*
G02*
X69325000Y-55950000I0J-500000D01*
G01*
X69325000Y-57950000D01*
G75*
G02*
X68825000Y-58450000I-500000J0D01*
G01*
X67825000Y-58450000D01*
G75*
G02*
X67325000Y-57950000I0J500000D01*
G01*
G37*
%TD.AperFunction*%
%TO.P,K2,9*%
%TO.N,Net-(K1-Pad5)*%
%TA.AperFunction,ComponentPad*%
G36*
G01*
X64525000Y-63000000D02*
X64525000Y-61000000D01*
G75*
G02*
X65025000Y-60500000I500000J0D01*
G01*
X66025000Y-60500000D01*
G75*
G02*
X66525000Y-61000000I0J-500000D01*
G01*
X66525000Y-63000000D01*
G75*
G02*
X66025000Y-63500000I-500000J0D01*
G01*
X65025000Y-63500000D01*
G75*
G02*
X64525000Y-63000000I0J500000D01*
G01*
G37*
%TD.AperFunction*%
%TO.P,K2,4*%
%TO.N,Net-(K1-Pad2)*%
%TA.AperFunction,ComponentPad*%
G36*
G01*
X50875000Y-68250000D02*
X50875000Y-67250000D01*
G75*
G02*
X51375000Y-66750000I500000J0D01*
G01*
X52875000Y-66750000D01*
G75*
G02*
X53375000Y-67250000I0J-500000D01*
G01*
X53375000Y-68250000D01*
G75*
G02*
X52875000Y-68750000I-500000J0D01*
G01*
X51375000Y-68750000D01*
G75*
G02*
X50875000Y-68250000I0J500000D01*
G01*
G37*
%TD.AperFunction*%
%TO.P,K2,1*%
%TO.N,Net-(K1-Pad1)*%
%TA.AperFunction,ComponentPad*%
G36*
G01*
X50875000Y-56750000D02*
X50875000Y-55750000D01*
G75*
G02*
X51375000Y-55250000I500000J0D01*
G01*
X52875000Y-55250000D01*
G75*
G02*
X53375000Y-55750000I0J-500000D01*
G01*
X53375000Y-56750000D01*
G75*
G02*
X52875000Y-57250000I-500000J0D01*
G01*
X51375000Y-57250000D01*
G75*
G02*
X50875000Y-56750000I0J500000D01*
G01*
G37*
%TD.AperFunction*%
%TD*%
%TO.P,K2,10*%
%TO.N,Net-(K1-Pad6)*%
%TA.AperFunction,ComponentPad*%
G36*
G01*
X121325000Y-52050000D02*
X121325000Y-50050000D01*
G75*
G02*
X121825000Y-49550000I500000J0D01*
G01*
X122825000Y-49550000D01*
G75*
G02*
X123325000Y-50050000I0J-500000D01*
G01*
X123325000Y-52050000D01*
G75*
G02*
X122825000Y-52550000I-500000J0D01*
G01*
X121825000Y-52550000D01*
G75*
G02*
X121325000Y-52050000I0J500000D01*
G01*
G37*
%TD.AperFunction*%
%TO.P,K2,6*%
%TO.N,Net-(K1-Pad3)*%
%TA.AperFunction,ComponentPad*%
G36*
G01*
X121325000Y-47000000D02*
X121325000Y-45000000D01*
G75*
G02*
X121825000Y-44500000I500000J0D01*
G01*
X122825000Y-44500000D01*
G75*
G02*
X123325000Y-45000000I0J-500000D01*
G01*
X123325000Y-47000000D01*
G75*
G02*
X122825000Y-47500000I-500000J0D01*
G01*
X121825000Y-47500000D01*
G75*
G02*
X121325000Y-47000000I0J500000D01*
G01*
G37*
%TD.AperFunction*%
%TO.P,K2,7*%
%TO.N,Net-(K1-Pad4)*%
%TA.AperFunction,ComponentPad*%
G36*
G01*
X121325000Y-41950000D02*
X121325000Y-39950000D01*
G75*
G02*
X121825000Y-39450000I500000J0D01*
G01*
X122825000Y-39450000D01*
G75*
G02*
X123325000Y-39950000I0J-500000D01*
G01*
X123325000Y-41950000D01*
G75*
G02*
X122825000Y-42450000I-500000J0D01*
G01*
X121825000Y-42450000D01*
G75*
G02*
X121325000Y-41950000I0J500000D01*
G01*
G37*
%TD.AperFunction*%
%TO.P,K2,9*%
%TO.N,Net-(K1-Pad5)*%
%TA.AperFunction,ComponentPad*%
G36*
G01*
X118525000Y-47000000D02*
X118525000Y-45000000D01*
G75*
G02*
X119025000Y-44500000I500000J0D01*
G01*
X120025000Y-44500000D01*
G75*
G02*
X120525000Y-45000000I0J-500000D01*
G01*
X120525000Y-47000000D01*
G75*
G02*
X120025000Y-47500000I-500000J0D01*
G01*
X119025000Y-47500000D01*
G75*
G02*
X118525000Y-47000000I0J500000D01*
G01*
G37*
%TD.AperFunction*%
%TO.P,K2,4*%
%TO.N,Net-(K1-Pad2)*%
%TA.AperFunction,ComponentPad*%
G36*
G01*
X104875000Y-52250000D02*
X104875000Y-51250000D01*
G75*
G02*
X105375000Y-50750000I500000J0D01*
G01*
X106875000Y-50750000D01*
G75*
G02*
X107375000Y-51250000I0J-500000D01*
G01*
X107375000Y-52250000D01*
G75*
G02*
X106875000Y-52750000I-500000J0D01*
G01*
X105375000Y-52750000D01*
G75*
G02*
X104875000Y-52250000I0J500000D01*
G01*
G37*
%TD.AperFunction*%
%TO.P,K2,1*%
%TO.N,Net-(K1-Pad1)*%
%TA.AperFunction,ComponentPad*%
G36*
G01*
X104875000Y-40750000D02*
X104875000Y-39750000D01*
G75*
G02*
X105375000Y-39250000I500000J0D01*
G01*
X106875000Y-39250000D01*
G75*
G02*
X107375000Y-39750000I0J-500000D01*
G01*
X107375000Y-40750000D01*
G75*
G02*
X106875000Y-41250000I-500000J0D01*
G01*
X105375000Y-41250000D01*
G75*
G02*
X104875000Y-40750000I0J500000D01*
G01*
G37*
%TD.AperFunction*%
%TD*%
%TO.P,K2,10*%
%TO.N,Net-(K1-Pad6)*%
%TA.AperFunction,ComponentPad*%
G36*
G01*
X94325000Y-52050000D02*
X94325000Y-50050000D01*
G75*
G02*
X94825000Y-49550000I500000J0D01*
G01*
X95825000Y-49550000D01*
G75*
G02*
X96325000Y-50050000I0J-500000D01*
G01*
X96325000Y-52050000D01*
G75*
G02*
X95825000Y-52550000I-500000J0D01*
G01*
X94825000Y-52550000D01*
G75*
G02*
X94325000Y-52050000I0J500000D01*
G01*
G37*
%TD.AperFunction*%
%TO.P,K2,6*%
%TO.N,Net-(K1-Pad3)*%
%TA.AperFunction,ComponentPad*%
G36*
G01*
X94325000Y-47000000D02*
X94325000Y-45000000D01*
G75*
G02*
X94825000Y-44500000I500000J0D01*
G01*
X95825000Y-44500000D01*
G75*
G02*
X96325000Y-45000000I0J-500000D01*
G01*
X96325000Y-47000000D01*
G75*
G02*
X95825000Y-47500000I-500000J0D01*
G01*
X94825000Y-47500000D01*
G75*
G02*
X94325000Y-47000000I0J500000D01*
G01*
G37*
%TD.AperFunction*%
%TO.P,K2,7*%
%TO.N,Net-(K1-Pad4)*%
%TA.AperFunction,ComponentPad*%
G36*
G01*
X94325000Y-41950000D02*
X94325000Y-39950000D01*
G75*
G02*
X94825000Y-39450000I500000J0D01*
G01*
X95825000Y-39450000D01*
G75*
G02*
X96325000Y-39950000I0J-500000D01*
G01*
X96325000Y-41950000D01*
G75*
G02*
X95825000Y-42450000I-500000J0D01*
G01*
X94825000Y-42450000D01*
G75*
G02*
X94325000Y-41950000I0J500000D01*
G01*
G37*
%TD.AperFunction*%
%TO.P,K2,9*%
%TO.N,Net-(K1-Pad5)*%
%TA.AperFunction,ComponentPad*%
G36*
G01*
X91525000Y-47000000D02*
X91525000Y-45000000D01*
G75*
G02*
X92025000Y-44500000I500000J0D01*
G01*
X93025000Y-44500000D01*
G75*
G02*
X93525000Y-45000000I0J-500000D01*
G01*
X93525000Y-47000000D01*
G75*
G02*
X93025000Y-47500000I-500000J0D01*
G01*
X92025000Y-47500000D01*
G75*
G02*
X91525000Y-47000000I0J500000D01*
G01*
G37*
%TD.AperFunction*%
%TO.P,K2,4*%
%TO.N,Net-(K1-Pad2)*%
%TA.AperFunction,ComponentPad*%
G36*
G01*
X77875000Y-52250000D02*
X77875000Y-51250000D01*
G75*
G02*
X78375000Y-50750000I500000J0D01*
G01*
X79875000Y-50750000D01*
G75*
G02*
X80375000Y-51250000I0J-500000D01*
G01*
X80375000Y-52250000D01*
G75*
G02*
X79875000Y-52750000I-500000J0D01*
G01*
X78375000Y-52750000D01*
G75*
G02*
X77875000Y-52250000I0J500000D01*
G01*
G37*
%TD.AperFunction*%
%TO.P,K2,1*%
%TO.N,Net-(K1-Pad1)*%
%TA.AperFunction,ComponentPad*%
G36*
G01*
X77875000Y-40750000D02*
X77875000Y-39750000D01*
G75*
G02*
X78375000Y-39250000I500000J0D01*
G01*
X79875000Y-39250000D01*
G75*
G02*
X80375000Y-39750000I0J-500000D01*
G01*
X80375000Y-40750000D01*
G75*
G02*
X79875000Y-41250000I-500000J0D01*
G01*
X78375000Y-41250000D01*
G75*
G02*
X77875000Y-40750000I0J500000D01*
G01*
G37*
%TD.AperFunction*%
%TD*%
%TO.P,K2,1*%
%TO.N,Net-(K1-Pad1)*%
%TA.AperFunction,ComponentPad*%
G36*
G01*
X50875000Y-40750000D02*
X50875000Y-39750000D01*
G75*
G02*
X51375000Y-39250000I500000J0D01*
G01*
X52875000Y-39250000D01*
G75*
G02*
X53375000Y-39750000I0J-500000D01*
G01*
X53375000Y-40750000D01*
G75*
G02*
X52875000Y-41250000I-500000J0D01*
G01*
X51375000Y-41250000D01*
G75*
G02*
X50875000Y-40750000I0J500000D01*
G01*
G37*
%TD.AperFunction*%
%TO.P,K2,4*%
%TO.N,Net-(K1-Pad2)*%
%TA.AperFunction,ComponentPad*%
G36*
G01*
X50875000Y-52250000D02*
X50875000Y-51250000D01*
G75*
G02*
X51375000Y-50750000I500000J0D01*
G01*
X52875000Y-50750000D01*
G75*
G02*
X53375000Y-51250000I0J-500000D01*
G01*
X53375000Y-52250000D01*
G75*
G02*
X52875000Y-52750000I-500000J0D01*
G01*
X51375000Y-52750000D01*
G75*
G02*
X50875000Y-52250000I0J500000D01*
G01*
G37*
%TD.AperFunction*%
%TO.P,K2,9*%
%TO.N,Net-(K1-Pad5)*%
%TA.AperFunction,ComponentPad*%
G36*
G01*
X64525000Y-47000000D02*
X64525000Y-45000000D01*
G75*
G02*
X65025000Y-44500000I500000J0D01*
G01*
X66025000Y-44500000D01*
G75*
G02*
X66525000Y-45000000I0J-500000D01*
G01*
X66525000Y-47000000D01*
G75*
G02*
X66025000Y-47500000I-500000J0D01*
G01*
X65025000Y-47500000D01*
G75*
G02*
X64525000Y-47000000I0J500000D01*
G01*
G37*
%TD.AperFunction*%
%TO.P,K2,7*%
%TO.N,Net-(K1-Pad4)*%
%TA.AperFunction,ComponentPad*%
G36*
G01*
X67325000Y-41950000D02*
X67325000Y-39950000D01*
G75*
G02*
X67825000Y-39450000I500000J0D01*
G01*
X68825000Y-39450000D01*
G75*
G02*
X69325000Y-39950000I0J-500000D01*
G01*
X69325000Y-41950000D01*
G75*
G02*
X68825000Y-42450000I-500000J0D01*
G01*
X67825000Y-42450000D01*
G75*
G02*
X67325000Y-41950000I0J500000D01*
G01*
G37*
%TD.AperFunction*%
%TO.P,K2,6*%
%TO.N,Net-(K1-Pad3)*%
%TA.AperFunction,ComponentPad*%
G36*
G01*
X67325000Y-47000000D02*
X67325000Y-45000000D01*
G75*
G02*
X67825000Y-44500000I500000J0D01*
G01*
X68825000Y-44500000D01*
G75*
G02*
X69325000Y-45000000I0J-500000D01*
G01*
X69325000Y-47000000D01*
G75*
G02*
X68825000Y-47500000I-500000J0D01*
G01*
X67825000Y-47500000D01*
G75*
G02*
X67325000Y-47000000I0J500000D01*
G01*
G37*
%TD.AperFunction*%
%TO.P,K2,10*%
%TO.N,Net-(K1-Pad6)*%
%TA.AperFunction,ComponentPad*%
G36*
G01*
X67325000Y-52050000D02*
X67325000Y-50050000D01*
G75*
G02*
X67825000Y-49550000I500000J0D01*
G01*
X68825000Y-49550000D01*
G75*
G02*
X69325000Y-50050000I0J-500000D01*
G01*
X69325000Y-52050000D01*
G75*
G02*
X68825000Y-52550000I-500000J0D01*
G01*
X67825000Y-52550000D01*
G75*
G02*
X67325000Y-52050000I0J500000D01*
G01*
G37*
%TD.AperFunction*%
%TD*%
%TO.P,K1,1*%
%TO.N,Net-(K1-Pad1)*%
%TA.AperFunction,ComponentPad*%
G36*
G01*
X49260001Y-42740001D02*
X49260001Y-41740001D01*
G75*
G02*
X49760001Y-41240001I500000J0D01*
G01*
X51260001Y-41240001D01*
G75*
G02*
X51760001Y-41740001I0J-500000D01*
G01*
X51760001Y-42740001D01*
G75*
G02*
X51260001Y-43240001I-500000J0D01*
G01*
X49760001Y-43240001D01*
G75*
G02*
X49260001Y-42740001I0J500000D01*
G01*
G37*
%TD.AperFunction*%
%TO.P,K1,2*%
%TO.N,Net-(K1-Pad2)*%
%TA.AperFunction,ComponentPad*%
G36*
G01*
X49260001Y-50240001D02*
X49260001Y-49240001D01*
G75*
G02*
X49760001Y-48740001I500000J0D01*
G01*
X51260001Y-48740001D01*
G75*
G02*
X51760001Y-49240001I0J-500000D01*
G01*
X51760001Y-50240001D01*
G75*
G02*
X51260001Y-50740001I-500000J0D01*
G01*
X49760001Y-50740001D01*
G75*
G02*
X49260001Y-50240001I0J500000D01*
G01*
G37*
%TD.AperFunction*%
%TO.P,K1,3*%
%TO.N,Net-(K1-Pad3)*%
%TA.AperFunction,ComponentPad*%
G36*
G01*
X64510001Y-43240001D02*
X64510001Y-41240001D01*
G75*
G02*
X65010001Y-40740001I500000J0D01*
G01*
X66010001Y-40740001D01*
G75*
G02*
X66510001Y-41240001I0J-500000D01*
G01*
X66510001Y-43240001D01*
G75*
G02*
X66010001Y-43740001I-500000J0D01*
G01*
X65010001Y-43740001D01*
G75*
G02*
X64510001Y-43240001I0J500000D01*
G01*
G37*
%TD.AperFunction*%
%TO.P,K1,4*%
%TO.N,Net-(K1-Pad4)*%
%TA.AperFunction,ComponentPad*%
G36*
G01*
X69510001Y-43240001D02*
X69510001Y-41240001D01*
G75*
G02*
X70010001Y-40740001I500000J0D01*
G01*
X71010001Y-40740001D01*
G75*
G02*
X71510001Y-41240001I0J-500000D01*
G01*
X71510001Y-43240001D01*
G75*
G02*
X71010001Y-43740001I-500000J0D01*
G01*
X70010001Y-43740001D01*
G75*
G02*
X69510001Y-43240001I0J500000D01*
G01*
G37*
%TD.AperFunction*%
%TO.P,K1,5*%
%TO.N,Net-(K1-Pad5)*%
%TA.AperFunction,ComponentPad*%
G36*
G01*
X64510001Y-50740001D02*
X64510001Y-48740001D01*
G75*
G02*
X65010001Y-48240001I500000J0D01*
G01*
X66010001Y-48240001D01*
G75*
G02*
X66510001Y-48740001I0J-500000D01*
G01*
X66510001Y-50740001D01*
G75*
G02*
X66010001Y-51240001I-500000J0D01*
G01*
X65010001Y-51240001D01*
G75*
G02*
X64510001Y-50740001I0J500000D01*
G01*
G37*
%TD.AperFunction*%
%TO.P,K1,6*%
%TO.N,Net-(K1-Pad6)*%
%TA.AperFunction,ComponentPad*%
G36*
G01*
X69510001Y-50740001D02*
X69510001Y-48740001D01*
G75*
G02*
X70010001Y-48240001I500000J0D01*
G01*
X71010001Y-48240001D01*
G75*
G02*
X71510001Y-48740001I0J-500000D01*
G01*
X71510001Y-50740001D01*
G75*
G02*
X71010001Y-51240001I-500000J0D01*
G01*
X70010001Y-51240001D01*
G75*
G02*
X69510001Y-50740001I0J500000D01*
G01*
G37*
%TD.AperFunction*%
%TD*%
D10*
%TO.N,Net-(K1-Pad6)*%
X69250002Y-51000000D02*
X70510001Y-49740001D01*
X68325000Y-51000000D02*
X69250002Y-51000000D01*
X95325000Y-51000000D02*
X96250002Y-51000000D01*
X122325000Y-51000000D02*
X123250002Y-51000000D01*
X68325000Y-67000000D02*
X69250002Y-67000000D01*
X95325000Y-67000000D02*
X96250002Y-67000000D01*
X122325000Y-67000000D02*
X123250002Y-67000000D01*
X68325000Y-83000000D02*
X69250002Y-83000000D01*
X95325000Y-83000000D02*
X96250002Y-83000000D01*
X122325000Y-83000000D02*
X123250002Y-83000000D01*
X68325000Y-99000000D02*
X69250002Y-99000000D01*
X95325000Y-99000000D02*
X96250002Y-99000000D01*
X122325000Y-99000000D02*
X123250002Y-99000000D01*
X68325000Y-115000000D02*
X69250002Y-115000000D01*
X95325000Y-115000000D02*
X96250002Y-115000000D01*
X122325000Y-115000000D02*
X123250002Y-115000000D01*
X68325000Y-131000000D02*
X69250002Y-131000000D01*
X95325000Y-131000000D02*
X96250002Y-131000000D01*
X122325000Y-131000000D02*
X123250002Y-131000000D01*
X96250002Y-51000000D02*
X97510001Y-49740001D01*
X123250002Y-51000000D02*
X124510001Y-49740001D01*
X69250002Y-67000000D02*
X70510001Y-65740001D01*
X96250002Y-67000000D02*
X97510001Y-65740001D01*
X123250002Y-67000000D02*
X124510001Y-65740001D01*
X69250002Y-83000000D02*
X70510001Y-81740001D01*
X96250002Y-83000000D02*
X97510001Y-81740001D01*
X123250002Y-83000000D02*
X124510001Y-81740001D01*
X69250002Y-99000000D02*
X70510001Y-97740001D01*
X96250002Y-99000000D02*
X97510001Y-97740001D01*
X123250002Y-99000000D02*
X124510001Y-97740001D01*
X69250002Y-115000000D02*
X70510001Y-113740001D01*
X96250002Y-115000000D02*
X97510001Y-113740001D01*
X123250002Y-115000000D02*
X124510001Y-113740001D01*
X69250002Y-131000000D02*
X70510001Y-129740001D01*
X96250002Y-131000000D02*
X97510001Y-129740001D01*
X123250002Y-131000000D02*
X124510001Y-129740001D01*
%TO.N,Net-(K1-Pad5)*%
X65510001Y-49740001D02*
X65510001Y-47664999D01*
X92510001Y-49740001D02*
X92510001Y-47664999D01*
X119510001Y-49740001D02*
X119510001Y-47664999D01*
X65510001Y-65740001D02*
X65510001Y-63664999D01*
X92510001Y-65740001D02*
X92510001Y-63664999D01*
X119510001Y-65740001D02*
X119510001Y-63664999D01*
X65510001Y-81740001D02*
X65510001Y-79664999D01*
X92510001Y-81740001D02*
X92510001Y-79664999D01*
X119510001Y-81740001D02*
X119510001Y-79664999D01*
X65510001Y-97740001D02*
X65510001Y-95664999D01*
X92510001Y-97740001D02*
X92510001Y-95664999D01*
X119510001Y-97740001D02*
X119510001Y-95664999D01*
X65510001Y-113740001D02*
X65510001Y-111664999D01*
X92510001Y-113740001D02*
X92510001Y-111664999D01*
X119510001Y-113740001D02*
X119510001Y-111664999D01*
X65510001Y-129740001D02*
X65510001Y-127664999D01*
X92510001Y-129740001D02*
X92510001Y-127664999D01*
X119510001Y-129740001D02*
X119510001Y-127664999D01*
%TO.N,Net-(K1-Pad4)*%
X69270000Y-41000000D02*
X70510001Y-42240001D01*
X68325000Y-41000000D02*
X69270000Y-41000000D01*
X96270000Y-41000000D02*
X97510001Y-42240001D01*
X123270000Y-41000000D02*
X124510001Y-42240001D01*
X69270000Y-57000000D02*
X70510001Y-58240001D01*
X96270000Y-57000000D02*
X97510001Y-58240001D01*
X123270000Y-57000000D02*
X124510001Y-58240001D01*
X69270000Y-73000000D02*
X70510001Y-74240001D01*
X96270000Y-73000000D02*
X97510001Y-74240001D01*
X123270000Y-73000000D02*
X124510001Y-74240001D01*
X69270000Y-89000000D02*
X70510001Y-90240001D01*
X96270000Y-89000000D02*
X97510001Y-90240001D01*
X123270000Y-89000000D02*
X124510001Y-90240001D01*
X69270000Y-105000000D02*
X70510001Y-106240001D01*
X96270000Y-105000000D02*
X97510001Y-106240001D01*
X123270000Y-105000000D02*
X124510001Y-106240001D01*
X69270000Y-121000000D02*
X70510001Y-122240001D01*
X96270000Y-121000000D02*
X97510001Y-122240001D01*
X123270000Y-121000000D02*
X124510001Y-122240001D01*
X95325000Y-41000000D02*
X96270000Y-41000000D01*
X122325000Y-41000000D02*
X123270000Y-41000000D01*
X68325000Y-57000000D02*
X69270000Y-57000000D01*
X95325000Y-57000000D02*
X96270000Y-57000000D01*
X122325000Y-57000000D02*
X123270000Y-57000000D01*
X68325000Y-73000000D02*
X69270000Y-73000000D01*
X95325000Y-73000000D02*
X96270000Y-73000000D01*
X122325000Y-73000000D02*
X123270000Y-73000000D01*
X68325000Y-89000000D02*
X69270000Y-89000000D01*
X95325000Y-89000000D02*
X96270000Y-89000000D01*
X122325000Y-89000000D02*
X123270000Y-89000000D01*
X68325000Y-105000000D02*
X69270000Y-105000000D01*
X95325000Y-105000000D02*
X96270000Y-105000000D01*
X122325000Y-105000000D02*
X123270000Y-105000000D01*
X68325000Y-121000000D02*
X69270000Y-121000000D01*
X95325000Y-121000000D02*
X96270000Y-121000000D01*
X122325000Y-121000000D02*
X123270000Y-121000000D01*
D11*
%TO.N,Net-(K1-Pad3)*%
X65510001Y-42240001D02*
X65510001Y-42589999D01*
D10*
X68325000Y-45404998D02*
X68325000Y-46000000D01*
X65510001Y-42589999D02*
X68325000Y-45404998D01*
X95325000Y-45404998D02*
X95325000Y-46000000D01*
X122325000Y-45404998D02*
X122325000Y-46000000D01*
X68325000Y-61404998D02*
X68325000Y-62000000D01*
X95325000Y-61404998D02*
X95325000Y-62000000D01*
X122325000Y-61404998D02*
X122325000Y-62000000D01*
X68325000Y-77404998D02*
X68325000Y-78000000D01*
X95325000Y-77404998D02*
X95325000Y-78000000D01*
X122325000Y-77404998D02*
X122325000Y-78000000D01*
X68325000Y-93404998D02*
X68325000Y-94000000D01*
X95325000Y-93404998D02*
X95325000Y-94000000D01*
X122325000Y-93404998D02*
X122325000Y-94000000D01*
X68325000Y-109404998D02*
X68325000Y-110000000D01*
X95325000Y-109404998D02*
X95325000Y-110000000D01*
X122325000Y-109404998D02*
X122325000Y-110000000D01*
X68325000Y-125404998D02*
X68325000Y-126000000D01*
X95325000Y-125404998D02*
X95325000Y-126000000D01*
X122325000Y-125404998D02*
X122325000Y-126000000D01*
D11*
X92510001Y-42240001D02*
X92510001Y-42589999D01*
X119510001Y-42240001D02*
X119510001Y-42589999D01*
X65510001Y-58240001D02*
X65510001Y-58589999D01*
X92510001Y-58240001D02*
X92510001Y-58589999D01*
X119510001Y-58240001D02*
X119510001Y-58589999D01*
X65510001Y-74240001D02*
X65510001Y-74589999D01*
X92510001Y-74240001D02*
X92510001Y-74589999D01*
X119510001Y-74240001D02*
X119510001Y-74589999D01*
X65510001Y-90240001D02*
X65510001Y-90589999D01*
X92510001Y-90240001D02*
X92510001Y-90589999D01*
X119510001Y-90240001D02*
X119510001Y-90589999D01*
X65510001Y-106240001D02*
X65510001Y-106589999D01*
X92510001Y-106240001D02*
X92510001Y-106589999D01*
X119510001Y-106240001D02*
X119510001Y-106589999D01*
X65510001Y-122240001D02*
X65510001Y-122589999D01*
X92510001Y-122240001D02*
X92510001Y-122589999D01*
X119510001Y-122240001D02*
X119510001Y-122589999D01*
D10*
X92510001Y-42589999D02*
X95325000Y-45404998D01*
X119510001Y-42589999D02*
X122325000Y-45404998D01*
X65510001Y-58589999D02*
X68325000Y-61404998D01*
X92510001Y-58589999D02*
X95325000Y-61404998D01*
X119510001Y-58589999D02*
X122325000Y-61404998D01*
X65510001Y-74589999D02*
X68325000Y-77404998D01*
X92510001Y-74589999D02*
X95325000Y-77404998D01*
X119510001Y-74589999D02*
X122325000Y-77404998D01*
X65510001Y-90589999D02*
X68325000Y-93404998D01*
X92510001Y-90589999D02*
X95325000Y-93404998D01*
X119510001Y-90589999D02*
X122325000Y-93404998D01*
X65510001Y-106589999D02*
X68325000Y-109404998D01*
X92510001Y-106589999D02*
X95325000Y-109404998D01*
X119510001Y-106589999D02*
X122325000Y-109404998D01*
X65510001Y-122589999D02*
X68325000Y-125404998D01*
X92510001Y-122589999D02*
X95325000Y-125404998D01*
X119510001Y-122589999D02*
X122325000Y-125404998D01*
%TO.N,Net-(K1-Pad2)*%
X50510001Y-50135001D02*
X52125000Y-51750000D01*
X50510001Y-49740001D02*
X50510001Y-50135001D01*
X77510001Y-49740001D02*
X77510001Y-50135001D01*
X104510001Y-49740001D02*
X104510001Y-50135001D01*
X50510001Y-65740001D02*
X50510001Y-66135001D01*
X77510001Y-65740001D02*
X77510001Y-66135001D01*
X104510001Y-65740001D02*
X104510001Y-66135001D01*
X50510001Y-81740001D02*
X50510001Y-82135001D01*
X77510001Y-81740001D02*
X77510001Y-82135001D01*
X104510001Y-81740001D02*
X104510001Y-82135001D01*
X50510001Y-97740001D02*
X50510001Y-98135001D01*
X77510001Y-97740001D02*
X77510001Y-98135001D01*
X104510001Y-97740001D02*
X104510001Y-98135001D01*
X50510001Y-113740001D02*
X50510001Y-114135001D01*
X77510001Y-113740001D02*
X77510001Y-114135001D01*
X104510001Y-113740001D02*
X104510001Y-114135001D01*
X50510001Y-129740001D02*
X50510001Y-130135001D01*
X77510001Y-129740001D02*
X77510001Y-130135001D01*
X104510001Y-129740001D02*
X104510001Y-130135001D01*
X77510001Y-50135001D02*
X79125000Y-51750000D01*
X104510001Y-50135001D02*
X106125000Y-51750000D01*
X50510001Y-66135001D02*
X52125000Y-67750000D01*
X77510001Y-66135001D02*
X79125000Y-67750000D01*
X104510001Y-66135001D02*
X106125000Y-67750000D01*
X50510001Y-82135001D02*
X52125000Y-83750000D01*
X77510001Y-82135001D02*
X79125000Y-83750000D01*
X104510001Y-82135001D02*
X106125000Y-83750000D01*
X50510001Y-98135001D02*
X52125000Y-99750000D01*
X77510001Y-98135001D02*
X79125000Y-99750000D01*
X104510001Y-98135001D02*
X106125000Y-99750000D01*
X50510001Y-114135001D02*
X52125000Y-115750000D01*
X77510001Y-114135001D02*
X79125000Y-115750000D01*
X104510001Y-114135001D02*
X106125000Y-115750000D01*
X50510001Y-130135001D02*
X52125000Y-131750000D01*
X77510001Y-130135001D02*
X79125000Y-131750000D01*
X104510001Y-130135001D02*
X106125000Y-131750000D01*
%TO.N,Net-(K1-Pad1)*%
X50510001Y-41864999D02*
X52125000Y-40250000D01*
X50510001Y-42240001D02*
X50510001Y-41864999D01*
X77510001Y-41864999D02*
X79125000Y-40250000D01*
X104510001Y-41864999D02*
X106125000Y-40250000D01*
X50510001Y-57864999D02*
X52125000Y-56250000D01*
X77510001Y-57864999D02*
X79125000Y-56250000D01*
X104510001Y-57864999D02*
X106125000Y-56250000D01*
X50510001Y-73864999D02*
X52125000Y-72250000D01*
X77510001Y-73864999D02*
X79125000Y-72250000D01*
X104510001Y-73864999D02*
X106125000Y-72250000D01*
X50510001Y-89864999D02*
X52125000Y-88250000D01*
X77510001Y-89864999D02*
X79125000Y-88250000D01*
X104510001Y-89864999D02*
X106125000Y-88250000D01*
X50510001Y-105864999D02*
X52125000Y-104250000D01*
X77510001Y-105864999D02*
X79125000Y-104250000D01*
X104510001Y-105864999D02*
X106125000Y-104250000D01*
X50510001Y-121864999D02*
X52125000Y-120250000D01*
X77510001Y-121864999D02*
X79125000Y-120250000D01*
X104510001Y-121864999D02*
X106125000Y-120250000D01*
X77510001Y-42240001D02*
X77510001Y-41864999D01*
X104510001Y-42240001D02*
X104510001Y-41864999D01*
X50510001Y-58240001D02*
X50510001Y-57864999D01*
X77510001Y-58240001D02*
X77510001Y-57864999D01*
X104510001Y-58240001D02*
X104510001Y-57864999D01*
X50510001Y-74240001D02*
X50510001Y-73864999D01*
X77510001Y-74240001D02*
X77510001Y-73864999D01*
X104510001Y-74240001D02*
X104510001Y-73864999D01*
X50510001Y-90240001D02*
X50510001Y-89864999D01*
X77510001Y-90240001D02*
X77510001Y-89864999D01*
X104510001Y-90240001D02*
X104510001Y-89864999D01*
X50510001Y-106240001D02*
X50510001Y-105864999D01*
X77510001Y-106240001D02*
X77510001Y-105864999D01*
X104510001Y-106240001D02*
X104510001Y-105864999D01*
X50510001Y-122240001D02*
X50510001Y-121864999D01*
X77510001Y-122240001D02*
X77510001Y-121864999D01*
X104510001Y-122240001D02*
X104510001Y-121864999D01*
%TD*%
M02*
