M48
; DRILL file {KiCad (5.1.10)-1} date 12/01/21 17:32:54
; FORMAT={-:-/ absolute / metric / decimal}
; #@! TF.CreationDate,2021-12-01T17:32:54+01:00
; #@! TF.GenerationSoftware,Kicad,Pcbnew,(5.1.10)-1
; #@! TF.FileFunction,NonPlated,1,2,NPTH
FMAT,2
METRIC
T1C0.500
%
G90
G05
T1
X58.25Y-53.25
X58.25Y-54.75
X58.25Y-69.25
X58.25Y-70.75
X58.25Y-85.25
X58.25Y-86.75
X58.25Y-101.25
X58.25Y-102.75
X58.25Y-117.25
X58.25Y-118.75
X59.0Y-53.25
X59.0Y-54.75
X59.0Y-69.25
X59.0Y-70.75
X59.0Y-85.25
X59.0Y-86.75
X59.0Y-101.25
X59.0Y-102.75
X59.0Y-117.25
X59.0Y-118.75
X59.75Y-53.25
X59.75Y-54.75
X59.75Y-69.25
X59.75Y-70.75
X59.75Y-85.25
X59.75Y-86.75
X59.75Y-101.25
X59.75Y-102.75
X59.75Y-117.25
X59.75Y-118.75
X60.5Y-53.25
X60.5Y-54.75
X60.5Y-69.25
X60.5Y-70.75
X60.5Y-85.25
X60.5Y-86.75
X60.5Y-101.25
X60.5Y-102.75
X60.5Y-117.25
X60.5Y-118.75
X61.25Y-53.25
X61.25Y-54.75
X61.25Y-69.25
X61.25Y-70.75
X61.25Y-85.25
X61.25Y-86.75
X61.25Y-101.25
X61.25Y-102.75
X61.25Y-117.25
X61.25Y-118.75
X62.0Y-53.25
X62.0Y-54.75
X62.0Y-69.25
X62.0Y-70.75
X62.0Y-85.25
X62.0Y-86.75
X62.0Y-101.25
X62.0Y-102.75
X62.0Y-117.25
X62.0Y-118.75
X62.75Y-53.25
X62.75Y-54.75
X62.75Y-69.25
X62.75Y-70.75
X62.75Y-85.25
X62.75Y-86.75
X62.75Y-101.25
X62.75Y-102.75
X62.75Y-117.25
X62.75Y-118.75
X73.25Y-43.75
X73.25Y-44.5
X73.25Y-45.25
X73.25Y-46.0
X73.25Y-46.75
X73.25Y-47.5
X73.25Y-48.25
X73.25Y-59.75
X73.25Y-60.5
X73.25Y-61.25
X73.25Y-62.0
X73.25Y-62.75
X73.25Y-63.5
X73.25Y-64.25
X73.25Y-75.75
X73.25Y-76.5
X73.25Y-77.25
X73.25Y-78.0
X73.25Y-78.75
X73.25Y-79.5
X73.25Y-80.25
X73.25Y-91.75
X73.25Y-92.5
X73.25Y-93.25
X73.25Y-94.0
X73.25Y-94.75
X73.25Y-95.5
X73.25Y-96.25
X73.25Y-107.75
X73.25Y-108.5
X73.25Y-109.25
X73.25Y-110.0
X73.25Y-110.75
X73.25Y-111.5
X73.25Y-112.25
X73.25Y-123.75
X73.25Y-124.5
X73.25Y-125.25
X73.25Y-126.0
X73.25Y-126.75
X73.25Y-127.5
X73.25Y-128.25
X74.75Y-43.75
X74.75Y-44.5
X74.75Y-45.25
X74.75Y-46.0
X74.75Y-46.75
X74.75Y-47.5
X74.75Y-48.25
X74.75Y-59.75
X74.75Y-60.5
X74.75Y-61.25
X74.75Y-62.0
X74.75Y-62.75
X74.75Y-63.5
X74.75Y-64.25
X74.75Y-75.75
X74.75Y-76.5
X74.75Y-77.25
X74.75Y-78.0
X74.75Y-78.75
X74.75Y-79.5
X74.75Y-80.25
X74.75Y-91.75
X74.75Y-92.5
X74.75Y-93.25
X74.75Y-94.0
X74.75Y-94.75
X74.75Y-95.5
X74.75Y-96.25
X74.75Y-107.75
X74.75Y-108.5
X74.75Y-109.25
X74.75Y-110.0
X74.75Y-110.75
X74.75Y-111.5
X74.75Y-112.25
X74.75Y-123.75
X74.75Y-124.5
X74.75Y-125.25
X74.75Y-126.0
X74.75Y-126.75
X74.75Y-127.5
X74.75Y-128.25
X85.25Y-53.25
X85.25Y-54.75
X85.25Y-69.25
X85.25Y-70.75
X85.25Y-85.25
X85.25Y-86.75
X85.25Y-101.25
X85.25Y-102.75
X85.25Y-117.25
X85.25Y-118.75
X86.0Y-53.25
X86.0Y-54.75
X86.0Y-69.25
X86.0Y-70.75
X86.0Y-85.25
X86.0Y-86.75
X86.0Y-101.25
X86.0Y-102.75
X86.0Y-117.25
X86.0Y-118.75
X86.75Y-53.25
X86.75Y-54.75
X86.75Y-69.25
X86.75Y-70.75
X86.75Y-85.25
X86.75Y-86.75
X86.75Y-101.25
X86.75Y-102.75
X86.75Y-117.25
X86.75Y-118.75
X87.5Y-53.25
X87.5Y-54.75
X87.5Y-69.25
X87.5Y-70.75
X87.5Y-85.25
X87.5Y-86.75
X87.5Y-101.25
X87.5Y-102.75
X87.5Y-117.25
X87.5Y-118.75
X88.25Y-53.25
X88.25Y-54.75
X88.25Y-69.25
X88.25Y-70.75
X88.25Y-85.25
X88.25Y-86.75
X88.25Y-101.25
X88.25Y-102.75
X88.25Y-117.25
X88.25Y-118.75
X89.0Y-53.25
X89.0Y-54.75
X89.0Y-69.25
X89.0Y-70.75
X89.0Y-85.25
X89.0Y-86.75
X89.0Y-101.25
X89.0Y-102.75
X89.0Y-117.25
X89.0Y-118.75
X89.75Y-53.25
X89.75Y-54.75
X89.75Y-69.25
X89.75Y-70.75
X89.75Y-85.25
X89.75Y-86.75
X89.75Y-101.25
X89.75Y-102.75
X89.75Y-117.25
X89.75Y-118.75
X100.25Y-43.75
X100.25Y-44.5
X100.25Y-45.25
X100.25Y-46.0
X100.25Y-46.75
X100.25Y-47.5
X100.25Y-48.25
X100.25Y-59.75
X100.25Y-60.5
X100.25Y-61.25
X100.25Y-62.0
X100.25Y-62.75
X100.25Y-63.5
X100.25Y-64.25
X100.25Y-75.75
X100.25Y-76.5
X100.25Y-77.25
X100.25Y-78.0
X100.25Y-78.75
X100.25Y-79.5
X100.25Y-80.25
X100.25Y-91.75
X100.25Y-92.5
X100.25Y-93.25
X100.25Y-94.0
X100.25Y-94.75
X100.25Y-95.5
X100.25Y-96.25
X100.25Y-107.75
X100.25Y-108.5
X100.25Y-109.25
X100.25Y-110.0
X100.25Y-110.75
X100.25Y-111.5
X100.25Y-112.25
X100.25Y-123.75
X100.25Y-124.5
X100.25Y-125.25
X100.25Y-126.0
X100.25Y-126.75
X100.25Y-127.5
X100.25Y-128.25
X101.75Y-43.75
X101.75Y-44.5
X101.75Y-45.25
X101.75Y-46.0
X101.75Y-46.75
X101.75Y-47.5
X101.75Y-48.25
X101.75Y-59.75
X101.75Y-60.5
X101.75Y-61.25
X101.75Y-62.0
X101.75Y-62.75
X101.75Y-63.5
X101.75Y-64.25
X101.75Y-75.75
X101.75Y-76.5
X101.75Y-77.25
X101.75Y-78.0
X101.75Y-78.75
X101.75Y-79.5
X101.75Y-80.25
X101.75Y-91.75
X101.75Y-92.5
X101.75Y-93.25
X101.75Y-94.0
X101.75Y-94.75
X101.75Y-95.5
X101.75Y-96.25
X101.75Y-107.75
X101.75Y-108.5
X101.75Y-109.25
X101.75Y-110.0
X101.75Y-110.75
X101.75Y-111.5
X101.75Y-112.25
X101.75Y-123.75
X101.75Y-124.5
X101.75Y-125.25
X101.75Y-126.0
X101.75Y-126.75
X101.75Y-127.5
X101.75Y-128.25
X112.25Y-53.25
X112.25Y-54.75
X112.25Y-69.25
X112.25Y-70.75
X112.25Y-85.25
X112.25Y-86.75
X112.25Y-101.25
X112.25Y-102.75
X112.25Y-117.25
X112.25Y-118.75
X113.0Y-53.25
X113.0Y-54.75
X113.0Y-69.25
X113.0Y-70.75
X113.0Y-85.25
X113.0Y-86.75
X113.0Y-101.25
X113.0Y-102.75
X113.0Y-117.25
X113.0Y-118.75
X113.75Y-53.25
X113.75Y-54.75
X113.75Y-69.25
X113.75Y-70.75
X113.75Y-85.25
X113.75Y-86.75
X113.75Y-101.25
X113.75Y-102.75
X113.75Y-117.25
X113.75Y-118.75
X114.5Y-53.25
X114.5Y-54.75
X114.5Y-69.25
X114.5Y-70.75
X114.5Y-85.25
X114.5Y-86.75
X114.5Y-101.25
X114.5Y-102.75
X114.5Y-117.25
X114.5Y-118.75
X115.25Y-53.25
X115.25Y-54.75
X115.25Y-69.25
X115.25Y-70.75
X115.25Y-85.25
X115.25Y-86.75
X115.25Y-101.25
X115.25Y-102.75
X115.25Y-117.25
X115.25Y-118.75
X116.0Y-53.25
X116.0Y-54.75
X116.0Y-69.25
X116.0Y-70.75
X116.0Y-85.25
X116.0Y-86.75
X116.0Y-101.25
X116.0Y-102.75
X116.0Y-117.25
X116.0Y-118.75
X116.75Y-53.25
X116.75Y-54.75
X116.75Y-69.25
X116.75Y-70.75
X116.75Y-85.25
X116.75Y-86.75
X116.75Y-101.25
X116.75Y-102.75
X116.75Y-117.25
X116.75Y-118.75
T0
M30
