M48
; DRILL file {KiCad (5.1.10)-1} date 12/01/21 17:32:54
; FORMAT={-:-/ absolute / metric / decimal}
; #@! TF.CreationDate,2021-12-01T17:32:54+01:00
; #@! TF.GenerationSoftware,Kicad,Pcbnew,(5.1.10)-1
; #@! TF.FileFunction,Plated,1,2,PTH
FMAT,2
METRIC
T1C1.000
%
G90
G05
T1
X50.51Y-42.24
X50.51Y-49.74
X50.51Y-58.24
X50.51Y-65.74
X50.51Y-74.24
X50.51Y-81.74
X50.51Y-90.24
X50.51Y-97.74
X50.51Y-106.24
X50.51Y-113.74
X50.51Y-122.24
X50.51Y-129.74
X52.125Y-40.25
X52.125Y-51.75
X52.125Y-56.25
X52.125Y-67.75
X52.125Y-72.25
X52.125Y-83.75
X52.125Y-88.25
X52.125Y-99.75
X52.125Y-104.25
X52.125Y-115.75
X52.125Y-120.25
X52.125Y-131.75
X65.51Y-42.24
X65.51Y-49.74
X65.51Y-58.24
X65.51Y-65.74
X65.51Y-74.24
X65.51Y-81.74
X65.51Y-90.24
X65.51Y-97.74
X65.51Y-106.24
X65.51Y-113.74
X65.51Y-122.24
X65.51Y-129.74
X65.525Y-46.0
X65.525Y-62.0
X65.525Y-78.0
X65.525Y-94.0
X65.525Y-110.0
X65.525Y-126.0
X68.325Y-40.95
X68.325Y-46.0
X68.325Y-51.05
X68.325Y-56.95
X68.325Y-62.0
X68.325Y-67.05
X68.325Y-72.95
X68.325Y-78.0
X68.325Y-83.05
X68.325Y-88.95
X68.325Y-94.0
X68.325Y-99.05
X68.325Y-104.95
X68.325Y-110.0
X68.325Y-115.05
X68.325Y-120.95
X68.325Y-126.0
X68.325Y-131.05
X70.51Y-42.24
X70.51Y-49.74
X70.51Y-58.24
X70.51Y-65.74
X70.51Y-74.24
X70.51Y-81.74
X70.51Y-90.24
X70.51Y-97.74
X70.51Y-106.24
X70.51Y-113.74
X70.51Y-122.24
X70.51Y-129.74
X77.51Y-42.24
X77.51Y-49.74
X77.51Y-58.24
X77.51Y-65.74
X77.51Y-74.24
X77.51Y-81.74
X77.51Y-90.24
X77.51Y-97.74
X77.51Y-106.24
X77.51Y-113.74
X77.51Y-122.24
X77.51Y-129.74
X79.125Y-40.25
X79.125Y-51.75
X79.125Y-56.25
X79.125Y-67.75
X79.125Y-72.25
X79.125Y-83.75
X79.125Y-88.25
X79.125Y-99.75
X79.125Y-104.25
X79.125Y-115.75
X79.125Y-120.25
X79.125Y-131.75
X92.51Y-42.24
X92.51Y-49.74
X92.51Y-58.24
X92.51Y-65.74
X92.51Y-74.24
X92.51Y-81.74
X92.51Y-90.24
X92.51Y-97.74
X92.51Y-106.24
X92.51Y-113.74
X92.51Y-122.24
X92.51Y-129.74
X92.525Y-46.0
X92.525Y-62.0
X92.525Y-78.0
X92.525Y-94.0
X92.525Y-110.0
X92.525Y-126.0
X95.325Y-40.95
X95.325Y-46.0
X95.325Y-51.05
X95.325Y-56.95
X95.325Y-62.0
X95.325Y-67.05
X95.325Y-72.95
X95.325Y-78.0
X95.325Y-83.05
X95.325Y-88.95
X95.325Y-94.0
X95.325Y-99.05
X95.325Y-104.95
X95.325Y-110.0
X95.325Y-115.05
X95.325Y-120.95
X95.325Y-126.0
X95.325Y-131.05
X97.51Y-42.24
X97.51Y-49.74
X97.51Y-58.24
X97.51Y-65.74
X97.51Y-74.24
X97.51Y-81.74
X97.51Y-90.24
X97.51Y-97.74
X97.51Y-106.24
X97.51Y-113.74
X97.51Y-122.24
X97.51Y-129.74
X104.51Y-42.24
X104.51Y-49.74
X104.51Y-58.24
X104.51Y-65.74
X104.51Y-74.24
X104.51Y-81.74
X104.51Y-90.24
X104.51Y-97.74
X104.51Y-106.24
X104.51Y-113.74
X104.51Y-122.24
X104.51Y-129.74
X106.125Y-40.25
X106.125Y-51.75
X106.125Y-56.25
X106.125Y-67.75
X106.125Y-72.25
X106.125Y-83.75
X106.125Y-88.25
X106.125Y-99.75
X106.125Y-104.25
X106.125Y-115.75
X106.125Y-120.25
X106.125Y-131.75
X119.51Y-42.24
X119.51Y-49.74
X119.51Y-58.24
X119.51Y-65.74
X119.51Y-74.24
X119.51Y-81.74
X119.51Y-90.24
X119.51Y-97.74
X119.51Y-106.24
X119.51Y-113.74
X119.51Y-122.24
X119.51Y-129.74
X119.525Y-46.0
X119.525Y-62.0
X119.525Y-78.0
X119.525Y-94.0
X119.525Y-110.0
X119.525Y-126.0
X122.325Y-40.95
X122.325Y-46.0
X122.325Y-51.05
X122.325Y-56.95
X122.325Y-62.0
X122.325Y-67.05
X122.325Y-72.95
X122.325Y-78.0
X122.325Y-83.05
X122.325Y-88.95
X122.325Y-94.0
X122.325Y-99.05
X122.325Y-104.95
X122.325Y-110.0
X122.325Y-115.05
X122.325Y-120.95
X122.325Y-126.0
X122.325Y-131.05
X124.51Y-42.24
X124.51Y-49.74
X124.51Y-58.24
X124.51Y-65.74
X124.51Y-74.24
X124.51Y-81.74
X124.51Y-90.24
X124.51Y-97.74
X124.51Y-106.24
X124.51Y-113.74
X124.51Y-122.24
X124.51Y-129.74
T0
M30
